
<svg xmlns="http://www.w3.org/2000/svg" xmlns:xlink="http://www.w3.org/1999/xlink" version="1.2" width="20000.00mm" height="1000.00mm" viewBox="0 0 11381.1024 569.0551">
<style text="style/css">
<![CDATA[
tspan { white-space: pre; }
]]>
</style>
<!-- Page: 1/1 -->






































<a style="color:inherit;" xlink:href="25:126:141">
<path transform="translate(245.1791, 45.4630) scale(0.0040, -0.0040)" d="M218 136c55 0 108 -28 108 -89c0 -71 -55 -121 -102 -149c-35 -21 -75 -34 -116 -34c-55 0 -108 28 -108 89c0 71 55 121 102 149c35 21 75 34 116 34z" fill="currentColor"/>
</a>
<a style="color:inherit;" xlink:href="25:124:139">
<path transform="translate(241.4749, 45.4630) scale(0.0040, -0.0040)" d="M218 136c55 0 108 -28 108 -89c0 -71 -55 -121 -102 -149c-35 -21 -75 -34 -116 -34c-55 0 -108 28 -108 89c0 71 55 121 102 149c35 21 75 34 116 34z" fill="currentColor"/>
</a>



<a style="color:inherit;" xlink:href="25:128:143">
<path transform="translate(248.8833, 45.4630) scale(0.0040, -0.0040)" d="M218 136c55 0 108 -28 108 -89c0 -71 -55 -121 -102 -149c-35 -21 -75 -34 -116 -34c-55 0 -108 28 -108 89c0 71 55 121 102 149c35 21 75 34 116 34z" fill="currentColor"/>
</a>

<a style="color:inherit;" xlink:href="25:116:131">
<path transform="translate(226.6580, 45.4630) scale(0.0040, -0.0040)" d="M218 136c55 0 108 -28 108 -89c0 -71 -55 -121 -102 -149c-35 -21 -75 -34 -116 -34c-55 0 -108 28 -108 89c0 71 55 121 102 149c35 21 75 34 116 34z" fill="currentColor"/>
</a>

<a style="color:inherit;" xlink:href="25:118:133">
<path transform="translate(230.3622, 45.4630) scale(0.0040, -0.0040)" d="M218 136c55 0 108 -28 108 -89c0 -71 -55 -121 -102 -149c-35 -21 -75 -34 -116 -34c-55 0 -108 28 -108 89c0 71 55 121 102 149c35 21 75 34 116 34z" fill="currentColor"/>
</a>

<a style="color:inherit;" xlink:href="25:120:135">
<path transform="translate(234.0665, 45.4630) scale(0.0040, -0.0040)" d="M218 136c55 0 108 -28 108 -89c0 -71 -55 -121 -102 -149c-35 -21 -75 -34 -116 -34c-55 0 -108 28 -108 89c0 71 55 121 102 149c35 21 75 34 116 34z" fill="currentColor"/>
</a>

<a style="color:inherit;" xlink:href="25:122:137">
<path transform="translate(237.7707, 45.4630) scale(0.0040, -0.0040)" d="M218 136c55 0 108 -28 108 -89c0 -71 -55 -121 -102 -149c-35 -21 -75 -34 -116 -34c-55 0 -108 28 -108 89c0 71 55 121 102 149c35 21 75 34 116 34z" fill="currentColor"/>
</a>

<path transform="translate(264.5054, 26.7559) scale(0.0040, -0.0040)" d="M0 0h-16v250h16c97 59 224 148 224 259c0 57 -15 112 -40 163c-3 16 10 27 23 27c7 0 15 -3 20 -11c25 -56 40 -117 40 -179c0 -203 -267 -306 -267 -509z" fill="currentColor"/>

<path transform="translate(264.5054, 50.4230) scale(0.0040, -0.0040)" d="M-16 0v1000h16v-125c97 23 224 73 224 165c0 22 -7 43 -7 64c0 14 12 23 24 23c7 0 14 -4 19 -12c4 -25 7 -50 7 -75c0 -30 -9 -55 -23 -78c11 -36 17 -73 17 -110c0 -31 -8 -59 -22 -84c11 -35 17 -72 17 -109c0 -36 -10 -69 -27 -98c7 -35 12 -70 12 -105
c0 -181 -241 -271 -241 -452v-4h-16zM0 204c86 60 199 149 199 252c0 19 -2 37 -5 55c-76 -91 -194 -163 -194 -286v-21zM0 425c92 51 214 131 214 234c0 21 -3 42 -8 63c-77 -87 -206 -150 -206 -272v-25zM0 650c95 38 219 104 219 202c0 23 -3 46 -9 68
c-78 -77 -210 -128 -210 -245v-25z" fill="currentColor"/>
<path transform="translate(170.0489, 23.4209) scale(0.0040, -0.0040)" d="M-8 375c8 4 17 7 26 7s16 -3 24 -7l-2 -183l106 20h3c10 0 18 -7 18 -17l7 -570c-8 -4 -16 -7 -25 -7s-17 3 -25 7l3 183l-106 -20h-3c-10 0 -18 7 -18 17zM131 112l-92 -17l-3 -207l92 17z" fill="currentColor"/>

<a style="color:inherit;" xlink:href="25:132:147">
<path transform="translate(256.2917, 45.4630) scale(0.0040, -0.0040)" d="M218 136c55 0 108 -28 108 -89c0 -71 -55 -121 -102 -149c-35 -21 -75 -34 -116 -34c-55 0 -108 28 -108 89c0 71 55 121 102 149c35 21 75 34 116 34z" fill="currentColor"/>
</a>

<a style="color:inherit;" xlink:href="25:130:145">
<path transform="translate(252.5875, 45.4630) scale(0.0040, -0.0040)" d="M218 136c55 0 108 -28 108 -89c0 -71 -55 -121 -102 -149c-35 -21 -75 -34 -116 -34c-55 0 -108 28 -108 89c0 71 55 121 102 149c35 21 75 34 116 34z" fill="currentColor"/>
</a>
<a style="color:inherit;" xlink:href="13:62:77">
<path transform="translate(264.3754, 23.4209) scale(0.0040, -0.0040)" d="M218 136c55 0 108 -28 108 -89c0 -71 -55 -121 -102 -149c-35 -21 -75 -34 -116 -34c-55 0 -108 28 -108 89c0 71 55 121 102 149c35 21 75 34 116 34z" fill="currentColor"/>
</a>
<path transform="translate(260.9072, 23.4209) scale(0.0040, -0.0040)" d="M150 477c-29 0 -59 -8 -59 -33c0 -22 36 -25 36 -47c0 -32 -26 -58 -58 -58s-57 26 -57 58c0 65 67 103 138 103c91 0 169 -33 169 -114c0 -43 -4 -82 -42 -100c-9 -4 -14 -12 -14 -21s5 -18 14 -22c41 -19 56 -57 56 -103c0 -92 -79 -140 -179 -140
c-79 0 -154 42 -154 113c0 36 30 66 66 66s65 -30 65 -66c0 -25 -40 -28 -40 -53c0 -27 32 -37 63 -37c49 0 63 61 63 117v16c0 54 -2 94 -50 94h-80c-10 0 -14 8 -14 15s4 14 14 14h80c49 0 50 43 50 99v8c0 54 -18 91 -67 91z" fill="currentColor"/>
<path transform="translate(260.7707, 25.4695) scale(0.0040, -0.0040)" d="M204 307c22 14 44 29 60 50c11 15 19 33 27 50c2 4 5 6 9 6c6 0 13 -5 13 -14v-245h72c10 0 15 -7 15 -14s-5 -15 -15 -15h-72v-8c0 -48 27 -94 72 -94c8 0 12 -5 12 -11s-4 -12 -12 -12c-44 0 -87 13 -131 13s-87 -13 -131 -13c-8 0 -12 6 -12 12s4 11 12 11
c45 0 73 46 73 94v8h-167c-23 0 -31 14 -31 23c0 3 1 5 2 6c80 93 138 207 138 330c0 9 6 16 13 16h3c23 -7 47 -13 71 -13s48 6 71 13c2 1 3 1 5 1c11 0 18 -10 12 -17l-284 -330h167v131c0 8 1 17 8 22z" fill="currentColor"/>
<a style="color:inherit;" xlink:href="19:19:34">
<path transform="translate(264.3754, 35.9209) scale(0.0040, -0.0040)" d="M314 65c0 24 -21 41 -42 41c-4 0 -8 0 -12 -1c-31 -9 -78 -40 -115 -64s-84 -53 -104 -78c-7 -8 -10 -18 -10 -28c0 -24 21 -41 42 -41c4 0 8 0 12 1c31 9 77 40 114 64s84 53 104 78c7 8 11 18 11 28zM262 136c46 0 82 -21 82 -71c0 -19 -4 -39 -10 -57
c-12 -37 -32 -72 -64 -94c-53 -36 -113 -50 -187 -50c-46 0 -83 21 -83 71c0 19 5 39 11 57c12 37 31 72 63 94c53 36 114 50 188 50z" fill="currentColor"/>
</a>
<a style="color:inherit;" xlink:href="19:9:24">
<path transform="translate(260.9072, 32.4209) scale(0.0040, -0.0040)" d="M150 477c-29 0 -59 -8 -59 -33c0 -22 36 -25 36 -47c0 -32 -26 -58 -58 -58s-57 26 -57 58c0 65 67 103 138 103c91 0 169 -33 169 -114c0 -43 -4 -82 -42 -100c-9 -4 -14 -12 -14 -21s5 -18 14 -22c41 -19 56 -57 56 -103c0 -92 -79 -140 -179 -140
c-79 0 -154 42 -154 113c0 36 30 66 66 66s65 -30 65 -66c0 -25 -40 -28 -40 -53c0 -27 32 -37 63 -37c49 0 63 61 63 117v16c0 54 -2 94 -50 94h-80c-10 0 -14 8 -14 15s4 14 14 14h80c49 0 50 43 50 99v8c0 54 -18 91 -67 91z" fill="currentColor"/>
<path transform="translate(260.7707, 34.4695) scale(0.0040, -0.0040)" d="M204 307c22 14 44 29 60 50c11 15 19 33 27 50c2 4 5 6 9 6c6 0 13 -5 13 -14v-245h72c10 0 15 -7 15 -14s-5 -15 -15 -15h-72v-8c0 -48 27 -94 72 -94c8 0 12 -5 12 -11s-4 -12 -12 -12c-44 0 -87 13 -131 13s-87 -13 -131 -13c-8 0 -12 6 -12 12s4 11 12 11
c45 0 73 46 73 94v8h-167c-23 0 -31 14 -31 23c0 3 1 5 2 6c80 93 138 207 138 330c0 9 6 16 13 16h3c23 -7 47 -13 71 -13s48 6 71 13c2 1 3 1 5 1c11 0 18 -10 12 -17l-284 -330h167v131c0 8 1 17 8 22z" fill="currentColor"/>
</a>
<a style="color:inherit;" xlink:href="25:134:149">
<path transform="translate(264.3754, 45.4630) scale(0.0040, -0.0040)" d="M218 136c55 0 108 -28 108 -89c0 -71 -55 -121 -102 -149c-35 -21 -75 -34 -116 -34c-55 0 -108 28 -108 89c0 71 55 121 102 149c35 21 75 34 116 34z" fill="currentColor"/>
</a>
<path transform="translate(260.9072, 45.9630) scale(0.0040, -0.0040)" d="M150 477c-29 0 -59 -8 -59 -33c0 -22 36 -25 36 -47c0 -32 -26 -58 -58 -58s-57 26 -57 58c0 65 67 103 138 103c91 0 169 -33 169 -114c0 -43 -4 -82 -42 -100c-9 -4 -14 -12 -14 -21s5 -18 14 -22c41 -19 56 -57 56 -103c0 -92 -79 -140 -179 -140
c-79 0 -154 42 -154 113c0 36 30 66 66 66s65 -30 65 -66c0 -25 -40 -28 -40 -53c0 -27 32 -37 63 -37c49 0 63 61 63 117v16c0 54 -2 94 -50 94h-80c-10 0 -14 8 -14 15s4 14 14 14h80c49 0 50 43 50 99v8c0 54 -18 91 -67 91z" fill="currentColor"/>
<path transform="translate(260.7707, 48.0116) scale(0.0040, -0.0040)" d="M204 307c22 14 44 29 60 50c11 15 19 33 27 50c2 4 5 6 9 6c6 0 13 -5 13 -14v-245h72c10 0 15 -7 15 -14s-5 -15 -15 -15h-72v-8c0 -48 27 -94 72 -94c8 0 12 -5 12 -11s-4 -12 -12 -12c-44 0 -87 13 -131 13s-87 -13 -131 -13c-8 0 -12 6 -12 12s4 11 12 11
c45 0 73 46 73 94v8h-167c-23 0 -31 14 -31 23c0 3 1 5 2 6c80 93 138 207 138 330c0 9 6 16 13 16h3c23 -7 47 -13 71 -13s48 6 71 13c2 1 3 1 5 1c11 0 18 -10 12 -17l-284 -330h167v131c0 8 1 17 8 22z" fill="currentColor"/>
<path transform="translate(267.0296, 22.9209) scale(0.0040, -0.0040)" d="M0 0c0 31 25 56 56 56s56 -25 56 -56s-25 -56 -56 -56s-56 25 -56 56z" fill="currentColor"/>
<path transform="translate(266.1296, 22.9209) scale(0.0040, -0.0040)" d="M0 0c0 31 25 56 56 56s56 -25 56 -56s-25 -56 -56 -56s-56 25 -56 56z" fill="currentColor"/>

<a style="color:inherit;" xlink:href="25:96:111">
<path transform="translate(189.6159, 45.4630) scale(0.0040, -0.0040)" d="M218 136c55 0 108 -28 108 -89c0 -71 -55 -121 -102 -149c-35 -21 -75 -34 -116 -34c-55 0 -108 28 -108 89c0 71 55 121 102 149c35 21 75 34 116 34z" fill="currentColor"/>
</a>

<a style="color:inherit;" xlink:href="25:98:113">
<path transform="translate(193.3201, 45.4630) scale(0.0040, -0.0040)" d="M218 136c55 0 108 -28 108 -89c0 -71 -55 -121 -102 -149c-35 -21 -75 -34 -116 -34c-55 0 -108 28 -108 89c0 71 55 121 102 149c35 21 75 34 116 34z" fill="currentColor"/>
</a>

<a style="color:inherit;" xlink:href="25:100:115">
<path transform="translate(197.0243, 45.4630) scale(0.0040, -0.0040)" d="M218 136c55 0 108 -28 108 -89c0 -71 -55 -121 -102 -149c-35 -21 -75 -34 -116 -34c-55 0 -108 28 -108 89c0 71 55 121 102 149c35 21 75 34 116 34z" fill="currentColor"/>
</a>

<a style="color:inherit;" xlink:href="25:102:117">
<path transform="translate(200.7285, 45.4630) scale(0.0040, -0.0040)" d="M218 136c55 0 108 -28 108 -89c0 -71 -55 -121 -102 -149c-35 -21 -75 -34 -116 -34c-55 0 -108 28 -108 89c0 71 55 121 102 149c35 21 75 34 116 34z" fill="currentColor"/>
</a>
<a style="color:inherit;" xlink:href="25:88:103">
<path transform="translate(174.7991, 45.4630) scale(0.0040, -0.0040)" d="M218 136c55 0 108 -28 108 -89c0 -71 -55 -121 -102 -149c-35 -21 -75 -34 -116 -34c-55 0 -108 28 -108 89c0 71 55 121 102 149c35 21 75 34 116 34z" fill="currentColor"/>
</a>

<a style="color:inherit;" xlink:href="25:90:105">
<path transform="translate(178.5033, 45.4630) scale(0.0040, -0.0040)" d="M218 136c55 0 108 -28 108 -89c0 -71 -55 -121 -102 -149c-35 -21 -75 -34 -116 -34c-55 0 -108 28 -108 89c0 71 55 121 102 149c35 21 75 34 116 34z" fill="currentColor"/>
</a>

<a style="color:inherit;" xlink:href="25:92:107">
<path transform="translate(182.2075, 45.4630) scale(0.0040, -0.0040)" d="M218 136c55 0 108 -28 108 -89c0 -71 -55 -121 -102 -149c-35 -21 -75 -34 -116 -34c-55 0 -108 28 -108 89c0 71 55 121 102 149c35 21 75 34 116 34z" fill="currentColor"/>
</a>

<a style="color:inherit;" xlink:href="25:94:109">
<path transform="translate(185.9117, 45.4630) scale(0.0040, -0.0040)" d="M218 136c55 0 108 -28 108 -89c0 -71 -55 -121 -102 -149c-35 -21 -75 -34 -116 -34c-55 0 -108 28 -108 89c0 71 55 121 102 149c35 21 75 34 116 34z" fill="currentColor"/>
</a>

<a style="color:inherit;" xlink:href="25:112:127">
<path transform="translate(219.2496, 45.4630) scale(0.0040, -0.0040)" d="M218 136c55 0 108 -28 108 -89c0 -71 -55 -121 -102 -149c-35 -21 -75 -34 -116 -34c-55 0 -108 28 -108 89c0 71 55 121 102 149c35 21 75 34 116 34z" fill="currentColor"/>
</a>
<a style="color:inherit;" xlink:href="25:110:125">
<path transform="translate(215.5454, 45.4630) scale(0.0040, -0.0040)" d="M218 136c55 0 108 -28 108 -89c0 -71 -55 -121 -102 -149c-35 -21 -75 -34 -116 -34c-55 0 -108 28 -108 89c0 71 55 121 102 149c35 21 75 34 116 34z" fill="currentColor"/>
</a>

<a style="color:inherit;" xlink:href="13:2:17">
<path transform="translate(22.9264, 23.4209)" stroke-width="0.0800" stroke-linejoin="round" stroke-linecap="round" stroke="currentColor" fill="currentColor" d="M1.2420 -3.7400C5.0591 -5.7486 238.3129 -4.2524 242.1039 -2.1950L242.1039 -2.1950C238.3121 -4.1324 5.0584 -5.6286 1.2420 -3.7400z"/>
</a>


<a style="color:inherit;" xlink:href="25:114:129">
<path transform="translate(222.9538, 45.4630) scale(0.0040, -0.0040)" d="M218 136c55 0 108 -28 108 -89c0 -71 -55 -121 -102 -149c-35 -21 -75 -34 -116 -34c-55 0 -108 28 -108 89c0 71 55 121 102 149c35 21 75 34 116 34z" fill="currentColor"/>
</a>


<a style="color:inherit;" xlink:href="25:104:119">
<path transform="translate(204.4328, 45.4630) scale(0.0040, -0.0040)" d="M218 136c55 0 108 -28 108 -89c0 -71 -55 -121 -102 -149c-35 -21 -75 -34 -116 -34c-55 0 -108 28 -108 89c0 71 55 121 102 149c35 21 75 34 116 34z" fill="currentColor"/>
</a>


<a style="color:inherit;" xlink:href="25:106:121">
<path transform="translate(208.1370, 45.4630) scale(0.0040, -0.0040)" d="M218 136c55 0 108 -28 108 -89c0 -71 -55 -121 -102 -149c-35 -21 -75 -34 -116 -34c-55 0 -108 28 -108 89c0 71 55 121 102 149c35 21 75 34 116 34z" fill="currentColor"/>
</a>

<a style="color:inherit;" xlink:href="25:108:123">
<path transform="translate(211.8412, 45.4630) scale(0.0040, -0.0040)" d="M218 136c55 0 108 -28 108 -89c0 -71 -55 -121 -102 -149c-35 -21 -75 -34 -116 -34c-55 0 -108 28 -108 89c0 71 55 121 102 149c35 21 75 34 116 34z" fill="currentColor"/>
</a>
<a style="color:inherit;" xlink:href="19:56:71">
<path transform="translate(370.8870, 32.4209) scale(0.0040, -0.0040)" d="M365 0h-355c-6 0 -10 4 -10 10v136c0 6 4 10 10 10h355c6 0 10 -4 10 -10v-136c0 -6 -4 -10 -10 -10z" fill="currentColor"/>
</a>
<a style="color:inherit;" xlink:href="19:48:63">
<path transform="translate(354.0200, 33.4209) scale(0.0040, -0.0040)" d="M218 136c55 0 108 -28 108 -89c0 -71 -55 -121 -102 -149c-35 -21 -75 -34 -116 -34c-55 0 -108 28 -108 89c0 71 55 121 102 149c35 21 75 34 116 34z" fill="currentColor"/>
</a>

<a style="color:inherit;" xlink:href="19:53:68">
<path transform="translate(357.7242, 31.4209) scale(0.0040, -0.0040)" d="M365 -156h-355c-6 0 -10 4 -10 10v136c0 6 4 10 10 10h355c6 0 10 -4 10 -10v-136c0 -6 -4 -10 -10 -10z" fill="currentColor"/>
</a>




<a style="color:inherit;" xlink:href="19:73:88">
<path transform="translate(408.8720, 32.4209) scale(0.0040, -0.0040)" d="M60 -750l73 328c-36 -13 -74 -24 -113 -24c-46 0 -87 33 -87 79c0 40 33 72 73 72c25 0 48 -15 56 -39c10 -28 5 -59 34 -59c17 0 56 55 60 73l33 147c-35 -13 -71 -23 -109 -23c-46 0 -87 33 -87 79c0 40 32 72 72 72c25 0 49 -15 57 -39c10 -28 5 -59 34 -59
c16 0 51 54 55 71l34 149c-34 -12 -70 -23 -106 -23c-46 0 -87 33 -87 79c0 40 33 72 73 72c25 0 48 -15 56 -39c10 -28 5 -59 34 -59c15 0 48 52 52 68l34 151c-33 -12 -67 -22 -102 -22c-46 0 -87 33 -87 79c0 40 32 72 72 72c25 0 49 -15 57 -39c10 -28 5 -59 34 -59
c14 0 41 49 47 63c5 12 23 12 28 0l-235 -1170c-8 -7 -18 -10 -28 -10s-19 3 -27 10z" fill="currentColor"/>
</a>
<a style="color:inherit;" xlink:href="19:77:92">
<path transform="translate(412.6720, 32.4209) scale(0.0040, -0.0040)" d="M83 -750l61 329c-38 -14 -77 -25 -117 -25c-46 0 -87 33 -87 79c0 40 32 72 72 72c25 0 49 -15 57 -39c10 -28 5 -59 34 -59c18 0 57 57 60 76l27 145c-37 -13 -74 -24 -113 -24c-46 0 -87 33 -87 79c0 40 32 72 72 72c25 0 49 -15 57 -39c10 -28 5 -59 34 -59
c17 0 53 55 56 73l27 147c-35 -13 -71 -23 -108 -23c-46 0 -87 33 -87 79c0 40 32 72 72 72c25 0 49 -15 57 -39c10 -28 5 -59 34 -59c16 0 48 54 51 71l28 148c-34 -12 -69 -22 -105 -22c-46 0 -87 33 -87 79c0 40 32 72 72 72c25 0 49 -15 57 -39c10 -28 5 -59 34 -59
c15 0 44 52 47 68l28 151c-32 -12 -66 -22 -100 -22c-46 0 -87 33 -87 79c0 40 32 72 72 72c25 0 49 -15 57 -39c10 -28 5 -59 34 -59c25 0 33 78 60 72c5 -1 8 -4 10 -9l-237 -1420c-8 -7 -18 -10 -28 -10s-19 3 -27 10z" fill="currentColor"/>
</a>

















<a style="color:inherit;" xlink:href="25:2:17">
<path transform="translate(22.9264, 45.9630)" stroke-width="0.0800" stroke-linejoin="round" stroke-linecap="round" stroke="currentColor" fill="currentColor" d="M0.7103 3.5450C1.7443 4.2794 3.6122 4.0273 4.4145 3.0450L4.4145 3.0450C3.5961 3.9084 1.7282 4.1605 0.7103 3.5450z"/>
</a>
<a style="color:inherit;" xlink:href="19:2:17">
<path transform="translate(22.9264, 32.4209)" stroke-width="0.0800" stroke-linejoin="round" stroke-linecap="round" stroke="currentColor" fill="currentColor" d="M0.9866 5.0450C4.8700 8.2632 327.9222 5.4796 331.7495 2.1950L331.7495 2.1950C327.9212 5.3596 4.8689 8.1432 0.9866 5.0450z"/>
</a>
<a style="color:inherit;" xlink:href="19:59:74">
<path transform="translate(382.8220, 32.4209) scale(0.0040, -0.0040)" d="M-23 -116c0 28 11 42 40 42c33 0 78 -13 119 -31l-132 158c-7 9 -10 17 -10 25c0 34 50 66 87 99c25 22 37 52 37 83c0 24 -8 49 -25 69l-35 42c-3 3 -4 7 -4 10c0 9 9 15 17 15c4 0 8 -1 11 -5l151 -180c7 -9 10 -17 10 -25c0 -34 -50 -66 -87 -99
c-25 -22 -37 -52 -37 -83c0 -24 7 -49 24 -69l84 -99c3 -3 4 -7 4 -10c0 -9 -8 -16 -16 -16c-4 0 -9 2 -12 6c-18 21 -63 38 -97 38c-41 0 -53 -26 -53 -67c0 -35 11 -74 28 -94c5 -6 0 -13 -6 -13c-2 0 -4 0 -6 2c-45 54 -92 148 -92 202z" fill="currentColor"/>
</a>
<a style="color:inherit;" xlink:href="19:62:77">
<path transform="translate(390.9720, 32.4209) scale(0.0040, -0.0040)" d="M72 -250l117 326c-34 -12 -69 -22 -105 -22c-46 0 -87 33 -87 79c0 40 33 72 73 72c25 0 48 -15 56 -39c10 -28 6 -59 35 -59c16 0 54 48 61 63c6 12 23 12 28 0l-123 -420c-8 -7 -17 -10 -27 -10s-20 3 -28 10z" fill="currentColor"/>
</a>
<a style="color:inherit;" xlink:href="19:65:80">
<path transform="translate(397.9720, 32.4209) scale(0.0040, -0.0040)" d="M66 -500l101 327c-34 -12 -70 -23 -106 -23c-46 0 -87 33 -87 79c0 40 32 72 72 72c25 0 49 -15 57 -39c10 -28 5 -59 34 -59c16 0 55 51 60 68l46 151c-34 -12 -68 -22 -104 -22c-46 0 -87 33 -87 79c0 40 33 72 73 72c25 0 48 -15 56 -39c10 -28 5 -59 34 -59
c15 0 50 49 57 63c6 12 23 12 28 0l-179 -670c-8 -7 -17 -10 -27 -10s-20 3 -28 10z" fill="currentColor"/>
</a>
<a style="color:inherit;" xlink:href="19:69:84">
<path transform="translate(403.9720, 32.4209) scale(0.0040, -0.0040)" d="M54 -500l86 327c-35 -13 -71 -23 -108 -23c-46 0 -87 33 -87 79c0 40 32 72 72 72c25 0 49 -15 57 -39c10 -28 5 -59 34 -59c17 0 54 54 59 71l39 149c-34 -12 -70 -23 -106 -23c-46 0 -87 33 -87 79c0 40 33 72 73 72c25 0 48 -15 56 -39c10 -28 5 -59 34 -59
c16 0 52 51 56 68l40 151c-33 -12 -68 -22 -103 -22c-46 0 -87 33 -87 79c0 40 32 72 72 72c25 0 49 -15 57 -39c10 -28 5 -59 34 -59c15 0 46 49 52 63c6 12 23 12 28 0l-216 -920c-8 -7 -18 -10 -28 -10s-19 3 -27 10z" fill="currentColor"/>
</a>
<path transform="translate(283.0265, 50.4230) scale(0.0040, -0.0040)" d="M-16 0v1000h16v-125c97 23 224 73 224 165c0 22 -7 43 -7 64c0 14 12 23 24 23c7 0 14 -4 19 -12c4 -25 7 -50 7 -75c0 -30 -9 -55 -23 -78c11 -36 17 -73 17 -110c0 -31 -8 -59 -22 -84c11 -35 17 -72 17 -109c0 -36 -10 -69 -27 -98c7 -35 12 -70 12 -105
c0 -181 -241 -271 -241 -452v-4h-16zM0 204c86 60 199 149 199 252c0 19 -2 37 -5 55c-76 -91 -194 -163 -194 -286v-21zM0 425c92 51 214 131 214 234c0 21 -3 42 -8 63c-77 -87 -206 -150 -206 -272v-25zM0 650c95 38 219 104 219 202c0 23 -3 46 -9 68
c-78 -77 -210 -128 -210 -245v-25z" fill="currentColor"/>
<a style="color:inherit;" xlink:href="25:142:157">
<path transform="translate(279.1922, 45.4630) scale(0.0040, -0.0040)" d="M218 136c55 0 108 -28 108 -89c0 -71 -55 -121 -102 -149c-35 -21 -75 -34 -116 -34c-55 0 -108 28 -108 89c0 71 55 121 102 149c35 21 75 34 116 34z" fill="currentColor"/>
</a>

<path transform="translate(279.3222, 50.4230) scale(0.0040, -0.0040)" d="M-16 0v1000h16v-125c97 23 224 73 224 165c0 22 -7 43 -7 64c0 14 12 23 24 23c7 0 14 -4 19 -12c4 -25 7 -50 7 -75c0 -30 -9 -55 -23 -78c11 -36 17 -73 17 -110c0 -31 -8 -59 -22 -84c11 -35 17 -72 17 -109c0 -36 -10 -69 -27 -98c7 -35 12 -70 12 -105
c0 -181 -241 -271 -241 -452v-4h-16zM0 204c86 60 199 149 199 252c0 19 -2 37 -5 55c-76 -91 -194 -163 -194 -286v-21zM0 425c92 51 214 131 214 234c0 21 -3 42 -8 63c-77 -87 -206 -150 -206 -272v-25zM0 650c95 38 219 104 219 202c0 23 -3 46 -9 68
c-78 -77 -210 -128 -210 -245v-25z" fill="currentColor"/>
<a style="color:inherit;" xlink:href="25:144:159">
<path transform="translate(282.8965, 45.4630) scale(0.0040, -0.0040)" d="M218 136c55 0 108 -28 108 -89c0 -71 -55 -121 -102 -149c-35 -21 -75 -34 -116 -34c-55 0 -108 28 -108 89c0 71 55 121 102 149c35 21 75 34 116 34z" fill="currentColor"/>
</a>

<path transform="translate(275.6180, 50.4230) scale(0.0040, -0.0040)" d="M-16 0v1000h16v-125c97 23 224 73 224 165c0 22 -7 43 -7 64c0 14 12 23 24 23c7 0 14 -4 19 -12c4 -25 7 -50 7 -75c0 -30 -9 -55 -23 -78c11 -36 17 -73 17 -110c0 -31 -8 -59 -22 -84c11 -35 17 -72 17 -109c0 -36 -10 -69 -27 -98c7 -35 12 -70 12 -105
c0 -181 -241 -271 -241 -452v-4h-16zM0 204c86 60 199 149 199 252c0 19 -2 37 -5 55c-76 -91 -194 -163 -194 -286v-21zM0 425c92 51 214 131 214 234c0 21 -3 42 -8 63c-77 -87 -206 -150 -206 -272v-25zM0 650c95 38 219 104 219 202c0 23 -3 46 -9 68
c-78 -77 -210 -128 -210 -245v-25z" fill="currentColor"/>
<a style="color:inherit;" xlink:href="25:153:168">
<path transform="translate(285.8598, 43.9630) scale(0.0028, -0.0028)" d="M208 139c61 0 117 -33 117 -99c0 -71 -52 -119 -99 -147c-34 -20 -71 -32 -110 -32c-61 0 -116 33 -116 99c0 71 51 119 98 147c34 20 71 32 110 32z" fill="currentColor"/>
</a>

<path transform="translate(286.7777, 41.4030) scale(0.0028, -0.0028)" d="M0 0c0 -177 201 -290 201 -467c0 -33 -9 -66 -23 -96c18 -36 29 -74 29 -116c0 -63 -15 -125 -41 -182c-5 -10 -14 -13 -23 -13c-14 0 -28 10 -28 26c0 2 1 3 1 5c26 51 42 107 42 164c0 95 -90 188 -158 254v-75h-21v500h21zM146 -507c4 13 6 26 6 40
c0 94 -87 188 -152 255c0 -114 85 -201 146 -295z" fill="currentColor"/>
<a style="color:inherit;" xlink:href="25:157:172">
<path transform="translate(287.2577, 45.4630) scale(0.0040, -0.0040)" d="M218 136c55 0 108 -28 108 -89c0 -71 -55 -121 -102 -149c-35 -21 -75 -34 -116 -34c-55 0 -108 28 -108 89c0 71 55 121 102 149c35 21 75 34 116 34z" fill="currentColor"/>
</a>

<a style="color:inherit;" xlink:href="25:136:151">
<path transform="translate(268.0796, 45.4630) scale(0.0040, -0.0040)" d="M218 136c55 0 108 -28 108 -89c0 -71 -55 -121 -102 -149c-35 -21 -75 -34 -116 -34c-55 0 -108 28 -108 89c0 71 55 121 102 149c35 21 75 34 116 34z" fill="currentColor"/>
</a>

<path transform="translate(268.2096, 50.4230) scale(0.0040, -0.0040)" d="M-16 0v1000h16v-125c97 23 224 73 224 165c0 22 -7 43 -7 64c0 14 12 23 24 23c7 0 14 -4 19 -12c4 -25 7 -50 7 -75c0 -30 -9 -55 -23 -78c11 -36 17 -73 17 -110c0 -31 -8 -59 -22 -84c11 -35 17 -72 17 -109c0 -36 -10 -69 -27 -98c7 -35 12 -70 12 -105
c0 -181 -241 -271 -241 -452v-4h-16zM0 204c86 60 199 149 199 252c0 19 -2 37 -5 55c-76 -91 -194 -163 -194 -286v-21zM0 425c92 51 214 131 214 234c0 21 -3 42 -8 63c-77 -87 -206 -150 -206 -272v-25zM0 650c95 38 219 104 219 202c0 23 -3 46 -9 68
c-78 -77 -210 -128 -210 -245v-25z" fill="currentColor"/>
<a style="color:inherit;" xlink:href="25:138:153">
<path transform="translate(271.7838, 45.4630) scale(0.0040, -0.0040)" d="M218 136c55 0 108 -28 108 -89c0 -71 -55 -121 -102 -149c-35 -21 -75 -34 -116 -34c-55 0 -108 28 -108 89c0 71 55 121 102 149c35 21 75 34 116 34z" fill="currentColor"/>
</a>

<path transform="translate(271.9138, 50.4230) scale(0.0040, -0.0040)" d="M-16 0v1000h16v-125c97 23 224 73 224 165c0 22 -7 43 -7 64c0 14 12 23 24 23c7 0 14 -4 19 -12c4 -25 7 -50 7 -75c0 -30 -9 -55 -23 -78c11 -36 17 -73 17 -110c0 -31 -8 -59 -22 -84c11 -35 17 -72 17 -109c0 -36 -10 -69 -27 -98c7 -35 12 -70 12 -105
c0 -181 -241 -271 -241 -452v-4h-16zM0 204c86 60 199 149 199 252c0 19 -2 37 -5 55c-76 -91 -194 -163 -194 -286v-21zM0 425c92 51 214 131 214 234c0 21 -3 42 -8 63c-77 -87 -206 -150 -206 -272v-25zM0 650c95 38 219 104 219 202c0 23 -3 46 -9 68
c-78 -77 -210 -128 -210 -245v-25z" fill="currentColor"/>
<a style="color:inherit;" xlink:href="25:140:155">
<path transform="translate(275.4880, 45.4630) scale(0.0040, -0.0040)" d="M218 136c55 0 108 -28 108 -89c0 -71 -55 -121 -102 -149c-35 -21 -75 -34 -116 -34c-55 0 -108 28 -108 89c0 71 55 121 102 149c35 21 75 34 116 34z" fill="currentColor"/>
</a>


<path transform="translate(332.0074, 45.9630) scale(0.0040, -0.0040)" d="M359 27c-49 0 -75 42 -75 75c0 38 27 77 72 77c4 0 9 0 14 -1c-28 37 -72 59 -120 59h-13v-474c4 0 9 -1 13 -1c80 0 139 70 158 151c2 7 7 10 12 10c6 0 13 -4 13 -12c0 -94 -105 -174 -183 -174c-4 0 -9 1 -13 1v-78c0 -6 -4 -10 -10 -10h-17c-6 0 -10 4 -10 10v81
c-51 8 -99 29 -134 66c-49 51 -66 122 -66 193s17 142 66 193c35 37 83 58 134 66v81c0 6 4 10 10 10h17c6 0 10 -4 10 -10v-78h13c87 0 160 -64 175 -150c1 -5 1 -9 1 -13c0 -40 -30 -72 -67 -72zM200 -230v460c-58 -22 -63 -87 -63 -179v-51v-51c0 -92 5 -157 63 -179z
" fill="currentColor"/>
<a style="color:inherit;" xlink:href="19:40:55">
<path transform="translate(343.0116, 34.4209) scale(0.0040, -0.0040)" d="M218 136c55 0 108 -28 108 -89c0 -71 -55 -121 -102 -149c-35 -21 -75 -34 -116 -34c-55 0 -108 28 -108 89c0 71 55 121 102 149c35 21 75 34 116 34z" fill="currentColor"/>
</a>

<a style="color:inherit;" xlink:href="19:44:59">
<path transform="translate(349.1158, 33.9209) scale(0.0040, -0.0040)" d="M218 136c55 0 108 -28 108 -89c0 -71 -55 -121 -102 -149c-35 -21 -75 -34 -116 -34c-55 0 -108 28 -108 89c0 71 55 121 102 149c35 21 75 34 116 34z" fill="currentColor"/>
</a>

<path transform="translate(287.3877, 48.9230) scale(0.0040, -0.0040)" d="M0 205c91 51 211 131 211 233c0 24 -5 48 -14 70c-79 -89 -197 -160 -197 -283v-20zM267 663c0 -44 -16 -82 -39 -116c16 -35 25 -71 25 -109c0 -181 -253 -257 -253 -438h-16v500h16v-70c97 49 224 128 224 233c0 21 -5 42 -13 62c-3 16 10 27 23 27c30 0 33 -63 33 -89
z" fill="currentColor"/>
<g transform="translate(291.0119, 23.4209)" >
<path transform="scale(0.0040, -0.0040)" d="M122 503c18 0 34 -16 53 -16c15 0 29 7 42 13c1 1 3 1 4 1c7 0 12 -7 12 -17v-367c0 -48 28 -94 73 -94c8 0 12 -5 12 -11s-4 -12 -12 -12c-44 0 -87 13 -131 13s-87 -13 -131 -13c-8 0 -12 6 -12 12s4 11 12 11c45 0 73 46 73 94v245c0 12 -9 19 -17 19
c-4 0 -8 -3 -10 -7l-64 -136c-3 -6 -7 -9 -12 -9c-8 0 -16 6 -16 14c0 2 1 5 2 7l117 250c1 2 3 3 5 3z" fill="currentColor"/>

<path transform="translate(1.2633, 0.0000) scale(0.0040, -0.0040)" d="M183 471c-61 0 -67 -88 -67 -166c0 -19 1 -38 1 -55s-1 -36 -1 -55c0 -78 6 -166 67 -166s67 88 67 166v55v55c0 78 -6 166 -67 166zM183 500c116 0 184 -123 184 -250s-68 -250 -184 -250s-183 123 -183 250s67 250 183 250z" fill="currentColor"/>
</g>
<path transform="translate(294.3434, 23.4209) scale(0.0040, -0.0040)" d="M125 125c-14 0 -25 11 -25 25v75h-75c-14 0 -25 11 -25 25s11 25 25 25h75v75c0 14 11 25 25 25s25 -11 25 -25v-75h75c14 0 25 -11 25 -25s-11 -25 -25 -25h-75v-75c0 -14 -11 -25 -25 -25z" fill="currentColor"/>
<path transform="translate(295.9335, 23.4209) scale(0.0040, -0.0040)" d="M23 11c-1 -7 -6 -11 -11 -11c-6 0 -12 4 -12 11c0 175 235 165 235 344c0 60 -18 122 -70 122c-26 0 -51 -14 -51 -37c0 -27 35 -41 35 -68c0 -38 -30 -69 -68 -69s-69 31 -69 69c0 76 72 128 153 128c96 0 187 -56 187 -145c0 -153 -151 -159 -249 -220c9 2 17 3 26 3
c33 0 70 -11 105 -36c21 -15 46 -23 66 -23c21 0 39 9 44 29c2 6 6 9 11 9c6 0 12 -5 12 -12c0 -67 -90 -105 -138 -105c-36 0 -71 14 -96 44c-13 16 -31 22 -48 22c-30 0 -59 -20 -62 -55z" fill="currentColor"/>
<path transform="translate(298.0017, 23.4209) scale(0.0040, -0.0040)" d="M125 125c-14 0 -25 11 -25 25v75h-75c-14 0 -25 11 -25 25s11 25 25 25h75v75c0 14 11 25 25 25s25 -11 25 -25v-75h75c14 0 25 -11 25 -25s-11 -25 -25 -25h-75v-75c0 -14 -11 -25 -25 -25z" fill="currentColor"/>
<path transform="translate(299.5919, 23.4209) scale(0.0040, -0.0040)" d="M46 500c46 -8 91 -13 137 -13s92 5 138 13h4c12 0 19 -10 13 -16c-68 -68 -166 -93 -263 -93c-9 0 -17 -8 -17 -17v-96c28 28 66 43 105 43c116 0 186 -51 186 -161c0 -94 -87 -160 -186 -160c-82 0 -163 39 -163 113c0 36 30 66 66 66s65 -30 65 -66
c0 -25 -40 -28 -40 -53c0 -30 37 -37 72 -37c57 0 70 71 70 137c0 63 -15 132 -70 132c-42 0 -83 -12 -107 -45c-3 -4 -8 -6 -12 -6c-8 0 -15 6 -15 15v228c0 9 7 16 15 16h2z" fill="currentColor"/>
<path transform="translate(301.5235, 23.4209) scale(0.0040, -0.0040)" d="M125 125c-14 0 -25 11 -25 25v75h-75c-14 0 -25 11 -25 25s11 25 25 25h75v75c0 14 11 25 25 25s25 -11 25 -25v-75h75c14 0 25 -11 25 -25s-11 -25 -25 -25h-75v-75c0 -14 -11 -25 -25 -25z" fill="currentColor"/>
<path transform="translate(303.1136, 23.4209) scale(0.0040, -0.0040)" d="M170 256c-51 0 -53 -44 -53 -102v-14v-15c0 -58 2 -102 53 -102c57 0 61 51 61 117s-4 116 -61 116zM117 266c17 7 34 13 53 13c101 0 170 -44 170 -139s-69 -140 -170 -140c-112 0 -170 124 -170 250c0 128 72 250 190 250c71 0 138 -39 138 -103c0 -36 -29 -66 -65 -66
s-66 30 -66 66c0 24 39 25 39 49c0 20 -23 31 -46 31c-66 0 -75 -65 -75 -139c0 -24 2 -48 2 -72z" fill="currentColor"/>
<path transform="translate(305.0793, 23.4209) scale(0.0040, -0.0040)" d="M125 125c-14 0 -25 11 -25 25v75h-75c-14 0 -25 11 -25 25s11 25 25 25h75v75c0 14 11 25 25 25s25 -11 25 -25v-75h75c14 0 25 -11 25 -25s-11 -25 -25 -25h-75v-75c0 -14 -11 -25 -25 -25z" fill="currentColor"/>
<path transform="translate(306.6695, 23.4209) scale(0.0040, -0.0040)" d="M67 410c-31 0 -38 -43 -38 -70v-75c0 -10 -7 -15 -14 -15s-15 5 -15 15v220c0 10 8 15 15 15s14 -5 14 -15v-14c0 -9 12 -19 15 -15c21 29 48 44 78 44c29 0 58 -13 84 -39c12 -12 27 -17 43 -17c30 0 63 19 84 50c3 5 7 6 11 6c8 0 16 -6 16 -14c0 -3 -1 -6 -3 -9
c-83 -118 -158 -249 -158 -387c0 -25 3 -50 8 -76c2 -9 -5 -17 -13 -17c-1 0 -3 1 -4 1c-24 7 -48 15 -73 15s-50 -8 -74 -15c-1 0 -3 -1 -4 -1c-9 0 -16 9 -12 17c54 128 134 242 216 355c-20 -11 -40 -16 -59 -16c-22 0 -42 8 -60 26s-39 31 -57 31z" fill="currentColor"/>
<path transform="translate(308.6011, 23.4209) scale(0.0040, -0.0040)" d="M125 125c-14 0 -25 11 -25 25v75h-75c-14 0 -25 11 -25 25s11 25 25 25h75v75c0 14 11 25 25 25s25 -11 25 -25v-75h75c14 0 25 -11 25 -25s-11 -25 -25 -25h-75v-75c0 -14 -11 -25 -25 -25z" fill="currentColor"/>
<path transform="translate(310.1912, 23.4209) scale(0.0040, -0.0040)" d="M170 244c51 0 53 44 53 102v14v15c0 58 -2 102 -53 102c-57 0 -61 -51 -61 -117s4 -116 61 -116zM223 234c-17 -7 -34 -13 -53 -13c-101 0 -170 44 -170 139s69 140 170 140c112 0 170 -124 170 -250c0 -128 -72 -250 -190 -250c-71 0 -138 39 -138 103c0 36 29 66 65 66
s66 -30 66 -66c0 -24 -39 -25 -39 -49c0 -20 23 -31 46 -31c66 0 75 65 75 139c0 24 -2 48 -2 72z" fill="currentColor"/>
<path transform="translate(300.5504, 25.4353) scale(0.0040, -0.0040)" d="M259 288c27 29 49 62 49 102c0 55 -57 87 -117 87c-47 0 -75 -36 -75 -71c0 -20 10 -40 30 -52zM289 271c55 -31 83 -79 83 -127c0 -73 -66 -144 -189 -144c-94 0 -183 54 -183 140c0 50 39 85 76 120c-41 28 -61 67 -61 106c0 68 61 134 176 134c81 0 161 -38 161 -110
c0 -47 -30 -85 -63 -119zM106 242c-33 -29 -62 -59 -62 -102c0 -69 66 -117 139 -117c54 0 86 42 86 83c0 24 -10 48 -35 62z" fill="currentColor"/>
<path transform="translate(312.1570, 24.4110) scale(0.0040, -0.0040)" d="M125 125c-14 0 -25 11 -25 25v75h-75c-14 0 -25 11 -25 25s11 25 25 25h75v75c0 14 11 25 25 25s25 -11 25 -25v-75h75c14 0 25 -11 25 -25s-11 -25 -25 -25h-75v-75c0 -14 -11 -25 -25 -25z" fill="currentColor"/>
<path transform="translate(313.8837, 23.4209) scale(0.0040, -0.0040)" d="M150 477c-29 0 -59 -8 -59 -33c0 -22 36 -25 36 -47c0 -32 -26 -58 -58 -58s-57 26 -57 58c0 65 67 103 138 103c91 0 169 -33 169 -114c0 -43 -4 -82 -42 -100c-9 -4 -14 -12 -14 -21s5 -18 14 -22c41 -19 56 -57 56 -103c0 -92 -79 -140 -179 -140
c-79 0 -154 42 -154 113c0 36 30 66 66 66s65 -30 65 -66c0 -25 -40 -28 -40 -53c0 -27 32 -37 63 -37c49 0 63 61 63 117v16c0 54 -2 94 -50 94h-80c-10 0 -14 8 -14 15s4 14 14 14h80c49 0 50 43 50 99v8c0 54 -18 91 -67 91z" fill="currentColor"/>
<path transform="translate(313.7471, 25.4695) scale(0.0040, -0.0040)" d="M204 307c22 14 44 29 60 50c11 15 19 33 27 50c2 4 5 6 9 6c6 0 13 -5 13 -14v-245h72c10 0 15 -7 15 -14s-5 -15 -15 -15h-72v-8c0 -48 27 -94 72 -94c8 0 12 -5 12 -11s-4 -12 -12 -12c-44 0 -87 13 -131 13s-87 -13 -131 -13c-8 0 -12 6 -12 12s4 11 12 11
c45 0 73 46 73 94v8h-167c-23 0 -31 14 -31 23c0 3 1 5 2 6c80 93 138 207 138 330c0 9 6 16 13 16h3c23 -7 47 -13 71 -13s48 6 71 13c2 1 3 1 5 1c11 0 18 -10 12 -17l-284 -330h167v131c0 8 1 17 8 22z" fill="currentColor"/>
<g transform="translate(291.0119, 32.4209)" >
<path transform="scale(0.0040, -0.0040)" d="M122 503c18 0 34 -16 53 -16c15 0 29 7 42 13c1 1 3 1 4 1c7 0 12 -7 12 -17v-367c0 -48 28 -94 73 -94c8 0 12 -5 12 -11s-4 -12 -12 -12c-44 0 -87 13 -131 13s-87 -13 -131 -13c-8 0 -12 6 -12 12s4 11 12 11c45 0 73 46 73 94v245c0 12 -9 19 -17 19
c-4 0 -8 -3 -10 -7l-64 -136c-3 -6 -7 -9 -12 -9c-8 0 -16 6 -16 14c0 2 1 5 2 7l117 250c1 2 3 3 5 3z" fill="currentColor"/>

<path transform="translate(1.2633, 0.0000) scale(0.0040, -0.0040)" d="M183 471c-61 0 -67 -88 -67 -166c0 -19 1 -38 1 -55s-1 -36 -1 -55c0 -78 6 -166 67 -166s67 88 67 166v55v55c0 78 -6 166 -67 166zM183 500c116 0 184 -123 184 -250s-68 -250 -184 -250s-183 123 -183 250s67 250 183 250z" fill="currentColor"/>
</g>
<path transform="translate(294.3434, 32.4209) scale(0.0040, -0.0040)" d="M125 125c-14 0 -25 11 -25 25v75h-75c-14 0 -25 11 -25 25s11 25 25 25h75v75c0 14 11 25 25 25s25 -11 25 -25v-75h75c14 0 25 -11 25 -25s-11 -25 -25 -25h-75v-75c0 -14 -11 -25 -25 -25z" fill="currentColor"/>
<path transform="translate(295.9335, 32.4209) scale(0.0040, -0.0040)" d="M23 11c-1 -7 -6 -11 -11 -11c-6 0 -12 4 -12 11c0 175 235 165 235 344c0 60 -18 122 -70 122c-26 0 -51 -14 -51 -37c0 -27 35 -41 35 -68c0 -38 -30 -69 -68 -69s-69 31 -69 69c0 76 72 128 153 128c96 0 187 -56 187 -145c0 -153 -151 -159 -249 -220c9 2 17 3 26 3
c33 0 70 -11 105 -36c21 -15 46 -23 66 -23c21 0 39 9 44 29c2 6 6 9 11 9c6 0 12 -5 12 -12c0 -67 -90 -105 -138 -105c-36 0 -71 14 -96 44c-13 16 -31 22 -48 22c-30 0 -59 -20 -62 -55z" fill="currentColor"/>
<path transform="translate(298.0017, 32.4209) scale(0.0040, -0.0040)" d="M125 125c-14 0 -25 11 -25 25v75h-75c-14 0 -25 11 -25 25s11 25 25 25h75v75c0 14 11 25 25 25s25 -11 25 -25v-75h75c14 0 25 -11 25 -25s-11 -25 -25 -25h-75v-75c0 -14 -11 -25 -25 -25z" fill="currentColor"/>
<path transform="translate(299.5919, 32.4209) scale(0.0040, -0.0040)" d="M46 500c46 -8 91 -13 137 -13s92 5 138 13h4c12 0 19 -10 13 -16c-68 -68 -166 -93 -263 -93c-9 0 -17 -8 -17 -17v-96c28 28 66 43 105 43c116 0 186 -51 186 -161c0 -94 -87 -160 -186 -160c-82 0 -163 39 -163 113c0 36 30 66 66 66s65 -30 65 -66
c0 -25 -40 -28 -40 -53c0 -30 37 -37 72 -37c57 0 70 71 70 137c0 63 -15 132 -70 132c-42 0 -83 -12 -107 -45c-3 -4 -8 -6 -12 -6c-8 0 -15 6 -15 15v228c0 9 7 16 15 16h2z" fill="currentColor"/>
<path transform="translate(301.5235, 32.4209) scale(0.0040, -0.0040)" d="M125 125c-14 0 -25 11 -25 25v75h-75c-14 0 -25 11 -25 25s11 25 25 25h75v75c0 14 11 25 25 25s25 -11 25 -25v-75h75c14 0 25 -11 25 -25s-11 -25 -25 -25h-75v-75c0 -14 -11 -25 -25 -25z" fill="currentColor"/>
<path transform="translate(303.1136, 32.4209) scale(0.0040, -0.0040)" d="M170 256c-51 0 -53 -44 -53 -102v-14v-15c0 -58 2 -102 53 -102c57 0 61 51 61 117s-4 116 -61 116zM117 266c17 7 34 13 53 13c101 0 170 -44 170 -139s-69 -140 -170 -140c-112 0 -170 124 -170 250c0 128 72 250 190 250c71 0 138 -39 138 -103c0 -36 -29 -66 -65 -66
s-66 30 -66 66c0 24 39 25 39 49c0 20 -23 31 -46 31c-66 0 -75 -65 -75 -139c0 -24 2 -48 2 -72z" fill="currentColor"/>
<path transform="translate(305.0793, 32.4209) scale(0.0040, -0.0040)" d="M125 125c-14 0 -25 11 -25 25v75h-75c-14 0 -25 11 -25 25s11 25 25 25h75v75c0 14 11 25 25 25s25 -11 25 -25v-75h75c14 0 25 -11 25 -25s-11 -25 -25 -25h-75v-75c0 -14 -11 -25 -25 -25z" fill="currentColor"/>
<path transform="translate(306.6695, 32.4209) scale(0.0040, -0.0040)" d="M67 410c-31 0 -38 -43 -38 -70v-75c0 -10 -7 -15 -14 -15s-15 5 -15 15v220c0 10 8 15 15 15s14 -5 14 -15v-14c0 -9 12 -19 15 -15c21 29 48 44 78 44c29 0 58 -13 84 -39c12 -12 27 -17 43 -17c30 0 63 19 84 50c3 5 7 6 11 6c8 0 16 -6 16 -14c0 -3 -1 -6 -3 -9
c-83 -118 -158 -249 -158 -387c0 -25 3 -50 8 -76c2 -9 -5 -17 -13 -17c-1 0 -3 1 -4 1c-24 7 -48 15 -73 15s-50 -8 -74 -15c-1 0 -3 -1 -4 -1c-9 0 -16 9 -12 17c54 128 134 242 216 355c-20 -11 -40 -16 -59 -16c-22 0 -42 8 -60 26s-39 31 -57 31z" fill="currentColor"/>
<path transform="translate(308.6011, 32.4209) scale(0.0040, -0.0040)" d="M125 125c-14 0 -25 11 -25 25v75h-75c-14 0 -25 11 -25 25s11 25 25 25h75v75c0 14 11 25 25 25s25 -11 25 -25v-75h75c14 0 25 -11 25 -25s-11 -25 -25 -25h-75v-75c0 -14 -11 -25 -25 -25z" fill="currentColor"/>
<path transform="translate(310.1912, 32.4209) scale(0.0040, -0.0040)" d="M170 244c51 0 53 44 53 102v14v15c0 58 -2 102 -53 102c-57 0 -61 -51 -61 -117s4 -116 61 -116zM223 234c-17 -7 -34 -13 -53 -13c-101 0 -170 44 -170 139s69 140 170 140c112 0 170 -124 170 -250c0 -128 -72 -250 -190 -250c-71 0 -138 39 -138 103c0 36 29 66 65 66
s66 -30 66 -66c0 -24 -39 -25 -39 -49c0 -20 23 -31 46 -31c66 0 75 65 75 139c0 24 -2 48 -2 72z" fill="currentColor"/>
<path transform="translate(300.5504, 34.4353) scale(0.0040, -0.0040)" d="M259 288c27 29 49 62 49 102c0 55 -57 87 -117 87c-47 0 -75 -36 -75 -71c0 -20 10 -40 30 -52zM289 271c55 -31 83 -79 83 -127c0 -73 -66 -144 -189 -144c-94 0 -183 54 -183 140c0 50 39 85 76 120c-41 28 -61 67 -61 106c0 68 61 134 176 134c81 0 161 -38 161 -110
c0 -47 -30 -85 -63 -119zM106 242c-33 -29 -62 -59 -62 -102c0 -69 66 -117 139 -117c54 0 86 42 86 83c0 24 -10 48 -35 62z" fill="currentColor"/>
<path transform="translate(312.1570, 33.4110) scale(0.0040, -0.0040)" d="M125 125c-14 0 -25 11 -25 25v75h-75c-14 0 -25 11 -25 25s11 25 25 25h75v75c0 14 11 25 25 25s25 -11 25 -25v-75h75c14 0 25 -11 25 -25s-11 -25 -25 -25h-75v-75c0 -14 -11 -25 -25 -25z" fill="currentColor"/>
<path transform="translate(313.8837, 32.4209) scale(0.0040, -0.0040)" d="M150 477c-29 0 -59 -8 -59 -33c0 -22 36 -25 36 -47c0 -32 -26 -58 -58 -58s-57 26 -57 58c0 65 67 103 138 103c91 0 169 -33 169 -114c0 -43 -4 -82 -42 -100c-9 -4 -14 -12 -14 -21s5 -18 14 -22c41 -19 56 -57 56 -103c0 -92 -79 -140 -179 -140
c-79 0 -154 42 -154 113c0 36 30 66 66 66s65 -30 65 -66c0 -25 -40 -28 -40 -53c0 -27 32 -37 63 -37c49 0 63 61 63 117v16c0 54 -2 94 -50 94h-80c-10 0 -14 8 -14 15s4 14 14 14h80c49 0 50 43 50 99v8c0 54 -18 91 -67 91z" fill="currentColor"/>
<path transform="translate(313.7471, 34.4695) scale(0.0040, -0.0040)" d="M204 307c22 14 44 29 60 50c11 15 19 33 27 50c2 4 5 6 9 6c6 0 13 -5 13 -14v-245h72c10 0 15 -7 15 -14s-5 -15 -15 -15h-72v-8c0 -48 27 -94 72 -94c8 0 12 -5 12 -11s-4 -12 -12 -12c-44 0 -87 13 -131 13s-87 -13 -131 -13c-8 0 -12 6 -12 12s4 11 12 11
c45 0 73 46 73 94v8h-167c-23 0 -31 14 -31 23c0 3 1 5 2 6c80 93 138 207 138 330c0 9 6 16 13 16h3c23 -7 47 -13 71 -13s48 6 71 13c2 1 3 1 5 1c11 0 18 -10 12 -17l-284 -330h167v131c0 8 1 17 8 22z" fill="currentColor"/>
<g transform="translate(291.0119, 45.9630)" >
<path transform="scale(0.0040, -0.0040)" d="M122 503c18 0 34 -16 53 -16c15 0 29 7 42 13c1 1 3 1 4 1c7 0 12 -7 12 -17v-367c0 -48 28 -94 73 -94c8 0 12 -5 12 -11s-4 -12 -12 -12c-44 0 -87 13 -131 13s-87 -13 -131 -13c-8 0 -12 6 -12 12s4 11 12 11c45 0 73 46 73 94v245c0 12 -9 19 -17 19
c-4 0 -8 -3 -10 -7l-64 -136c-3 -6 -7 -9 -12 -9c-8 0 -16 6 -16 14c0 2 1 5 2 7l117 250c1 2 3 3 5 3z" fill="currentColor"/>

<path transform="translate(1.2633, 0.0000) scale(0.0040, -0.0040)" d="M183 471c-61 0 -67 -88 -67 -166c0 -19 1 -38 1 -55s-1 -36 -1 -55c0 -78 6 -166 67 -166s67 88 67 166v55v55c0 78 -6 166 -67 166zM183 500c116 0 184 -123 184 -250s-68 -250 -184 -250s-183 123 -183 250s67 250 183 250z" fill="currentColor"/>
</g>
<path transform="translate(294.3434, 45.9630) scale(0.0040, -0.0040)" d="M125 125c-14 0 -25 11 -25 25v75h-75c-14 0 -25 11 -25 25s11 25 25 25h75v75c0 14 11 25 25 25s25 -11 25 -25v-75h75c14 0 25 -11 25 -25s-11 -25 -25 -25h-75v-75c0 -14 -11 -25 -25 -25z" fill="currentColor"/>
<path transform="translate(295.9335, 45.9630) scale(0.0040, -0.0040)" d="M23 11c-1 -7 -6 -11 -11 -11c-6 0 -12 4 -12 11c0 175 235 165 235 344c0 60 -18 122 -70 122c-26 0 -51 -14 -51 -37c0 -27 35 -41 35 -68c0 -38 -30 -69 -68 -69s-69 31 -69 69c0 76 72 128 153 128c96 0 187 -56 187 -145c0 -153 -151 -159 -249 -220c9 2 17 3 26 3
c33 0 70 -11 105 -36c21 -15 46 -23 66 -23c21 0 39 9 44 29c2 6 6 9 11 9c6 0 12 -5 12 -12c0 -67 -90 -105 -138 -105c-36 0 -71 14 -96 44c-13 16 -31 22 -48 22c-30 0 -59 -20 -62 -55z" fill="currentColor"/>
<path transform="translate(298.0017, 45.9630) scale(0.0040, -0.0040)" d="M125 125c-14 0 -25 11 -25 25v75h-75c-14 0 -25 11 -25 25s11 25 25 25h75v75c0 14 11 25 25 25s25 -11 25 -25v-75h75c14 0 25 -11 25 -25s-11 -25 -25 -25h-75v-75c0 -14 -11 -25 -25 -25z" fill="currentColor"/>
<path transform="translate(299.5919, 45.9630) scale(0.0040, -0.0040)" d="M46 500c46 -8 91 -13 137 -13s92 5 138 13h4c12 0 19 -10 13 -16c-68 -68 -166 -93 -263 -93c-9 0 -17 -8 -17 -17v-96c28 28 66 43 105 43c116 0 186 -51 186 -161c0 -94 -87 -160 -186 -160c-82 0 -163 39 -163 113c0 36 30 66 66 66s65 -30 65 -66
c0 -25 -40 -28 -40 -53c0 -30 37 -37 72 -37c57 0 70 71 70 137c0 63 -15 132 -70 132c-42 0 -83 -12 -107 -45c-3 -4 -8 -6 -12 -6c-8 0 -15 6 -15 15v228c0 9 7 16 15 16h2z" fill="currentColor"/>
<path transform="translate(301.5235, 45.9630) scale(0.0040, -0.0040)" d="M125 125c-14 0 -25 11 -25 25v75h-75c-14 0 -25 11 -25 25s11 25 25 25h75v75c0 14 11 25 25 25s25 -11 25 -25v-75h75c14 0 25 -11 25 -25s-11 -25 -25 -25h-75v-75c0 -14 -11 -25 -25 -25z" fill="currentColor"/>
<path transform="translate(303.1136, 45.9630) scale(0.0040, -0.0040)" d="M170 256c-51 0 -53 -44 -53 -102v-14v-15c0 -58 2 -102 53 -102c57 0 61 51 61 117s-4 116 -61 116zM117 266c17 7 34 13 53 13c101 0 170 -44 170 -139s-69 -140 -170 -140c-112 0 -170 124 -170 250c0 128 72 250 190 250c71 0 138 -39 138 -103c0 -36 -29 -66 -65 -66
s-66 30 -66 66c0 24 39 25 39 49c0 20 -23 31 -46 31c-66 0 -75 -65 -75 -139c0 -24 2 -48 2 -72z" fill="currentColor"/>
<path transform="translate(305.0793, 45.9630) scale(0.0040, -0.0040)" d="M125 125c-14 0 -25 11 -25 25v75h-75c-14 0 -25 11 -25 25s11 25 25 25h75v75c0 14 11 25 25 25s25 -11 25 -25v-75h75c14 0 25 -11 25 -25s-11 -25 -25 -25h-75v-75c0 -14 -11 -25 -25 -25z" fill="currentColor"/>
<path transform="translate(306.6695, 45.9630) scale(0.0040, -0.0040)" d="M67 410c-31 0 -38 -43 -38 -70v-75c0 -10 -7 -15 -14 -15s-15 5 -15 15v220c0 10 8 15 15 15s14 -5 14 -15v-14c0 -9 12 -19 15 -15c21 29 48 44 78 44c29 0 58 -13 84 -39c12 -12 27 -17 43 -17c30 0 63 19 84 50c3 5 7 6 11 6c8 0 16 -6 16 -14c0 -3 -1 -6 -3 -9
c-83 -118 -158 -249 -158 -387c0 -25 3 -50 8 -76c2 -9 -5 -17 -13 -17c-1 0 -3 1 -4 1c-24 7 -48 15 -73 15s-50 -8 -74 -15c-1 0 -3 -1 -4 -1c-9 0 -16 9 -12 17c54 128 134 242 216 355c-20 -11 -40 -16 -59 -16c-22 0 -42 8 -60 26s-39 31 -57 31z" fill="currentColor"/>
<path transform="translate(308.6011, 45.9630) scale(0.0040, -0.0040)" d="M125 125c-14 0 -25 11 -25 25v75h-75c-14 0 -25 11 -25 25s11 25 25 25h75v75c0 14 11 25 25 25s25 -11 25 -25v-75h75c14 0 25 -11 25 -25s-11 -25 -25 -25h-75v-75c0 -14 -11 -25 -25 -25z" fill="currentColor"/>
<path transform="translate(310.1912, 45.9630) scale(0.0040, -0.0040)" d="M170 244c51 0 53 44 53 102v14v15c0 58 -2 102 -53 102c-57 0 -61 -51 -61 -117s4 -116 61 -116zM223 234c-17 -7 -34 -13 -53 -13c-101 0 -170 44 -170 139s69 140 170 140c112 0 170 -124 170 -250c0 -128 -72 -250 -190 -250c-71 0 -138 39 -138 103c0 36 29 66 65 66
s66 -30 66 -66c0 -24 -39 -25 -39 -49c0 -20 23 -31 46 -31c66 0 75 65 75 139c0 24 -2 48 -2 72z" fill="currentColor"/>
<path transform="translate(300.5504, 47.9774) scale(0.0040, -0.0040)" d="M259 288c27 29 49 62 49 102c0 55 -57 87 -117 87c-47 0 -75 -36 -75 -71c0 -20 10 -40 30 -52zM289 271c55 -31 83 -79 83 -127c0 -73 -66 -144 -189 -144c-94 0 -183 54 -183 140c0 50 39 85 76 120c-41 28 -61 67 -61 106c0 68 61 134 176 134c81 0 161 -38 161 -110
c0 -47 -30 -85 -63 -119zM106 242c-33 -29 -62 -59 -62 -102c0 -69 66 -117 139 -117c54 0 86 42 86 83c0 24 -10 48 -35 62z" fill="currentColor"/>
<path transform="translate(312.1570, 46.9531) scale(0.0040, -0.0040)" d="M125 125c-14 0 -25 11 -25 25v75h-75c-14 0 -25 11 -25 25s11 25 25 25h75v75c0 14 11 25 25 25s25 -11 25 -25v-75h75c14 0 25 -11 25 -25s-11 -25 -25 -25h-75v-75c0 -14 -11 -25 -25 -25z" fill="currentColor"/>
<path transform="translate(313.8837, 45.9630) scale(0.0040, -0.0040)" d="M150 477c-29 0 -59 -8 -59 -33c0 -22 36 -25 36 -47c0 -32 -26 -58 -58 -58s-57 26 -57 58c0 65 67 103 138 103c91 0 169 -33 169 -114c0 -43 -4 -82 -42 -100c-9 -4 -14 -12 -14 -21s5 -18 14 -22c41 -19 56 -57 56 -103c0 -92 -79 -140 -179 -140
c-79 0 -154 42 -154 113c0 36 30 66 66 66s65 -30 65 -66c0 -25 -40 -28 -40 -53c0 -27 32 -37 63 -37c49 0 63 61 63 117v16c0 54 -2 94 -50 94h-80c-10 0 -14 8 -14 15s4 14 14 14h80c49 0 50 43 50 99v8c0 54 -18 91 -67 91z" fill="currentColor"/>
<path transform="translate(313.7471, 48.0116) scale(0.0040, -0.0040)" d="M204 307c22 14 44 29 60 50c11 15 19 33 27 50c2 4 5 6 9 6c6 0 13 -5 13 -14v-245h72c10 0 15 -7 15 -14s-5 -15 -15 -15h-72v-8c0 -48 27 -94 72 -94c8 0 12 -5 12 -11s-4 -12 -12 -12c-44 0 -87 13 -131 13s-87 -13 -131 -13c-8 0 -12 6 -12 12s4 11 12 11
c45 0 73 46 73 94v8h-167c-23 0 -31 14 -31 23c0 3 1 5 2 6c80 93 138 207 138 330c0 9 6 16 13 16h3c23 -7 47 -13 71 -13s48 6 71 13c2 1 3 1 5 1c11 0 18 -10 12 -17l-284 -330h167v131c0 8 1 17 8 22z" fill="currentColor"/>
<a style="color:inherit;" xlink:href="19:22:37">
<path transform="translate(325.2032, 35.4209) scale(0.0040, -0.0040)" d="M218 136c55 0 108 -28 108 -89c0 -71 -55 -121 -102 -149c-35 -21 -75 -34 -116 -34c-55 0 -108 28 -108 89c0 71 55 121 102 149c35 21 75 34 116 34z" fill="currentColor"/>
</a>

<path transform="translate(332.0074, 23.4209) scale(0.0040, -0.0040)" d="M359 27c-49 0 -75 42 -75 75c0 38 27 77 72 77c4 0 9 0 14 -1c-28 37 -72 59 -120 59h-13v-474c4 0 9 -1 13 -1c80 0 139 70 158 151c2 7 7 10 12 10c6 0 13 -4 13 -12c0 -94 -105 -174 -183 -174c-4 0 -9 1 -13 1v-78c0 -6 -4 -10 -10 -10h-17c-6 0 -10 4 -10 10v81
c-51 8 -99 29 -134 66c-49 51 -66 122 -66 193s17 142 66 193c35 37 83 58 134 66v81c0 6 4 10 10 10h17c6 0 10 -4 10 -10v-78h13c87 0 160 -64 175 -150c1 -5 1 -9 1 -13c0 -40 -30 -72 -67 -72zM200 -230v460c-58 -22 -63 -87 -63 -179v-51v-51c0 -92 5 -157 63 -179z
" fill="currentColor"/>
<a style="color:inherit;" xlink:href="19:37:52">
<path transform="translate(335.7074, 34.9209) scale(0.0040, -0.0040)" d="M218 136c55 0 108 -28 108 -89c0 -71 -55 -121 -102 -149c-35 -21 -75 -34 -116 -34c-55 0 -108 28 -108 89c0 71 55 121 102 149c35 21 75 34 116 34z" fill="currentColor"/>
</a>
<a style="color:inherit;" xlink:href="19:27:42">
<path transform="translate(332.0074, 32.4209) scale(0.0040, -0.0040)" d="M359 27c-49 0 -75 42 -75 75c0 38 27 77 72 77c4 0 9 0 14 -1c-28 37 -72 59 -120 59h-13v-474c4 0 9 -1 13 -1c80 0 139 70 158 151c2 7 7 10 12 10c6 0 13 -4 13 -12c0 -94 -105 -174 -183 -174c-4 0 -9 1 -13 1v-78c0 -6 -4 -10 -10 -10h-17c-6 0 -10 4 -10 10v81
c-51 8 -99 29 -134 66c-49 51 -66 122 -66 193s17 142 66 193c35 37 83 58 134 66v81c0 6 4 10 10 10h17c6 0 10 -4 10 -10v-78h13c87 0 160 -64 175 -150c1 -5 1 -9 1 -13c0 -40 -30 -72 -67 -72zM200 -230v460c-58 -22 -63 -87 -63 -179v-51v-51c0 -92 5 -157 63 -179z
" fill="currentColor"/>
</a>
<a style="color:inherit;" xlink:href="25:26:41">
<path transform="translate(59.9685, 45.4630) scale(0.0040, -0.0040)" d="M218 136c55 0 108 -28 108 -89c0 -71 -55 -121 -102 -149c-35 -21 -75 -34 -116 -34c-55 0 -108 28 -108 89c0 71 55 121 102 149c35 21 75 34 116 34z" fill="currentColor"/>
</a>

<a style="color:inherit;" xlink:href="25:28:43">
<path transform="translate(63.6727, 45.4630) scale(0.0040, -0.0040)" d="M218 136c55 0 108 -28 108 -89c0 -71 -55 -121 -102 -149c-35 -21 -75 -34 -116 -34c-55 0 -108 28 -108 89c0 71 55 121 102 149c35 21 75 34 116 34z" fill="currentColor"/>
</a>

<a style="color:inherit;" xlink:href="25:30:45">
<path transform="translate(67.3769, 45.4630) scale(0.0040, -0.0040)" d="M218 136c55 0 108 -28 108 -89c0 -71 -55 -121 -102 -149c-35 -21 -75 -34 -116 -34c-55 0 -108 28 -108 89c0 71 55 121 102 149c35 21 75 34 116 34z" fill="currentColor"/>
</a>

<a style="color:inherit;" xlink:href="25:32:47">
<path transform="translate(71.0811, 45.4630) scale(0.0040, -0.0040)" d="M218 136c55 0 108 -28 108 -89c0 -71 -55 -121 -102 -149c-35 -21 -75 -34 -116 -34c-55 0 -108 28 -108 89c0 71 55 121 102 149c35 21 75 34 116 34z" fill="currentColor"/>
</a>

<path transform="translate(51.1101, 23.4209) scale(0.0040, -0.0040)" d="M216 -312c0 -10 -8 -19 -18 -19s-19 9 -19 19v145l-83 -31v-158c0 -10 -9 -19 -19 -19s-18 9 -18 19v145l-32 -12c-2 -1 -5 -1 -7 -1c-11 0 -20 9 -20 20v60c0 8 5 16 13 19l46 16v160l-32 -11c-2 -1 -5 -1 -7 -1c-11 0 -20 9 -20 20v60c0 8 5 15 13 18l46 17v158
c0 10 8 19 18 19s19 -9 19 -19v-145l83 31v158c0 10 9 19 19 19s18 -9 18 -19v-145l32 12c2 1 5 1 7 1c11 0 20 -9 20 -20v-60c0 -8 -5 -16 -13 -19l-46 -16v-160l32 11c2 1 5 1 7 1c11 0 20 -9 20 -20v-60c0 -8 -5 -15 -13 -18l-46 -17v-158zM96 65v-160l83 30v160z" fill="currentColor"/>
<a style="color:inherit;" xlink:href="13:37:52">
<path transform="translate(52.5601, 23.4209) scale(0.0040, -0.0040)" d="M218 136c55 0 108 -28 108 -89c0 -71 -55 -121 -102 -149c-35 -21 -75 -34 -116 -34c-55 0 -108 28 -108 89c0 71 55 121 102 149c35 21 75 34 116 34z" fill="currentColor"/>
</a>
<a style="color:inherit;" xlink:href="25:22:37">
<path transform="translate(52.5601, 45.4630) scale(0.0040, -0.0040)" d="M218 136c55 0 108 -28 108 -89c0 -71 -55 -121 -102 -149c-35 -21 -75 -34 -116 -34c-55 0 -108 28 -108 89c0 71 55 121 102 149c35 21 75 34 116 34z" fill="currentColor"/>
</a>


<a style="color:inherit;" xlink:href="25:24:39">
<path transform="translate(56.2643, 45.4630) scale(0.0040, -0.0040)" d="M218 136c55 0 108 -28 108 -89c0 -71 -55 -121 -102 -149c-35 -21 -75 -34 -116 -34c-55 0 -108 28 -108 89c0 71 55 121 102 149c35 21 75 34 116 34z" fill="currentColor"/>
</a>


<a style="color:inherit;" xlink:href="25:40:55">
<path transform="translate(85.8980, 45.4630) scale(0.0040, -0.0040)" d="M218 136c55 0 108 -28 108 -89c0 -71 -55 -121 -102 -149c-35 -21 -75 -34 -116 -34c-55 0 -108 28 -108 89c0 71 55 121 102 149c35 21 75 34 116 34z" fill="currentColor"/>
</a>

<a style="color:inherit;" xlink:href="25:42:57">
<path transform="translate(89.6022, 45.4630) scale(0.0040, -0.0040)" d="M218 136c55 0 108 -28 108 -89c0 -71 -55 -121 -102 -149c-35 -21 -75 -34 -116 -34c-55 0 -108 28 -108 89c0 71 55 121 102 149c35 21 75 34 116 34z" fill="currentColor"/>
</a>

<a style="color:inherit;" xlink:href="25:44:59">
<path transform="translate(93.3064, 45.4630) scale(0.0040, -0.0040)" d="M218 136c55 0 108 -28 108 -89c0 -71 -55 -121 -102 -149c-35 -21 -75 -34 -116 -34c-55 0 -108 28 -108 89c0 71 55 121 102 149c35 21 75 34 116 34z" fill="currentColor"/>
</a>

<a style="color:inherit;" xlink:href="25:46:61">
<path transform="translate(97.0106, 45.4630) scale(0.0040, -0.0040)" d="M218 136c55 0 108 -28 108 -89c0 -71 -55 -121 -102 -149c-35 -21 -75 -34 -116 -34c-55 0 -108 28 -108 89c0 71 55 121 102 149c35 21 75 34 116 34z" fill="currentColor"/>
</a>
<a style="color:inherit;" xlink:href="25:34:49">
<path transform="translate(74.7853, 45.4630) scale(0.0040, -0.0040)" d="M218 136c55 0 108 -28 108 -89c0 -71 -55 -121 -102 -149c-35 -21 -75 -34 -116 -34c-55 0 -108 28 -108 89c0 71 55 121 102 149c35 21 75 34 116 34z" fill="currentColor"/>
</a>

<a style="color:inherit;" xlink:href="25:36:51">
<path transform="translate(78.4896, 45.4630) scale(0.0040, -0.0040)" d="M218 136c55 0 108 -28 108 -89c0 -71 -55 -121 -102 -149c-35 -21 -75 -34 -116 -34c-55 0 -108 28 -108 89c0 71 55 121 102 149c35 21 75 34 116 34z" fill="currentColor"/>
</a>


<a style="color:inherit;" xlink:href="13:42:57">
<path transform="translate(82.1938, 23.4209) scale(0.0040, -0.0040)" d="M218 136c55 0 108 -28 108 -89c0 -71 -55 -121 -102 -149c-35 -21 -75 -34 -116 -34c-55 0 -108 28 -108 89c0 71 55 121 102 149c35 21 75 34 116 34z" fill="currentColor"/>
</a>
<a style="color:inherit;" xlink:href="25:38:53">
<path transform="translate(82.1938, 45.4630) scale(0.0040, -0.0040)" d="M218 136c55 0 108 -28 108 -89c0 -71 -55 -121 -102 -149c-35 -21 -75 -34 -116 -34c-55 0 -108 28 -108 89c0 71 55 121 102 149c35 21 75 34 116 34z" fill="currentColor"/>
</a>

<path transform="translate(81.0438, 23.4209) scale(0.0040, -0.0040)" d="M27 41l-1 -66v-11c0 -22 1 -44 4 -66c45 38 93 80 93 139c0 33 -14 67 -43 67c-31 0 -52 -30 -53 -63zM-15 -138l-12 595c8 5 18 8 27 8s19 -3 27 -8l-7 -345c25 21 58 34 91 34c52 0 89 -48 89 -102c0 -80 -86 -117 -147 -169c-15 -13 -24 -38 -45 -38
c-13 0 -23 11 -23 25z" fill="currentColor"/>
<a style="color:inherit;" xlink:href="18:15:30">
<path transform="translate(23.1733, 39.8903) scale(0.0040, -0.0040)" d="M233 243c-56 0 -102 -107 -102 -173c0 -22 8 -38 30 -38c64 0 97 126 97 178c0 18 -7 33 -25 33zM112 -146c-38 0 -78 5 -116 5c-39 0 -78 -5 -115 -5c-9 0 -14 7 -14 14c0 18 31 15 48 16c22 1 47 5 54 25l102 300c2 7 4 14 4 20c0 8 -2 14 -11 14
c-33 0 -63 -60 -79 -97c-5 -12 -15 -17 -24 -17c-8 0 -14 4 -14 12c0 2 1 5 2 8c30 68 72 143 132 143c35 0 59 -21 66 -52c29 31 67 52 103 52c69 0 107 -49 107 -114c0 -21 -4 -44 -12 -67c-20 -58 -91 -119 -147 -119c-27 0 -52 5 -73 17c-4 2 -7 3 -11 3
c-7 0 -14 -3 -16 -9l-29 -86c-1 -2 -1 -5 -1 -7c0 -20 21 -26 44 -28c9 -1 13 -8 13 -14c0 -7 -4 -14 -13 -14z" fill="currentColor"/>
</a>
<path transform="translate(15.0264, 31.4209) scale(0.0040, -0.0040)" d="M557 -125c0 28 23 51 51 51s51 -23 51 -51s-23 -51 -51 -51s-51 23 -51 51zM557 125c0 28 23 51 51 51s51 -23 51 -51s-23 -51 -51 -51s-51 23 -51 51zM232 263c172 0 293 -88 293 -251c0 -263 -263 -414 -516 -521c-3 -3 -6 -4 -9 -4c-7 0 -13 6 -13 13c0 3 1 6 4 9
c202 118 412 265 412 493c0 120 -63 235 -171 235c-74 0 -129 -54 -154 -126c11 5 22 8 34 8c55 0 100 -45 100 -100c0 -58 -44 -106 -100 -106c-60 0 -112 47 -112 106c0 133 102 244 232 244z" fill="currentColor"/>
<path transform="translate(19.2264, 32.4209) scale(0.0040, -0.0040)" d="M359 27c-49 0 -75 42 -75 75c0 38 27 77 72 77c4 0 9 0 14 -1c-28 37 -72 59 -120 59c-106 0 -113 -73 -113 -186v-51v-51c0 -113 7 -187 113 -187c80 0 139 70 158 151c2 7 7 10 12 10c6 0 13 -4 13 -12c0 -94 -105 -174 -183 -174c-68 0 -137 21 -184 70
c-49 51 -66 122 -66 193s17 142 66 193c47 49 116 69 184 69c87 0 160 -64 175 -150c1 -5 1 -9 1 -13c0 -40 -30 -72 -67 -72z" fill="currentColor"/>
<a style="color:inherit;" xlink:href="25:3:18">
<path transform="translate(22.9264, 48.4630) scale(0.0040, -0.0040)" d="M218 136c55 0 108 -28 108 -89c0 -71 -55 -121 -102 -149c-35 -21 -75 -34 -116 -34c-55 0 -108 28 -108 89c0 71 55 121 102 149c35 21 75 34 116 34z" fill="currentColor"/>
</a>
<a style="color:inherit;" xlink:href="24:16:31">
<path transform="translate(22.9468, 52.2441) scale(0.0040, -0.0040)" d="M253 245l-50 -163c-30 -99 -121 -255 -218 -255c-45 0 -87 27 -87 69c0 39 17 77 52 77c24 0 44 -20 44 -44c0 -30 -38 -24 -38 -54c0 -10 11 -11 23 -11h6c48 0 61 58 73 108l68 273h-49c-11 0 -19 8 -19 19s8 19 19 19h60c32 96 118 191 213 191c45 0 87 -27 87 -69
c0 -39 -17 -77 -52 -77c-24 0 -44 19 -44 43c0 30 38 25 38 55c0 10 -10 11 -22 11h-7c-62 0 -70 -88 -86 -154h55c11 0 19 -8 19 -19s-8 -19 -19 -19h-66z" fill="currentColor"/>
</a>
<path transform="translate(15.0264, 44.9630) scale(0.0040, -0.0040)" d="M318 0c0 -33 7 -73 45 -73c29 0 57 31 88 31c123 0 229 -89 229 -208c0 -169 -93 -250 -265 -250c-83 0 -152 61 -152 142c0 42 34 77 76 77s76 -35 76 -77c0 -39 -49 -37 -49 -76c0 -23 24 -38 49 -38c116 0 140 90 140 222c0 106 -12 180 -104 180
c-72 0 -119 -71 -119 -149c0 -9 -7 -14 -14 -14s-13 5 -13 14c0 76 -31 147 -84 200v-471c0 -6 -4 -10 -10 -10h-21c-6 0 -10 4 -10 10v980c0 6 4 10 10 10h21c6 0 10 -4 10 -10v-471c53 53 84 124 84 200c0 9 6 14 13 14s14 -5 14 -14c0 -78 47 -149 119 -149
c92 0 104 74 104 180c0 132 -24 222 -140 222c-25 0 -49 -15 -49 -38c0 -39 49 -37 49 -76c0 -42 -34 -77 -76 -77s-76 35 -76 77c0 81 69 142 152 142c172 0 265 -81 265 -250c0 -119 -106 -208 -229 -208c-31 0 -59 31 -88 31c-38 0 -45 -40 -45 -73zM129 -500h-119
c-6 0 -10 4 -10 10v980c0 6 4 10 10 10h119c6 0 10 -4 10 -10v-980c0 -6 -4 -10 -10 -10z" fill="currentColor"/>
<path transform="translate(19.2264, 45.9630) scale(0.0040, -0.0040)" d="M359 27c-49 0 -75 42 -75 75c0 38 27 77 72 77c4 0 9 0 14 -1c-28 37 -72 59 -120 59c-106 0 -113 -73 -113 -186v-51v-51c0 -113 7 -187 113 -187c80 0 139 70 158 151c2 7 7 10 12 10c6 0 13 -4 13 -12c0 -94 -105 -174 -183 -174c-68 0 -137 21 -184 70
c-49 51 -66 122 -66 193s17 142 66 193c47 49 116 69 184 69c87 0 160 -64 175 -150c1 -5 1 -9 1 -13c0 -40 -30 -72 -67 -72z" fill="currentColor"/>

<a style="color:inherit;" xlink:href="19:3:18">
<path transform="translate(22.9264, 36.4209) scale(0.0040, -0.0040)" d="M213 112c-50 0 -69 -43 -69 -88c0 -77 57 -136 134 -136c50 0 69 43 69 88c0 77 -57 136 -134 136zM491 0c0 -43 -34 -75 -72 -96c-53 -29 -114 -40 -174 -40s-120 11 -173 40c-38 21 -72 53 -72 96s34 75 72 96c53 29 113 40 173 40s121 -11 174 -40
c38 -21 72 -53 72 -96z" fill="currentColor"/>
</a>

<a style="color:inherit;" xlink:href="13:31:46">
<path transform="translate(23.1858, 6.5987) scale(0.0022, -0.0022)" d="M176 243c43 0 47 32 47 76v38v38c0 44 -4 76 -47 76c-55 0 -55 -50 -55 -114s0 -114 55 -114zM223 228c-15 -7 -30 -14 -47 -14c-104 0 -176 46 -176 143s72 143 176 143c114 0 176 -124 176 -250c0 -129 -77 -250 -197 -250c-73 0 -141 42 -141 109c0 32 27 58 59 58
s58 -26 58 -58c0 -21 -35 -23 -35 -44c0 -26 30 -36 59 -36c60 0 70 54 70 121c0 25 -1 52 -2 78z" fill="currentColor"/>
</a>
<path transform="translate(13.8664, 34.6919) scale(0.0040, -0.0040)" d="M-10 -985c0 -540 -190 -1070 -190 -1585c0 -265 55 -520 220 -740c5 -5 5 -5 5 -10c0 -10 -15 -25 -25 -25c-5 0 -15 5 -20 10c-210 285 -285 630 -285 985c0 550 200 1080 200 1605c0 265 -55 515 -215 735c0 5 -5 5 -5 10s5 5 5 10c160 220 215 470 215 735
c0 525 -200 1055 -200 1605c0 355 75 700 285 985c5 5 15 10 20 10c10 0 25 -15 25 -25c0 -5 0 -5 -5 -10c-165 -220 -220 -475 -220 -740c0 -515 190 -1045 190 -1585c0 -355 -70 -700 -280 -985c210 -285 280 -630 280 -985z" fill="currentColor"/>

<a style="color:inherit;" xlink:href="13:4:19">
<path transform="translate(22.9264, 26.4209) scale(0.0040, -0.0040)" d="M218 136c55 0 108 -28 108 -89c0 -71 -55 -121 -102 -149c-35 -21 -75 -34 -116 -34c-55 0 -108 28 -108 89c0 71 55 121 102 149c35 21 75 34 116 34z" fill="currentColor"/>
</a>
<a style="color:inherit;" xlink:href="13:34:49">
<path transform="translate(23.1517, 4.9720) scale(0.0022, -0.0022)" d="M190 464c-54 0 -61 -71 -61 -141v-73v-73c0 -70 7 -141 61 -141s62 71 62 141c0 26 -1 51 -1 73s1 47 1 73c0 70 -8 141 -62 141zM190 500c118 0 190 -122 190 -250s-72 -250 -190 -250s-190 122 -190 250s72 250 190 250z" fill="currentColor"/>
</a>
<a style="color:inherit;" xlink:href="13:28:43">
<path transform="translate(23.1517, 8.2255) scale(0.0022, -0.0022)" d="M267 296c23 29 41 60 41 97c0 50 -54 78 -110 78c-43 0 -69 -33 -69 -64c0 -18 9 -36 27 -46zM306 274c54 -31 79 -79 79 -126c0 -75 -67 -148 -195 -148c-97 0 -190 54 -190 143c0 49 35 84 71 119c-36 28 -53 65 -53 102c0 69 62 136 180 136c82 0 164 -35 164 -107
c0 -46 -25 -85 -56 -119zM107 239c-29 -27 -53 -56 -53 -96c0 -67 64 -114 136 -114c52 0 82 39 82 77c0 22 -10 44 -32 57z" fill="currentColor"/>
</a>
<a style="color:inherit;" xlink:href="13:25:40">
<path transform="translate(23.1858, 9.8522) scale(0.0022, -0.0022)" d="M76 396c-32 0 -40 -49 -40 -76v-52c0 -12 -9 -18 -18 -18s-18 6 -18 18v214c0 12 9 18 18 18s18 -6 18 -18v-16c0 -11 15 -21 18 -16c23 33 53 50 84 50c27 0 55 -13 80 -40c11 -12 25 -17 40 -17c28 0 59 19 80 49c4 6 10 8 15 8c10 0 18 -8 18 -18c0 -3 -1 -6 -3 -10
c-79 -113 -143 -241 -143 -373c0 -28 9 -56 9 -85c0 -9 -8 -18 -17 -18c-1 0 -3 1 -4 1c-26 7 -53 17 -80 17s-54 -10 -80 -17c-2 0 -3 -1 -5 -1c-9 0 -16 8 -16 16c0 2 0 3 1 5c52 122 128 231 206 338c-17 -8 -34 -12 -51 -12c-23 0 -45 8 -64 28c-14 15 -33 25 -48 25z
" fill="currentColor"/>
</a>
<a style="color:inherit;" xlink:href="13:22:37">
<path transform="translate(23.1858, 11.5131) scale(0.0022, -0.0022)" d="M176 257c-43 0 -47 -32 -47 -76v-38v-38c0 -44 4 -76 47 -76c55 0 55 50 55 114s0 114 -55 114zM129 272c15 7 30 14 47 14c104 0 176 -46 176 -143s-72 -143 -176 -143c-114 0 -176 124 -176 250c0 129 77 250 197 250c73 0 141 -42 141 -109c0 -32 -26 -58 -58 -58
s-58 26 -58 58c0 21 35 23 35 44c0 26 -31 36 -60 36c-60 0 -70 -54 -70 -121c0 -25 1 -52 2 -78z" fill="currentColor"/>
</a>
<a style="color:inherit;" xlink:href="13:19:34">
<path transform="translate(23.1858, 13.1398) scale(0.0022, -0.0022)" d="M54 500c45 -8 91 -14 137 -14s92 6 137 14h4c11 0 19 -7 19 -14c0 -2 -1 -4 -3 -6c-68 -68 -162 -101 -258 -101c-11 0 -20 -10 -20 -21v-73c27 27 67 36 106 36c117 0 188 -50 188 -161c0 -97 -96 -160 -200 -160c-84 0 -164 43 -164 119c0 32 26 58 58 58
s58 -26 58 -58c0 -22 -36 -26 -36 -48c0 -35 44 -42 84 -42c55 0 71 67 71 131c0 59 -8 125 -59 125c-42 0 -85 -5 -109 -38c-4 -5 -10 -8 -15 -8c-9 0 -18 7 -18 18v223c0 11 8 20 18 20h2z" fill="currentColor"/>
</a>
<a style="color:inherit;" xlink:href="13:16:31">
<path transform="translate(23.1175, 14.7665) scale(0.0022, -0.0022)" d="M198 284c24 15 48 29 65 52c12 16 19 34 28 52c2 5 6 7 11 7c8 0 16 -6 16 -17v-217h79c12 0 18 -9 18 -18s-6 -18 -18 -18h-79c2 -51 33 -96 80 -96c10 0 15 -8 15 -15s-5 -14 -15 -14c-49 0 -96 14 -145 14s-97 -14 -146 -14c-10 0 -14 7 -14 14s4 15 14 15
c47 0 79 45 81 96h-152c-29 0 -38 17 -38 28c0 3 1 6 2 8c78 88 123 201 123 319c0 11 8 21 17 21c1 0 3 -1 4 -1c25 -7 50 -14 76 -14s52 7 77 14c2 1 4 1 6 1c10 0 17 -7 17 -14c0 -2 0 -5 -2 -7l-282 -319h152v96c0 10 1 21 10 27z" fill="currentColor"/>
</a>
<a style="color:inherit;" xlink:href="13:13:28">
<path transform="translate(23.1858, 16.3933) scale(0.0022, -0.0022)" d="M155 471c-34 0 -70 -8 -70 -38c0 -19 31 -23 31 -42c0 -28 -23 -51 -51 -51s-51 23 -51 51c0 67 68 109 141 109c93 0 174 -31 174 -113c0 -41 -6 -77 -42 -94c-11 -5 -17 -16 -17 -27s6 -22 17 -27c40 -19 59 -53 59 -98c0 -94 -83 -141 -186 -141
c-82 0 -160 45 -160 119c0 32 26 58 58 58s58 -26 58 -58c0 -22 -36 -26 -36 -48c0 -33 42 -42 80 -42c46 0 56 58 56 112v38c0 40 -4 69 -43 69h-74c-12 0 -18 9 -18 18s6 18 18 18h74c40 0 43 31 43 73v30c0 50 -16 84 -61 84z" fill="currentColor"/>
</a>
<a style="color:inherit;" xlink:href="13:10:25">
<path transform="translate(23.1517, 18.0200) scale(0.0022, -0.0022)" d="M29 13c-1 -9 -7 -13 -14 -13s-15 5 -15 14c0 173 233 163 233 341c0 56 -14 116 -62 116c-33 0 -66 -15 -66 -44c0 -24 31 -37 31 -61c0 -34 -27 -61 -61 -61s-61 27 -61 61c0 78 74 134 157 134c98 0 191 -55 191 -145c0 -144 -135 -156 -233 -206h7
c36 0 74 -13 111 -40c19 -14 40 -21 59 -21c22 0 40 10 46 31c2 7 7 11 13 11c7 0 15 -5 15 -14v-5c-19 -71 -84 -111 -146 -111c-38 0 -75 15 -101 47c-12 15 -28 22 -44 22c-29 0 -57 -21 -60 -56z" fill="currentColor"/>
</a>
<a style="color:inherit;" xlink:href="13:7:22">
<path transform="translate(23.1858, 19.6809) scale(0.0022, -0.0022)" d="M136 504c20 0 38 -18 58 -18c16 0 31 8 45 14c2 1 2 1 4 1c8 0 16 -9 16 -21v-351c0 -52 32 -100 81 -100c10 0 14 -8 14 -15s-4 -14 -14 -14c-49 0 -97 14 -146 14s-96 -14 -145 -14c-10 0 -15 7 -15 14s5 15 15 15c49 0 80 48 80 100v215c0 15 -11 23 -20 23
c-5 0 -9 -2 -11 -7l-66 -127c-4 -7 -9 -9 -15 -9c-9 0 -19 7 -19 17c0 3 0 6 2 9l129 250c1 3 4 4 7 4z" fill="currentColor"/>
</a>
<path transform="translate(15.0264, 24.4209) scale(0.0040, -0.0040)" d="M376 262c4 0 9 1 13 1c155 0 256 -128 256 -261c0 -76 -33 -154 -107 -210c-22 -17 -47 -28 -73 -36c3 -35 5 -70 5 -105c0 -19 -1 -39 -2 -58c-7 -120 -90 -228 -208 -228c-108 0 -195 88 -195 197c0 58 53 103 112 103c54 0 95 -47 95 -103c0 -52 -43 -95 -95 -95
c-11 0 -21 2 -31 6c26 -39 68 -65 117 -65c96 0 157 92 163 191c1 18 2 37 2 55c0 31 -1 61 -4 92c-29 -5 -58 -8 -89 -8c-188 0 -333 172 -333 374c0 177 131 306 248 441c-19 62 -37 125 -45 190c-6 52 -7 104 -7 156c0 115 55 224 149 292c3 2 7 3 10 3c4 0 7 0 10 -3
c71 -84 133 -245 133 -358c0 -143 -86 -255 -180 -364c21 -68 39 -138 56 -207zM461 -203c68 24 113 95 113 164c0 90 -66 179 -173 190c24 -116 46 -231 60 -354zM74 28c0 -135 129 -247 264 -247c28 0 55 2 82 6c-14 127 -37 245 -63 364c-79 -8 -124 -61 -124 -119
c0 -44 25 -91 81 -123c5 -5 7 -10 7 -15c0 -11 -10 -22 -22 -22c-3 0 -6 1 -9 2c-80 43 -117 115 -117 185c0 88 58 174 160 197c-14 58 -29 117 -46 175c-107 -121 -213 -243 -213 -403zM408 1045c-99 -48 -162 -149 -162 -259c0 -74 18 -133 36 -194
c80 97 146 198 146 324c0 55 -4 79 -20 129z" fill="currentColor"/>
<a style="color:inherit;" xlink:href="12:18:33">
<path transform="translate(19.2264, 23.4209) scale(0.0040, -0.0040)" d="M359 27c-49 0 -75 42 -75 75c0 38 27 77 72 77c4 0 9 0 14 -1c-28 37 -72 59 -120 59c-106 0 -113 -73 -113 -186v-51v-51c0 -113 7 -187 113 -187c80 0 139 70 158 151c2 7 7 10 12 10c6 0 13 -4 13 -12c0 -94 -105 -174 -183 -174c-68 0 -137 21 -184 70
c-49 51 -66 122 -66 193s17 142 66 193c47 49 116 69 184 69c87 0 160 -64 175 -150c1 -5 1 -9 1 -13c0 -40 -30 -72 -67 -72z" fill="currentColor"/>
</a>

<a style="color:inherit;" xlink:href="25:14:29">
<path transform="translate(37.7432, 46.4630) scale(0.0040, -0.0040)" d="M218 136c55 0 108 -28 108 -89c0 -71 -55 -121 -102 -149c-35 -21 -75 -34 -116 -34c-55 0 -108 28 -108 89c0 71 55 121 102 149c35 21 75 34 116 34z" fill="currentColor"/>
</a>

<a style="color:inherit;" xlink:href="25:16:31">
<path transform="translate(41.4474, 45.9630) scale(0.0040, -0.0040)" d="M218 136c55 0 108 -28 108 -89c0 -71 -55 -121 -102 -149c-35 -21 -75 -34 -116 -34c-55 0 -108 28 -108 89c0 71 55 121 102 149c35 21 75 34 116 34z" fill="currentColor"/>
</a>

<a style="color:inherit;" xlink:href="25:18:33">
<path transform="translate(45.1516, 45.4630) scale(0.0040, -0.0040)" d="M218 136c55 0 108 -28 108 -89c0 -71 -55 -121 -102 -149c-35 -21 -75 -34 -116 -34c-55 0 -108 28 -108 89c0 71 55 121 102 149c35 21 75 34 116 34z" fill="currentColor"/>
</a>

<a style="color:inherit;" xlink:href="25:20:35">
<path transform="translate(48.8559, 45.4630) scale(0.0040, -0.0040)" d="M218 136c55 0 108 -28 108 -89c0 -71 -55 -121 -102 -149c-35 -21 -75 -34 -116 -34c-55 0 -108 28 -108 89c0 71 55 121 102 149c35 21 75 34 116 34z" fill="currentColor"/>
</a>
<a style="color:inherit;" xlink:href="25:7:22">
<path transform="translate(26.6306, 47.9630) scale(0.0040, -0.0040)" d="M218 136c55 0 108 -28 108 -89c0 -71 -55 -121 -102 -149c-35 -21 -75 -34 -116 -34c-55 0 -108 28 -108 89c0 71 55 121 102 149c35 21 75 34 116 34z" fill="currentColor"/>
</a>

<a style="color:inherit;" xlink:href="25:10:25">
<path transform="translate(30.3348, 47.4630) scale(0.0040, -0.0040)" d="M218 136c55 0 108 -28 108 -89c0 -71 -55 -121 -102 -149c-35 -21 -75 -34 -116 -34c-55 0 -108 28 -108 89c0 71 55 121 102 149c35 21 75 34 116 34z" fill="currentColor"/>
</a>

<a style="color:inherit;" xlink:href="25:12:27">
<path transform="translate(34.0390, 46.9630) scale(0.0040, -0.0040)" d="M218 136c55 0 108 -28 108 -89c0 -71 -55 -121 -102 -149c-35 -21 -75 -34 -116 -34c-55 0 -108 28 -108 89c0 71 55 121 102 149c35 21 75 34 116 34z" fill="currentColor"/>
</a>
<a style="color:inherit;" xlink:href="25:64:79">
<path transform="translate(130.3485, 45.4630) scale(0.0040, -0.0040)" d="M218 136c55 0 108 -28 108 -89c0 -71 -55 -121 -102 -149c-35 -21 -75 -34 -116 -34c-55 0 -108 28 -108 89c0 71 55 121 102 149c35 21 75 34 116 34z" fill="currentColor"/>
</a>


<a style="color:inherit;" xlink:href="25:66:81">
<path transform="translate(134.0527, 45.4630) scale(0.0040, -0.0040)" d="M218 136c55 0 108 -28 108 -89c0 -71 -55 -121 -102 -149c-35 -21 -75 -34 -116 -34c-55 0 -108 28 -108 89c0 71 55 121 102 149c35 21 75 34 116 34z" fill="currentColor"/>
</a>


<a style="color:inherit;" xlink:href="25:60:75">
<path transform="translate(122.9401, 45.4630) scale(0.0040, -0.0040)" d="M218 136c55 0 108 -28 108 -89c0 -71 -55 -121 -102 -149c-35 -21 -75 -34 -116 -34c-55 0 -108 28 -108 89c0 71 55 121 102 149c35 21 75 34 116 34z" fill="currentColor"/>
</a>

<a style="color:inherit;" xlink:href="25:78:93">
<path transform="translate(156.2780, 45.4630) scale(0.0040, -0.0040)" d="M218 136c55 0 108 -28 108 -89c0 -71 -55 -121 -102 -149c-35 -21 -75 -34 -116 -34c-55 0 -108 28 -108 89c0 71 55 121 102 149c35 21 75 34 116 34z" fill="currentColor"/>
</a>

<a style="color:inherit;" xlink:href="25:80:95">
<path transform="translate(159.9822, 45.4630) scale(0.0040, -0.0040)" d="M218 136c55 0 108 -28 108 -89c0 -71 -55 -121 -102 -149c-35 -21 -75 -34 -116 -34c-55 0 -108 28 -108 89c0 71 55 121 102 149c35 21 75 34 116 34z" fill="currentColor"/>
</a>
<a style="color:inherit;" xlink:href="25:62:77">
<path transform="translate(126.6443, 45.4630) scale(0.0040, -0.0040)" d="M218 136c55 0 108 -28 108 -89c0 -71 -55 -121 -102 -149c-35 -21 -75 -34 -116 -34c-55 0 -108 28 -108 89c0 71 55 121 102 149c35 21 75 34 116 34z" fill="currentColor"/>
</a>

<path transform="translate(139.6632, 23.4209) scale(0.0040, -0.0040)" d="M190 41l-1 -66c0 -4 -1 -7 -1 -11c0 -22 1 -44 4 -66c44 37 87 82 87 139c0 33 -11 67 -40 67c-30 0 -48 -30 -49 -63zM147 -138l-2 106c-27 -34 -66 -62 -98 -93c-13 -13 -19 -38 -39 -38c-13 0 -23 11 -23 25l-12 595c8 5 18 8 27 8s19 -3 27 -8l-7 -345
c17 21 43 34 70 34c20 0 38 -8 52 -21l-7 332c8 5 18 8 27 8s19 -3 27 -8l-6 -345c24 21 55 34 87 34c53 0 92 -47 92 -101c0 -80 -86 -118 -147 -170c-15 -13 -23 -38 -44 -38c-13 0 -24 11 -24 25zM17 -26v-10c0 -23 1 -45 4 -68c39 38 71 86 71 141c0 32 -6 67 -33 67
c-28 0 -39 -32 -40 -63z" fill="currentColor"/>

<a style="color:inherit;" xlink:href="25:72:87">
<path transform="translate(145.1654, 45.4630) scale(0.0040, -0.0040)" d="M218 136c55 0 108 -28 108 -89c0 -71 -55 -121 -102 -149c-35 -21 -75 -34 -116 -34c-55 0 -108 28 -108 89c0 71 55 121 102 149c35 21 75 34 116 34z" fill="currentColor"/>
</a>


<a style="color:inherit;" xlink:href="25:74:89">
<path transform="translate(148.8696, 45.4630) scale(0.0040, -0.0040)" d="M218 136c55 0 108 -28 108 -89c0 -71 -55 -121 -102 -149c-35 -21 -75 -34 -116 -34c-55 0 -108 28 -108 89c0 71 55 121 102 149c35 21 75 34 116 34z" fill="currentColor"/>
</a>
<a style="color:inherit;" xlink:href="25:68:83">
<path transform="translate(137.7569, 45.4630) scale(0.0040, -0.0040)" d="M218 136c55 0 108 -28 108 -89c0 -71 -55 -121 -102 -149c-35 -21 -75 -34 -116 -34c-55 0 -108 28 -108 89c0 71 55 121 102 149c35 21 75 34 116 34z" fill="currentColor"/>
</a>

<a style="color:inherit;" xlink:href="13:52:67">
<path transform="translate(141.4612, 23.4209) scale(0.0040, -0.0040)" d="M218 136c55 0 108 -28 108 -89c0 -71 -55 -121 -102 -149c-35 -21 -75 -34 -116 -34c-55 0 -108 28 -108 89c0 71 55 121 102 149c35 21 75 34 116 34z" fill="currentColor"/>
</a>
<a style="color:inherit;" xlink:href="25:70:85">
<path transform="translate(141.4612, 45.4630) scale(0.0040, -0.0040)" d="M218 136c55 0 108 -28 108 -89c0 -71 -55 -121 -102 -149c-35 -21 -75 -34 -116 -34c-55 0 -108 28 -108 89c0 71 55 121 102 149c35 21 75 34 116 34z" fill="currentColor"/>
</a>

<a style="color:inherit;" xlink:href="25:76:91">
<path transform="translate(152.5738, 45.4630) scale(0.0040, -0.0040)" d="M218 136c55 0 108 -28 108 -89c0 -71 -55 -121 -102 -149c-35 -21 -75 -34 -116 -34c-55 0 -108 28 -108 89c0 71 55 121 102 149c35 21 75 34 116 34z" fill="currentColor"/>
</a>

<path transform="translate(141.5912, 26.7559) scale(0.0040, -0.0040)" d="M0 0h-16v250h16c97 59 224 148 224 259c0 57 -15 112 -40 163c-3 16 10 27 23 27c7 0 15 -3 20 -11c25 -56 40 -117 40 -179c0 -203 -267 -306 -267 -509z" fill="currentColor"/>
<a style="color:inherit;" xlink:href="13:46:61">
<path transform="translate(111.8275, 23.4209) scale(0.0040, -0.0040)" d="M218 136c55 0 108 -28 108 -89c0 -71 -55 -121 -102 -149c-35 -21 -75 -34 -116 -34c-55 0 -108 28 -108 89c0 71 55 121 102 149c35 21 75 34 116 34z" fill="currentColor"/>
</a>
<a style="color:inherit;" xlink:href="25:54:69">
<path transform="translate(111.8275, 45.4630) scale(0.0040, -0.0040)" d="M218 136c55 0 108 -28 108 -89c0 -71 -55 -121 -102 -149c-35 -21 -75 -34 -116 -34c-55 0 -108 28 -108 89c0 71 55 121 102 149c35 21 75 34 116 34z" fill="currentColor"/>
</a>

<path transform="translate(110.4298, 23.4209) scale(0.0040, -0.0040)" d="M152 0c23 -23 56 -28 89 -28c6 0 10 -4 10 -10l9 -87c1 -5 -4 -10 -9 -10h-1l-87 9c-5 1 -10 5 -10 10c0 33 -5 66 -28 89c-23 -23 -28 -56 -28 -89c0 -5 -4 -9 -9 -10l-88 -9h-1c-5 0 -10 5 -9 10l9 87c0 6 4 10 10 10c33 0 66 5 89 28c-23 23 -56 28 -89 28
c-6 0 -10 4 -10 10l-9 87c-1 5 4 10 9 10h1l88 -9c5 -1 9 -5 9 -10c0 -33 5 -66 28 -89c23 23 28 56 28 89c0 5 5 9 10 10l87 9h1c5 0 10 -5 9 -10l-9 -87c0 -6 -4 -10 -10 -10c-33 0 -66 -5 -89 -28z" fill="currentColor"/>

<path transform="translate(172.8491, 22.9209) scale(0.0040, -0.0040)" d="M0 0c0 31 25 56 56 56s56 -25 56 -56s-25 -56 -56 -56s-56 25 -56 56z" fill="currentColor"/>
<a style="color:inherit;" xlink:href="25:86:101">
<path transform="translate(171.0949, 45.4630) scale(0.0040, -0.0040)" d="M218 136c55 0 108 -28 108 -89c0 -71 -55 -121 -102 -149c-35 -21 -75 -34 -116 -34c-55 0 -108 28 -108 89c0 71 55 121 102 149c35 21 75 34 116 34z" fill="currentColor"/>
</a>
<a style="color:inherit;" xlink:href="13:58:73">
<path transform="translate(171.0949, 23.4209) scale(0.0040, -0.0040)" d="M218 136c55 0 108 -28 108 -89c0 -71 -55 -121 -102 -149c-35 -21 -75 -34 -116 -34c-55 0 -108 28 -108 89c0 71 55 121 102 149c35 21 75 34 116 34z" fill="currentColor"/>
</a>

<a style="color:inherit;" xlink:href="25:50:65">
<path transform="translate(104.4190, 45.4630) scale(0.0040, -0.0040)" d="M218 136c55 0 108 -28 108 -89c0 -71 -55 -121 -102 -149c-35 -21 -75 -34 -116 -34c-55 0 -108 28 -108 89c0 71 55 121 102 149c35 21 75 34 116 34z" fill="currentColor"/>
</a>

<a style="color:inherit;" xlink:href="25:52:67">
<path transform="translate(108.1232, 45.4630) scale(0.0040, -0.0040)" d="M218 136c55 0 108 -28 108 -89c0 -71 -55 -121 -102 -149c-35 -21 -75 -34 -116 -34c-55 0 -108 28 -108 89c0 71 55 121 102 149c35 21 75 34 116 34z" fill="currentColor"/>
</a>




<a style="color:inherit;" xlink:href="25:82:97">
<path transform="translate(163.6864, 45.4630) scale(0.0040, -0.0040)" d="M218 136c55 0 108 -28 108 -89c0 -71 -55 -121 -102 -149c-35 -21 -75 -34 -116 -34c-55 0 -108 28 -108 89c0 71 55 121 102 149c35 21 75 34 116 34z" fill="currentColor"/>
</a>
<a style="color:inherit;" xlink:href="25:58:73">
<path transform="translate(119.2359, 45.4630) scale(0.0040, -0.0040)" d="M218 136c55 0 108 -28 108 -89c0 -71 -55 -121 -102 -149c-35 -21 -75 -34 -116 -34c-55 0 -108 28 -108 89c0 71 55 121 102 149c35 21 75 34 116 34z" fill="currentColor"/>
</a>

<a style="color:inherit;" xlink:href="25:56:71">
<path transform="translate(115.5317, 45.4630) scale(0.0040, -0.0040)" d="M218 136c55 0 108 -28 108 -89c0 -71 -55 -121 -102 -149c-35 -21 -75 -34 -116 -34c-55 0 -108 28 -108 89c0 71 55 121 102 149c35 21 75 34 116 34z" fill="currentColor"/>
</a>
<a style="color:inherit;" xlink:href="25:48:63">
<path transform="translate(100.7148, 45.4630) scale(0.0040, -0.0040)" d="M218 136c55 0 108 -28 108 -89c0 -71 -55 -121 -102 -149c-35 -21 -75 -34 -116 -34c-55 0 -108 28 -108 89c0 71 55 121 102 149c35 21 75 34 116 34z" fill="currentColor"/>
</a>

<a style="color:inherit;" xlink:href="25:84:99">
<path transform="translate(167.3906, 45.4630) scale(0.0040, -0.0040)" d="M218 136c55 0 108 -28 108 -89c0 -71 -55 -121 -102 -149c-35 -21 -75 -34 -116 -34c-55 0 -108 28 -108 89c0 71 55 121 102 149c35 21 75 34 116 34z" fill="currentColor"/>
</a>
<a transform="translate(5659.7198, 565.1628)" xlink:href="http://lilypond.org/">

</a>



</svg>
