
<svg xmlns="http://www.w3.org/2000/svg" xmlns:xlink="http://www.w3.org/1999/xlink" version="1.2" width="20000.00mm" height="1000.00mm" viewBox="0 0 11381.1024 569.0551">
<style text="style/css">
<![CDATA[
tspan { white-space: pre; }
]]>
</style>
<!-- Page: 1/1 -->





































<path transform="translate(121.5682, 39.6188) scale(0.0040, -0.0040)" d="M0 0c0 31 25 56 56 56s56 -25 56 -56s-25 -56 -56 -56s-56 25 -56 56z" fill="currentColor"/>
<path transform="translate(121.5682, 40.6188) scale(0.0040, -0.0040)" d="M0 0c0 31 25 56 56 56s56 -25 56 -56s-25 -56 -56 -56s-56 25 -56 56z" fill="currentColor"/>


<path transform="translate(121.5682, 26.7948) scale(0.0040, -0.0040)" d="M0 0c0 31 25 56 56 56s56 -25 56 -56s-25 -56 -56 -56s-56 25 -56 56z" fill="currentColor"/>
<path transform="translate(121.5682, 27.7948) scale(0.0040, -0.0040)" d="M0 0c0 31 25 56 56 56s56 -25 56 -56s-25 -56 -56 -56s-56 25 -56 56z" fill="currentColor"/>


<path transform="translate(121.5682, 10.0167) scale(0.0040, -0.0040)" d="M0 0c0 31 25 56 56 56s56 -25 56 -56s-25 -56 -56 -56s-56 25 -56 56z" fill="currentColor"/>
<path transform="translate(121.5682, 11.0167) scale(0.0040, -0.0040)" d="M0 0c0 31 25 56 56 56s56 -25 56 -56s-25 -56 -56 -56s-56 25 -56 56z" fill="currentColor"/>














<path transform="translate(106.8477, 39.6188) scale(0.0040, -0.0040)" d="M0 0c0 31 25 56 56 56s56 -25 56 -56s-25 -56 -56 -56s-56 25 -56 56z" fill="currentColor"/>
<path transform="translate(106.8477, 40.6188) scale(0.0040, -0.0040)" d="M0 0c0 31 25 56 56 56s56 -25 56 -56s-25 -56 -56 -56s-56 25 -56 56z" fill="currentColor"/>


<path transform="translate(106.8477, 26.7948) scale(0.0040, -0.0040)" d="M0 0c0 31 25 56 56 56s56 -25 56 -56s-25 -56 -56 -56s-56 25 -56 56z" fill="currentColor"/>
<path transform="translate(106.8477, 27.7948) scale(0.0040, -0.0040)" d="M0 0c0 31 25 56 56 56s56 -25 56 -56s-25 -56 -56 -56s-56 25 -56 56z" fill="currentColor"/>


<path transform="translate(106.8477, 10.0167) scale(0.0040, -0.0040)" d="M0 0c0 31 25 56 56 56s56 -25 56 -56s-25 -56 -56 -56s-56 25 -56 56z" fill="currentColor"/>
<path transform="translate(106.8477, 11.0167) scale(0.0040, -0.0040)" d="M0 0c0 31 25 56 56 56s56 -25 56 -56s-25 -56 -56 -56s-56 25 -56 56z" fill="currentColor"/>

































































<a style="color:inherit;" xlink:href="13:2:17">
<path transform="translate(22.9264, 9.5167) scale(0.0040, -0.0040)" d="M365 -156h-355c-6 0 -10 4 -10 10v136c0 6 4 10 10 10h355c6 0 10 -4 10 -10v-136c0 -6 -4 -10 -10 -10z" fill="currentColor"/>
</a>

<a style="color:inherit;" xlink:href="20:2:17">
<path transform="translate(102.6340, 7.5167) scale(0.0040, -0.0040)" d="M218 136c55 0 108 -28 108 -89c0 -71 -55 -121 -102 -149c-35 -21 -75 -34 -116 -34c-55 0 -108 28 -108 89c0 71 55 121 102 149c35 21 75 34 116 34z" fill="currentColor"/>
</a>
<a style="color:inherit;" xlink:href="36:4:19">
<path transform="translate(97.7418, 21.9738) scale(0.0040, -0.0040)" d="M-67 48c0 37 30 67 67 67s67 -30 67 -67s-30 -67 -67 -67s-67 30 -67 67zM0 363c157 0 332 -176 332 -366c0 -9 -10 -15 -19 -15s-17 5 -19 18c-26 148 -146 262 -294 262s-268 -114 -294 -262c-2 -13 -10 -18 -19 -18s-19 6 -19 15c0 190 175 366 332 366z" fill="currentColor"/>
</a>
<a style="color:inherit;" xlink:href="36:2:17">
<path transform="translate(96.7608, 22.7948) scale(0.0040, -0.0040)" d="M213 112c-50 0 -69 -43 -69 -88c0 -77 57 -136 134 -136c50 0 69 43 69 88c0 77 -57 136 -134 136zM491 0c0 -43 -34 -75 -72 -96c-53 -29 -114 -40 -174 -40s-120 11 -173 40c-38 21 -72 53 -72 96s34 75 72 96c53 29 113 40 173 40s121 -11 174 -40
c38 -21 72 -53 72 -96z" fill="currentColor"/>
</a>
<path transform="translate(15.0264, 11.5167) scale(0.0040, -0.0040)" d="M376 262c4 0 9 1 13 1c155 0 256 -128 256 -261c0 -76 -33 -154 -107 -210c-22 -17 -47 -28 -73 -36c3 -35 5 -70 5 -105c0 -19 -1 -39 -2 -58c-7 -120 -90 -228 -208 -228c-108 0 -195 88 -195 197c0 58 53 103 112 103c54 0 95 -47 95 -103c0 -52 -43 -95 -95 -95
c-11 0 -21 2 -31 6c26 -39 68 -65 117 -65c96 0 157 92 163 191c1 18 2 37 2 55c0 31 -1 61 -4 92c-29 -5 -58 -8 -89 -8c-188 0 -333 172 -333 374c0 177 131 306 248 441c-19 62 -37 125 -45 190c-6 52 -7 104 -7 156c0 115 55 224 149 292c3 2 7 3 10 3c4 0 7 0 10 -3
c71 -84 133 -245 133 -358c0 -143 -86 -255 -180 -364c21 -68 39 -138 56 -207zM461 -203c68 24 113 95 113 164c0 90 -66 179 -173 190c24 -116 46 -231 60 -354zM74 28c0 -135 129 -247 264 -247c28 0 55 2 82 6c-14 127 -37 245 -63 364c-79 -8 -124 -61 -124 -119
c0 -44 25 -91 81 -123c5 -5 7 -10 7 -15c0 -11 -10 -22 -22 -22c-3 0 -6 1 -9 2c-80 43 -117 115 -117 185c0 88 58 174 160 197c-14 58 -29 117 -46 175c-107 -121 -213 -243 -213 -403zM408 1045c-99 -48 -162 -149 -162 -259c0 -74 18 -133 36 -194
c80 97 146 198 146 324c0 55 -4 79 -20 129z" fill="currentColor"/>
<a style="color:inherit;" xlink:href="32:4:19">
<g transform="rotate(-0.0000, 74.9529, 17.5898)">
<path transform="translate(131.9529, 17.9898) scale(0.0040, -0.0040)" d="M-28 42c-3 -4 -8 -6 -12 -6c-8 0 -16 7 -16 16c0 3 1 7 4 10l107 128c6 8 13 11 20 11c24 0 51 -39 78 -68c14 -15 34 -23 53 -23c17 0 33 5 47 17l25 31c3 4 8 6 12 6c8 0 16 -7 16 -16c0 -3 -1 -7 -4 -10l-107 -128c-6 -8 -13 -11 -20 -11c-24 0 -51 39 -78 68
c-14 15 -34 23 -53 23c-17 0 -33 -5 -47 -17z" fill="currentColor"/>
<path transform="translate(130.9529, 17.9898) scale(0.0040, -0.0040)" d="M-28 42c-3 -4 -8 -6 -12 -6c-8 0 -16 7 -16 16c0 3 1 7 4 10l107 128c6 8 13 11 20 11c24 0 51 -39 78 -68c14 -15 34 -23 53 -23c17 0 33 5 47 17l25 31c3 4 8 6 12 6c8 0 16 -7 16 -16c0 -3 -1 -7 -4 -10l-107 -128c-6 -8 -13 -11 -20 -11c-24 0 -51 39 -78 68
c-14 15 -34 23 -53 23c-17 0 -33 -5 -47 -17z" fill="currentColor"/>
<path transform="translate(129.9529, 17.9898) scale(0.0040, -0.0040)" d="M-28 42c-3 -4 -8 -6 -12 -6c-8 0 -16 7 -16 16c0 3 1 7 4 10l107 128c6 8 13 11 20 11c24 0 51 -39 78 -68c14 -15 34 -23 53 -23c17 0 33 5 47 17l25 31c3 4 8 6 12 6c8 0 16 -7 16 -16c0 -3 -1 -7 -4 -10l-107 -128c-6 -8 -13 -11 -20 -11c-24 0 -51 39 -78 68
c-14 15 -34 23 -53 23c-17 0 -33 -5 -47 -17z" fill="currentColor"/>
<path transform="translate(128.9529, 17.9898) scale(0.0040, -0.0040)" d="M-28 42c-3 -4 -8 -6 -12 -6c-8 0 -16 7 -16 16c0 3 1 7 4 10l107 128c6 8 13 11 20 11c24 0 51 -39 78 -68c14 -15 34 -23 53 -23c17 0 33 5 47 17l25 31c3 4 8 6 12 6c8 0 16 -7 16 -16c0 -3 -1 -7 -4 -10l-107 -128c-6 -8 -13 -11 -20 -11c-24 0 -51 39 -78 68
c-14 15 -34 23 -53 23c-17 0 -33 -5 -47 -17z" fill="currentColor"/>
<path transform="translate(127.9529, 17.9898) scale(0.0040, -0.0040)" d="M-28 42c-3 -4 -8 -6 -12 -6c-8 0 -16 7 -16 16c0 3 1 7 4 10l107 128c6 8 13 11 20 11c24 0 51 -39 78 -68c14 -15 34 -23 53 -23c17 0 33 5 47 17l25 31c3 4 8 6 12 6c8 0 16 -7 16 -16c0 -3 -1 -7 -4 -10l-107 -128c-6 -8 -13 -11 -20 -11c-24 0 -51 39 -78 68
c-14 15 -34 23 -53 23c-17 0 -33 -5 -47 -17z" fill="currentColor"/>
<path transform="translate(126.9529, 17.9898) scale(0.0040, -0.0040)" d="M-28 42c-3 -4 -8 -6 -12 -6c-8 0 -16 7 -16 16c0 3 1 7 4 10l107 128c6 8 13 11 20 11c24 0 51 -39 78 -68c14 -15 34 -23 53 -23c17 0 33 5 47 17l25 31c3 4 8 6 12 6c8 0 16 -7 16 -16c0 -3 -1 -7 -4 -10l-107 -128c-6 -8 -13 -11 -20 -11c-24 0 -51 39 -78 68
c-14 15 -34 23 -53 23c-17 0 -33 -5 -47 -17z" fill="currentColor"/>
<path transform="translate(125.9529, 17.9898) scale(0.0040, -0.0040)" d="M-28 42c-3 -4 -8 -6 -12 -6c-8 0 -16 7 -16 16c0 3 1 7 4 10l107 128c6 8 13 11 20 11c24 0 51 -39 78 -68c14 -15 34 -23 53 -23c17 0 33 5 47 17l25 31c3 4 8 6 12 6c8 0 16 -7 16 -16c0 -3 -1 -7 -4 -10l-107 -128c-6 -8 -13 -11 -20 -11c-24 0 -51 39 -78 68
c-14 15 -34 23 -53 23c-17 0 -33 -5 -47 -17z" fill="currentColor"/>
<path transform="translate(124.9529, 17.9898) scale(0.0040, -0.0040)" d="M-28 42c-3 -4 -8 -6 -12 -6c-8 0 -16 7 -16 16c0 3 1 7 4 10l107 128c6 8 13 11 20 11c24 0 51 -39 78 -68c14 -15 34 -23 53 -23c17 0 33 5 47 17l25 31c3 4 8 6 12 6c8 0 16 -7 16 -16c0 -3 -1 -7 -4 -10l-107 -128c-6 -8 -13 -11 -20 -11c-24 0 -51 39 -78 68
c-14 15 -34 23 -53 23c-17 0 -33 -5 -47 -17z" fill="currentColor"/>
<path transform="translate(123.9529, 17.9898) scale(0.0040, -0.0040)" d="M-28 42c-3 -4 -8 -6 -12 -6c-8 0 -16 7 -16 16c0 3 1 7 4 10l107 128c6 8 13 11 20 11c24 0 51 -39 78 -68c14 -15 34 -23 53 -23c17 0 33 5 47 17l25 31c3 4 8 6 12 6c8 0 16 -7 16 -16c0 -3 -1 -7 -4 -10l-107 -128c-6 -8 -13 -11 -20 -11c-24 0 -51 39 -78 68
c-14 15 -34 23 -53 23c-17 0 -33 -5 -47 -17z" fill="currentColor"/>
<path transform="translate(122.9529, 17.9898) scale(0.0040, -0.0040)" d="M-28 42c-3 -4 -8 -6 -12 -6c-8 0 -16 7 -16 16c0 3 1 7 4 10l107 128c6 8 13 11 20 11c24 0 51 -39 78 -68c14 -15 34 -23 53 -23c17 0 33 5 47 17l25 31c3 4 8 6 12 6c8 0 16 -7 16 -16c0 -3 -1 -7 -4 -10l-107 -128c-6 -8 -13 -11 -20 -11c-24 0 -51 39 -78 68
c-14 15 -34 23 -53 23c-17 0 -33 -5 -47 -17z" fill="currentColor"/>
<path transform="translate(121.9529, 17.9898) scale(0.0040, -0.0040)" d="M-28 42c-3 -4 -8 -6 -12 -6c-8 0 -16 7 -16 16c0 3 1 7 4 10l107 128c6 8 13 11 20 11c24 0 51 -39 78 -68c14 -15 34 -23 53 -23c17 0 33 5 47 17l25 31c3 4 8 6 12 6c8 0 16 -7 16 -16c0 -3 -1 -7 -4 -10l-107 -128c-6 -8 -13 -11 -20 -11c-24 0 -51 39 -78 68
c-14 15 -34 23 -53 23c-17 0 -33 -5 -47 -17z" fill="currentColor"/>
<path transform="translate(120.9529, 17.9898) scale(0.0040, -0.0040)" d="M-28 42c-3 -4 -8 -6 -12 -6c-8 0 -16 7 -16 16c0 3 1 7 4 10l107 128c6 8 13 11 20 11c24 0 51 -39 78 -68c14 -15 34 -23 53 -23c17 0 33 5 47 17l25 31c3 4 8 6 12 6c8 0 16 -7 16 -16c0 -3 -1 -7 -4 -10l-107 -128c-6 -8 -13 -11 -20 -11c-24 0 -51 39 -78 68
c-14 15 -34 23 -53 23c-17 0 -33 -5 -47 -17z" fill="currentColor"/>
<path transform="translate(119.9529, 17.9898) scale(0.0040, -0.0040)" d="M-28 42c-3 -4 -8 -6 -12 -6c-8 0 -16 7 -16 16c0 3 1 7 4 10l107 128c6 8 13 11 20 11c24 0 51 -39 78 -68c14 -15 34 -23 53 -23c17 0 33 5 47 17l25 31c3 4 8 6 12 6c8 0 16 -7 16 -16c0 -3 -1 -7 -4 -10l-107 -128c-6 -8 -13 -11 -20 -11c-24 0 -51 39 -78 68
c-14 15 -34 23 -53 23c-17 0 -33 -5 -47 -17z" fill="currentColor"/>
<path transform="translate(118.9529, 17.9898) scale(0.0040, -0.0040)" d="M-28 42c-3 -4 -8 -6 -12 -6c-8 0 -16 7 -16 16c0 3 1 7 4 10l107 128c6 8 13 11 20 11c24 0 51 -39 78 -68c14 -15 34 -23 53 -23c17 0 33 5 47 17l25 31c3 4 8 6 12 6c8 0 16 -7 16 -16c0 -3 -1 -7 -4 -10l-107 -128c-6 -8 -13 -11 -20 -11c-24 0 -51 39 -78 68
c-14 15 -34 23 -53 23c-17 0 -33 -5 -47 -17z" fill="currentColor"/>
<path transform="translate(117.9529, 17.9898) scale(0.0040, -0.0040)" d="M-28 42c-3 -4 -8 -6 -12 -6c-8 0 -16 7 -16 16c0 3 1 7 4 10l107 128c6 8 13 11 20 11c24 0 51 -39 78 -68c14 -15 34 -23 53 -23c17 0 33 5 47 17l25 31c3 4 8 6 12 6c8 0 16 -7 16 -16c0 -3 -1 -7 -4 -10l-107 -128c-6 -8 -13 -11 -20 -11c-24 0 -51 39 -78 68
c-14 15 -34 23 -53 23c-17 0 -33 -5 -47 -17z" fill="currentColor"/>
<path transform="translate(116.9529, 17.9898) scale(0.0040, -0.0040)" d="M-28 42c-3 -4 -8 -6 -12 -6c-8 0 -16 7 -16 16c0 3 1 7 4 10l107 128c6 8 13 11 20 11c24 0 51 -39 78 -68c14 -15 34 -23 53 -23c17 0 33 5 47 17l25 31c3 4 8 6 12 6c8 0 16 -7 16 -16c0 -3 -1 -7 -4 -10l-107 -128c-6 -8 -13 -11 -20 -11c-24 0 -51 39 -78 68
c-14 15 -34 23 -53 23c-17 0 -33 -5 -47 -17z" fill="currentColor"/>
<path transform="translate(115.9529, 17.9898) scale(0.0040, -0.0040)" d="M-28 42c-3 -4 -8 -6 -12 -6c-8 0 -16 7 -16 16c0 3 1 7 4 10l107 128c6 8 13 11 20 11c24 0 51 -39 78 -68c14 -15 34 -23 53 -23c17 0 33 5 47 17l25 31c3 4 8 6 12 6c8 0 16 -7 16 -16c0 -3 -1 -7 -4 -10l-107 -128c-6 -8 -13 -11 -20 -11c-24 0 -51 39 -78 68
c-14 15 -34 23 -53 23c-17 0 -33 -5 -47 -17z" fill="currentColor"/>
<path transform="translate(114.9529, 17.9898) scale(0.0040, -0.0040)" d="M-28 42c-3 -4 -8 -6 -12 -6c-8 0 -16 7 -16 16c0 3 1 7 4 10l107 128c6 8 13 11 20 11c24 0 51 -39 78 -68c14 -15 34 -23 53 -23c17 0 33 5 47 17l25 31c3 4 8 6 12 6c8 0 16 -7 16 -16c0 -3 -1 -7 -4 -10l-107 -128c-6 -8 -13 -11 -20 -11c-24 0 -51 39 -78 68
c-14 15 -34 23 -53 23c-17 0 -33 -5 -47 -17z" fill="currentColor"/>
<path transform="translate(113.9529, 17.9898) scale(0.0040, -0.0040)" d="M-28 42c-3 -4 -8 -6 -12 -6c-8 0 -16 7 -16 16c0 3 1 7 4 10l107 128c6 8 13 11 20 11c24 0 51 -39 78 -68c14 -15 34 -23 53 -23c17 0 33 5 47 17l25 31c3 4 8 6 12 6c8 0 16 -7 16 -16c0 -3 -1 -7 -4 -10l-107 -128c-6 -8 -13 -11 -20 -11c-24 0 -51 39 -78 68
c-14 15 -34 23 -53 23c-17 0 -33 -5 -47 -17z" fill="currentColor"/>
<path transform="translate(112.9529, 17.9898) scale(0.0040, -0.0040)" d="M-28 42c-3 -4 -8 -6 -12 -6c-8 0 -16 7 -16 16c0 3 1 7 4 10l107 128c6 8 13 11 20 11c24 0 51 -39 78 -68c14 -15 34 -23 53 -23c17 0 33 5 47 17l25 31c3 4 8 6 12 6c8 0 16 -7 16 -16c0 -3 -1 -7 -4 -10l-107 -128c-6 -8 -13 -11 -20 -11c-24 0 -51 39 -78 68
c-14 15 -34 23 -53 23c-17 0 -33 -5 -47 -17z" fill="currentColor"/>
<path transform="translate(111.9529, 17.9898) scale(0.0040, -0.0040)" d="M-28 42c-3 -4 -8 -6 -12 -6c-8 0 -16 7 -16 16c0 3 1 7 4 10l107 128c6 8 13 11 20 11c24 0 51 -39 78 -68c14 -15 34 -23 53 -23c17 0 33 5 47 17l25 31c3 4 8 6 12 6c8 0 16 -7 16 -16c0 -3 -1 -7 -4 -10l-107 -128c-6 -8 -13 -11 -20 -11c-24 0 -51 39 -78 68
c-14 15 -34 23 -53 23c-17 0 -33 -5 -47 -17z" fill="currentColor"/>
<path transform="translate(110.9529, 17.9898) scale(0.0040, -0.0040)" d="M-28 42c-3 -4 -8 -6 -12 -6c-8 0 -16 7 -16 16c0 3 1 7 4 10l107 128c6 8 13 11 20 11c24 0 51 -39 78 -68c14 -15 34 -23 53 -23c17 0 33 5 47 17l25 31c3 4 8 6 12 6c8 0 16 -7 16 -16c0 -3 -1 -7 -4 -10l-107 -128c-6 -8 -13 -11 -20 -11c-24 0 -51 39 -78 68
c-14 15 -34 23 -53 23c-17 0 -33 -5 -47 -17z" fill="currentColor"/>
<path transform="translate(109.9529, 17.9898) scale(0.0040, -0.0040)" d="M-28 42c-3 -4 -8 -6 -12 -6c-8 0 -16 7 -16 16c0 3 1 7 4 10l107 128c6 8 13 11 20 11c24 0 51 -39 78 -68c14 -15 34 -23 53 -23c17 0 33 5 47 17l25 31c3 4 8 6 12 6c8 0 16 -7 16 -16c0 -3 -1 -7 -4 -10l-107 -128c-6 -8 -13 -11 -20 -11c-24 0 -51 39 -78 68
c-14 15 -34 23 -53 23c-17 0 -33 -5 -47 -17z" fill="currentColor"/>
<path transform="translate(108.9529, 17.9898) scale(0.0040, -0.0040)" d="M-28 42c-3 -4 -8 -6 -12 -6c-8 0 -16 7 -16 16c0 3 1 7 4 10l107 128c6 8 13 11 20 11c24 0 51 -39 78 -68c14 -15 34 -23 53 -23c17 0 33 5 47 17l25 31c3 4 8 6 12 6c8 0 16 -7 16 -16c0 -3 -1 -7 -4 -10l-107 -128c-6 -8 -13 -11 -20 -11c-24 0 -51 39 -78 68
c-14 15 -34 23 -53 23c-17 0 -33 -5 -47 -17z" fill="currentColor"/>
<path transform="translate(107.9529, 17.9898) scale(0.0040, -0.0040)" d="M-28 42c-3 -4 -8 -6 -12 -6c-8 0 -16 7 -16 16c0 3 1 7 4 10l107 128c6 8 13 11 20 11c24 0 51 -39 78 -68c14 -15 34 -23 53 -23c17 0 33 5 47 17l25 31c3 4 8 6 12 6c8 0 16 -7 16 -16c0 -3 -1 -7 -4 -10l-107 -128c-6 -8 -13 -11 -20 -11c-24 0 -51 39 -78 68
c-14 15 -34 23 -53 23c-17 0 -33 -5 -47 -17z" fill="currentColor"/>
<path transform="translate(106.9529, 17.9898) scale(0.0040, -0.0040)" d="M-28 42c-3 -4 -8 -6 -12 -6c-8 0 -16 7 -16 16c0 3 1 7 4 10l107 128c6 8 13 11 20 11c24 0 51 -39 78 -68c14 -15 34 -23 53 -23c17 0 33 5 47 17l25 31c3 4 8 6 12 6c8 0 16 -7 16 -16c0 -3 -1 -7 -4 -10l-107 -128c-6 -8 -13 -11 -20 -11c-24 0 -51 39 -78 68
c-14 15 -34 23 -53 23c-17 0 -33 -5 -47 -17z" fill="currentColor"/>
<path transform="translate(105.9529, 17.9898) scale(0.0040, -0.0040)" d="M-28 42c-3 -4 -8 -6 -12 -6c-8 0 -16 7 -16 16c0 3 1 7 4 10l107 128c6 8 13 11 20 11c24 0 51 -39 78 -68c14 -15 34 -23 53 -23c17 0 33 5 47 17l25 31c3 4 8 6 12 6c8 0 16 -7 16 -16c0 -3 -1 -7 -4 -10l-107 -128c-6 -8 -13 -11 -20 -11c-24 0 -51 39 -78 68
c-14 15 -34 23 -53 23c-17 0 -33 -5 -47 -17z" fill="currentColor"/>
<path transform="translate(104.9529, 17.9898) scale(0.0040, -0.0040)" d="M-28 42c-3 -4 -8 -6 -12 -6c-8 0 -16 7 -16 16c0 3 1 7 4 10l107 128c6 8 13 11 20 11c24 0 51 -39 78 -68c14 -15 34 -23 53 -23c17 0 33 5 47 17l25 31c3 4 8 6 12 6c8 0 16 -7 16 -16c0 -3 -1 -7 -4 -10l-107 -128c-6 -8 -13 -11 -20 -11c-24 0 -51 39 -78 68
c-14 15 -34 23 -53 23c-17 0 -33 -5 -47 -17z" fill="currentColor"/>
<path transform="translate(103.9529, 17.9898) scale(0.0040, -0.0040)" d="M-28 42c-3 -4 -8 -6 -12 -6c-8 0 -16 7 -16 16c0 3 1 7 4 10l107 128c6 8 13 11 20 11c24 0 51 -39 78 -68c14 -15 34 -23 53 -23c17 0 33 5 47 17l25 31c3 4 8 6 12 6c8 0 16 -7 16 -16c0 -3 -1 -7 -4 -10l-107 -128c-6 -8 -13 -11 -20 -11c-24 0 -51 39 -78 68
c-14 15 -34 23 -53 23c-17 0 -33 -5 -47 -17z" fill="currentColor"/>
<path transform="translate(102.9529, 17.9898) scale(0.0040, -0.0040)" d="M-28 42c-3 -4 -8 -6 -12 -6c-8 0 -16 7 -16 16c0 3 1 7 4 10l107 128c6 8 13 11 20 11c24 0 51 -39 78 -68c14 -15 34 -23 53 -23c17 0 33 5 47 17l25 31c3 4 8 6 12 6c8 0 16 -7 16 -16c0 -3 -1 -7 -4 -10l-107 -128c-6 -8 -13 -11 -20 -11c-24 0 -51 39 -78 68
c-14 15 -34 23 -53 23c-17 0 -33 -5 -47 -17z" fill="currentColor"/>
<path transform="translate(101.9529, 17.9898) scale(0.0040, -0.0040)" d="M-28 42c-3 -4 -8 -6 -12 -6c-8 0 -16 7 -16 16c0 3 1 7 4 10l107 128c6 8 13 11 20 11c24 0 51 -39 78 -68c14 -15 34 -23 53 -23c17 0 33 5 47 17l25 31c3 4 8 6 12 6c8 0 16 -7 16 -16c0 -3 -1 -7 -4 -10l-107 -128c-6 -8 -13 -11 -20 -11c-24 0 -51 39 -78 68
c-14 15 -34 23 -53 23c-17 0 -33 -5 -47 -17z" fill="currentColor"/>
<path transform="translate(100.9529, 17.9898) scale(0.0040, -0.0040)" d="M-28 42c-3 -4 -8 -6 -12 -6c-8 0 -16 7 -16 16c0 3 1 7 4 10l107 128c6 8 13 11 20 11c24 0 51 -39 78 -68c14 -15 34 -23 53 -23c17 0 33 5 47 17l25 31c3 4 8 6 12 6c8 0 16 -7 16 -16c0 -3 -1 -7 -4 -10l-107 -128c-6 -8 -13 -11 -20 -11c-24 0 -51 39 -78 68
c-14 15 -34 23 -53 23c-17 0 -33 -5 -47 -17z" fill="currentColor"/>
<path transform="translate(99.9529, 17.9898) scale(0.0040, -0.0040)" d="M-28 42c-3 -4 -8 -6 -12 -6c-8 0 -16 7 -16 16c0 3 1 7 4 10l107 128c6 8 13 11 20 11c24 0 51 -39 78 -68c14 -15 34 -23 53 -23c17 0 33 5 47 17l25 31c3 4 8 6 12 6c8 0 16 -7 16 -16c0 -3 -1 -7 -4 -10l-107 -128c-6 -8 -13 -11 -20 -11c-24 0 -51 39 -78 68
c-14 15 -34 23 -53 23c-17 0 -33 -5 -47 -17z" fill="currentColor"/>
<path transform="translate(98.9529, 17.9898) scale(0.0040, -0.0040)" d="M-28 42c-3 -4 -8 -6 -12 -6c-8 0 -16 7 -16 16c0 3 1 7 4 10l107 128c6 8 13 11 20 11c24 0 51 -39 78 -68c14 -15 34 -23 53 -23c17 0 33 5 47 17l25 31c3 4 8 6 12 6c8 0 16 -7 16 -16c0 -3 -1 -7 -4 -10l-107 -128c-6 -8 -13 -11 -20 -11c-24 0 -51 39 -78 68
c-14 15 -34 23 -53 23c-17 0 -33 -5 -47 -17z" fill="currentColor"/>
<path transform="translate(97.9529, 17.9898) scale(0.0040, -0.0040)" d="M-28 42c-3 -4 -8 -6 -12 -6c-8 0 -16 7 -16 16c0 3 1 7 4 10l107 128c6 8 13 11 20 11c24 0 51 -39 78 -68c14 -15 34 -23 53 -23c17 0 33 5 47 17l25 31c3 4 8 6 12 6c8 0 16 -7 16 -16c0 -3 -1 -7 -4 -10l-107 -128c-6 -8 -13 -11 -20 -11c-24 0 -51 39 -78 68
c-14 15 -34 23 -53 23c-17 0 -33 -5 -47 -17z" fill="currentColor"/>
<path transform="translate(96.9529, 17.9898) scale(0.0040, -0.0040)" d="M-28 42c-3 -4 -8 -6 -12 -6c-8 0 -16 7 -16 16c0 3 1 7 4 10l107 128c6 8 13 11 20 11c24 0 51 -39 78 -68c14 -15 34 -23 53 -23c17 0 33 5 47 17l25 31c3 4 8 6 12 6c8 0 16 -7 16 -16c0 -3 -1 -7 -4 -10l-107 -128c-6 -8 -13 -11 -20 -11c-24 0 -51 39 -78 68
c-14 15 -34 23 -53 23c-17 0 -33 -5 -47 -17z" fill="currentColor"/>
<path transform="translate(95.9529, 17.9898) scale(0.0040, -0.0040)" d="M-28 42c-3 -4 -8 -6 -12 -6c-8 0 -16 7 -16 16c0 3 1 7 4 10l107 128c6 8 13 11 20 11c24 0 51 -39 78 -68c14 -15 34 -23 53 -23c17 0 33 5 47 17l25 31c3 4 8 6 12 6c8 0 16 -7 16 -16c0 -3 -1 -7 -4 -10l-107 -128c-6 -8 -13 -11 -20 -11c-24 0 -51 39 -78 68
c-14 15 -34 23 -53 23c-17 0 -33 -5 -47 -17z" fill="currentColor"/>
<path transform="translate(94.9529, 17.9898) scale(0.0040, -0.0040)" d="M-28 42c-3 -4 -8 -6 -12 -6c-8 0 -16 7 -16 16c0 3 1 7 4 10l107 128c6 8 13 11 20 11c24 0 51 -39 78 -68c14 -15 34 -23 53 -23c17 0 33 5 47 17l25 31c3 4 8 6 12 6c8 0 16 -7 16 -16c0 -3 -1 -7 -4 -10l-107 -128c-6 -8 -13 -11 -20 -11c-24 0 -51 39 -78 68
c-14 15 -34 23 -53 23c-17 0 -33 -5 -47 -17z" fill="currentColor"/>
<path transform="translate(93.9529, 17.9898) scale(0.0040, -0.0040)" d="M-28 42c-3 -4 -8 -6 -12 -6c-8 0 -16 7 -16 16c0 3 1 7 4 10l107 128c6 8 13 11 20 11c24 0 51 -39 78 -68c14 -15 34 -23 53 -23c17 0 33 5 47 17l25 31c3 4 8 6 12 6c8 0 16 -7 16 -16c0 -3 -1 -7 -4 -10l-107 -128c-6 -8 -13 -11 -20 -11c-24 0 -51 39 -78 68
c-14 15 -34 23 -53 23c-17 0 -33 -5 -47 -17z" fill="currentColor"/>
<path transform="translate(92.9529, 17.9898) scale(0.0040, -0.0040)" d="M-28 42c-3 -4 -8 -6 -12 -6c-8 0 -16 7 -16 16c0 3 1 7 4 10l107 128c6 8 13 11 20 11c24 0 51 -39 78 -68c14 -15 34 -23 53 -23c17 0 33 5 47 17l25 31c3 4 8 6 12 6c8 0 16 -7 16 -16c0 -3 -1 -7 -4 -10l-107 -128c-6 -8 -13 -11 -20 -11c-24 0 -51 39 -78 68
c-14 15 -34 23 -53 23c-17 0 -33 -5 -47 -17z" fill="currentColor"/>
<path transform="translate(91.9529, 17.9898) scale(0.0040, -0.0040)" d="M-28 42c-3 -4 -8 -6 -12 -6c-8 0 -16 7 -16 16c0 3 1 7 4 10l107 128c6 8 13 11 20 11c24 0 51 -39 78 -68c14 -15 34 -23 53 -23c17 0 33 5 47 17l25 31c3 4 8 6 12 6c8 0 16 -7 16 -16c0 -3 -1 -7 -4 -10l-107 -128c-6 -8 -13 -11 -20 -11c-24 0 -51 39 -78 68
c-14 15 -34 23 -53 23c-17 0 -33 -5 -47 -17z" fill="currentColor"/>
<path transform="translate(90.9529, 17.9898) scale(0.0040, -0.0040)" d="M-28 42c-3 -4 -8 -6 -12 -6c-8 0 -16 7 -16 16c0 3 1 7 4 10l107 128c6 8 13 11 20 11c24 0 51 -39 78 -68c14 -15 34 -23 53 -23c17 0 33 5 47 17l25 31c3 4 8 6 12 6c8 0 16 -7 16 -16c0 -3 -1 -7 -4 -10l-107 -128c-6 -8 -13 -11 -20 -11c-24 0 -51 39 -78 68
c-14 15 -34 23 -53 23c-17 0 -33 -5 -47 -17z" fill="currentColor"/>
<path transform="translate(89.9529, 17.9898) scale(0.0040, -0.0040)" d="M-28 42c-3 -4 -8 -6 -12 -6c-8 0 -16 7 -16 16c0 3 1 7 4 10l107 128c6 8 13 11 20 11c24 0 51 -39 78 -68c14 -15 34 -23 53 -23c17 0 33 5 47 17l25 31c3 4 8 6 12 6c8 0 16 -7 16 -16c0 -3 -1 -7 -4 -10l-107 -128c-6 -8 -13 -11 -20 -11c-24 0 -51 39 -78 68
c-14 15 -34 23 -53 23c-17 0 -33 -5 -47 -17z" fill="currentColor"/>
<path transform="translate(88.9529, 17.9898) scale(0.0040, -0.0040)" d="M-28 42c-3 -4 -8 -6 -12 -6c-8 0 -16 7 -16 16c0 3 1 7 4 10l107 128c6 8 13 11 20 11c24 0 51 -39 78 -68c14 -15 34 -23 53 -23c17 0 33 5 47 17l25 31c3 4 8 6 12 6c8 0 16 -7 16 -16c0 -3 -1 -7 -4 -10l-107 -128c-6 -8 -13 -11 -20 -11c-24 0 -51 39 -78 68
c-14 15 -34 23 -53 23c-17 0 -33 -5 -47 -17z" fill="currentColor"/>
<path transform="translate(87.9529, 17.9898) scale(0.0040, -0.0040)" d="M-28 42c-3 -4 -8 -6 -12 -6c-8 0 -16 7 -16 16c0 3 1 7 4 10l107 128c6 8 13 11 20 11c24 0 51 -39 78 -68c14 -15 34 -23 53 -23c17 0 33 5 47 17l25 31c3 4 8 6 12 6c8 0 16 -7 16 -16c0 -3 -1 -7 -4 -10l-107 -128c-6 -8 -13 -11 -20 -11c-24 0 -51 39 -78 68
c-14 15 -34 23 -53 23c-17 0 -33 -5 -47 -17z" fill="currentColor"/>
<path transform="translate(86.9529, 17.9898) scale(0.0040, -0.0040)" d="M-28 42c-3 -4 -8 -6 -12 -6c-8 0 -16 7 -16 16c0 3 1 7 4 10l107 128c6 8 13 11 20 11c24 0 51 -39 78 -68c14 -15 34 -23 53 -23c17 0 33 5 47 17l25 31c3 4 8 6 12 6c8 0 16 -7 16 -16c0 -3 -1 -7 -4 -10l-107 -128c-6 -8 -13 -11 -20 -11c-24 0 -51 39 -78 68
c-14 15 -34 23 -53 23c-17 0 -33 -5 -47 -17z" fill="currentColor"/>
<path transform="translate(85.9529, 17.9898) scale(0.0040, -0.0040)" d="M-28 42c-3 -4 -8 -6 -12 -6c-8 0 -16 7 -16 16c0 3 1 7 4 10l107 128c6 8 13 11 20 11c24 0 51 -39 78 -68c14 -15 34 -23 53 -23c17 0 33 5 47 17l25 31c3 4 8 6 12 6c8 0 16 -7 16 -16c0 -3 -1 -7 -4 -10l-107 -128c-6 -8 -13 -11 -20 -11c-24 0 -51 39 -78 68
c-14 15 -34 23 -53 23c-17 0 -33 -5 -47 -17z" fill="currentColor"/>
<path transform="translate(84.9529, 17.9898) scale(0.0040, -0.0040)" d="M-28 42c-3 -4 -8 -6 -12 -6c-8 0 -16 7 -16 16c0 3 1 7 4 10l107 128c6 8 13 11 20 11c24 0 51 -39 78 -68c14 -15 34 -23 53 -23c17 0 33 5 47 17l25 31c3 4 8 6 12 6c8 0 16 -7 16 -16c0 -3 -1 -7 -4 -10l-107 -128c-6 -8 -13 -11 -20 -11c-24 0 -51 39 -78 68
c-14 15 -34 23 -53 23c-17 0 -33 -5 -47 -17z" fill="currentColor"/>
<path transform="translate(83.9529, 17.9898) scale(0.0040, -0.0040)" d="M-28 42c-3 -4 -8 -6 -12 -6c-8 0 -16 7 -16 16c0 3 1 7 4 10l107 128c6 8 13 11 20 11c24 0 51 -39 78 -68c14 -15 34 -23 53 -23c17 0 33 5 47 17l25 31c3 4 8 6 12 6c8 0 16 -7 16 -16c0 -3 -1 -7 -4 -10l-107 -128c-6 -8 -13 -11 -20 -11c-24 0 -51 39 -78 68
c-14 15 -34 23 -53 23c-17 0 -33 -5 -47 -17z" fill="currentColor"/>
<path transform="translate(82.9529, 17.9898) scale(0.0040, -0.0040)" d="M-28 42c-3 -4 -8 -6 -12 -6c-8 0 -16 7 -16 16c0 3 1 7 4 10l107 128c6 8 13 11 20 11c24 0 51 -39 78 -68c14 -15 34 -23 53 -23c17 0 33 5 47 17l25 31c3 4 8 6 12 6c8 0 16 -7 16 -16c0 -3 -1 -7 -4 -10l-107 -128c-6 -8 -13 -11 -20 -11c-24 0 -51 39 -78 68
c-14 15 -34 23 -53 23c-17 0 -33 -5 -47 -17z" fill="currentColor"/>
<path transform="translate(81.9529, 17.9898) scale(0.0040, -0.0040)" d="M-28 42c-3 -4 -8 -6 -12 -6c-8 0 -16 7 -16 16c0 3 1 7 4 10l107 128c6 8 13 11 20 11c24 0 51 -39 78 -68c14 -15 34 -23 53 -23c17 0 33 5 47 17l25 31c3 4 8 6 12 6c8 0 16 -7 16 -16c0 -3 -1 -7 -4 -10l-107 -128c-6 -8 -13 -11 -20 -11c-24 0 -51 39 -78 68
c-14 15 -34 23 -53 23c-17 0 -33 -5 -47 -17z" fill="currentColor"/>
<path transform="translate(80.9529, 17.9898) scale(0.0040, -0.0040)" d="M-28 42c-3 -4 -8 -6 -12 -6c-8 0 -16 7 -16 16c0 3 1 7 4 10l107 128c6 8 13 11 20 11c24 0 51 -39 78 -68c14 -15 34 -23 53 -23c17 0 33 5 47 17l25 31c3 4 8 6 12 6c8 0 16 -7 16 -16c0 -3 -1 -7 -4 -10l-107 -128c-6 -8 -13 -11 -20 -11c-24 0 -51 39 -78 68
c-14 15 -34 23 -53 23c-17 0 -33 -5 -47 -17z" fill="currentColor"/>
<path transform="translate(79.9529, 17.9898) scale(0.0040, -0.0040)" d="M-28 42c-3 -4 -8 -6 -12 -6c-8 0 -16 7 -16 16c0 3 1 7 4 10l107 128c6 8 13 11 20 11c24 0 51 -39 78 -68c14 -15 34 -23 53 -23c17 0 33 5 47 17l25 31c3 4 8 6 12 6c8 0 16 -7 16 -16c0 -3 -1 -7 -4 -10l-107 -128c-6 -8 -13 -11 -20 -11c-24 0 -51 39 -78 68
c-14 15 -34 23 -53 23c-17 0 -33 -5 -47 -17z" fill="currentColor"/>
<path transform="translate(78.9529, 17.9898) scale(0.0040, -0.0040)" d="M-28 42c-3 -4 -8 -6 -12 -6c-8 0 -16 7 -16 16c0 3 1 7 4 10l107 128c6 8 13 11 20 11c24 0 51 -39 78 -68c14 -15 34 -23 53 -23c17 0 33 5 47 17l25 31c3 4 8 6 12 6c8 0 16 -7 16 -16c0 -3 -1 -7 -4 -10l-107 -128c-6 -8 -13 -11 -20 -11c-24 0 -51 39 -78 68
c-14 15 -34 23 -53 23c-17 0 -33 -5 -47 -17z" fill="currentColor"/>
<path transform="translate(77.9529, 17.9898) scale(0.0040, -0.0040)" d="M-28 42c-3 -4 -8 -6 -12 -6c-8 0 -16 7 -16 16c0 3 1 7 4 10l107 128c6 8 13 11 20 11c24 0 51 -39 78 -68c14 -15 34 -23 53 -23c17 0 33 5 47 17l25 31c3 4 8 6 12 6c8 0 16 -7 16 -16c0 -3 -1 -7 -4 -10l-107 -128c-6 -8 -13 -11 -20 -11c-24 0 -51 39 -78 68
c-14 15 -34 23 -53 23c-17 0 -33 -5 -47 -17z" fill="currentColor"/>
<path transform="translate(76.9529, 17.9898) scale(0.0040, -0.0040)" d="M-28 42c-3 -4 -8 -6 -12 -6c-8 0 -16 7 -16 16c0 3 1 7 4 10l107 128c6 8 13 11 20 11c24 0 51 -39 78 -68c14 -15 34 -23 53 -23c17 0 33 5 47 17l25 31c3 4 8 6 12 6c8 0 16 -7 16 -16c0 -3 -1 -7 -4 -10l-107 -128c-6 -8 -13 -11 -20 -11c-24 0 -51 39 -78 68
c-14 15 -34 23 -53 23c-17 0 -33 -5 -47 -17z" fill="currentColor"/>
<path transform="translate(75.9529, 17.9898) scale(0.0040, -0.0040)" d="M-28 42c-3 -4 -8 -6 -12 -6c-8 0 -16 7 -16 16c0 3 1 7 4 10l107 128c6 8 13 11 20 11c24 0 51 -39 78 -68c14 -15 34 -23 53 -23c17 0 33 5 47 17l25 31c3 4 8 6 12 6c8 0 16 -7 16 -16c0 -3 -1 -7 -4 -10l-107 -128c-6 -8 -13 -11 -20 -11c-24 0 -51 39 -78 68
c-14 15 -34 23 -53 23c-17 0 -33 -5 -47 -17z" fill="currentColor"/>
<path transform="translate(74.9529, 17.9898) scale(0.0040, -0.0040)" d="M-28 42c-3 -4 -8 -6 -12 -6c-8 0 -16 7 -16 16c0 3 1 7 4 10l107 128c6 8 13 11 20 11c24 0 51 -39 78 -68c14 -15 34 -23 53 -23c17 0 33 5 47 17l25 31c3 4 8 6 12 6c8 0 16 -7 16 -16c0 -3 -1 -7 -4 -10l-107 -128c-6 -8 -13 -11 -20 -11c-24 0 -51 39 -78 68
c-14 15 -34 23 -53 23c-17 0 -33 -5 -47 -17z" fill="currentColor"/>
</g>
<path transform="translate(73.6029, 18.5898) scale(0.0040, -0.0040)" d="M-297 227c0 -22 17 -30 39 -30c39 0 72 14 103 28l5 24c-23 17 -50 29 -81 29c-32 0 -66 -16 -66 -51zM-26 104c0 -61 -47 -115 -98 -115c-39 0 -56 44 -56 91c0 14 1 28 4 41l15 76c-31 -13 -62 -25 -101 -25c-35 0 -60 18 -60 51c0 51 49 80 96 80c31 0 58 -10 82 -25
l46 232c6 -3 13 -5 20 -5c22 0 48 16 68 35l-53 -266l64 36c26 14 51 20 74 20c29 0 53 -10 64 -28c18 20 44 30 69 30c36 0 69 -22 69 -69c0 -45 -27 -90 -65 -90c-25 0 -38 22 -38 48c0 41 29 64 60 64h3c-8 14 -23 20 -38 20c-24 0 -50 -16 -55 -43l-54 -270
c-11 7 -24 11 -38 11s-29 -4 -43 -11l54 270v7c0 16 -12 26 -29 26c-7 0 -16 -3 -24 -7l-79 -44l-7 -31c27 -31 50 -67 50 -109zM-86 39c23 0 35 34 35 61c0 30 -14 55 -32 78l-5 -27c-4 -18 -13 -56 -13 -83c0 -17 4 -29 15 -29z" fill="currentColor"/>
</a>

<a style="color:inherit;" xlink:href="37:19:34">
<path transform="translate(108.3239, 22.7948) scale(0.0040, -0.0040)" d="M213 112c-50 0 -69 -43 -69 -88c0 -77 57 -136 134 -136c50 0 69 43 69 88c0 77 -57 136 -134 136zM491 0c0 -43 -34 -75 -72 -96c-53 -29 -114 -40 -174 -40s-120 11 -173 40c-38 21 -72 53 -72 96s34 75 72 96c53 29 113 40 173 40s121 -11 174 -40
c38 -21 72 -53 72 -96z" fill="currentColor"/>
</a>
<a style="color:inherit;" xlink:href="20:15:30">
<path transform="translate(108.3239, 9.0167) scale(0.0040, -0.0040)" d="M218 136c55 0 108 -28 108 -89c0 -71 -55 -121 -102 -149c-35 -21 -75 -34 -116 -34c-55 0 -108 28 -108 89c0 71 55 121 102 149c35 21 75 34 116 34z" fill="currentColor"/>
</a>
<a style="color:inherit;" xlink:href="21:14:29">



</a>
<a style="color:inherit;" xlink:href="17:21:36">
<path transform="translate(88.8749, 7.5167) scale(0.0040, -0.0040)" d="M218 136c55 0 108 -28 108 -89c0 -71 -55 -121 -102 -149c-35 -21 -75 -34 -116 -34c-55 0 -108 28 -108 89c0 71 55 121 102 149c35 21 75 34 116 34z" fill="currentColor"/>
</a>


<a style="color:inherit;" xlink:href="33:28:43">
<path transform="translate(86.8113, 22.0218) scale(0.0040, -0.0040)" d="M139 -132c-65 0 -117 45 -164 89s-93 97 -157 97c-33 0 -61 -23 -61 -54s23 -53 50 -57c9 21 28 31 48 31c26 0 54 -18 54 -53c0 -32 -33 -53 -68 -53c-67 0 -114 62 -114 132c0 74 60 132 134 132c65 0 117 -45 164 -89s93 -97 157 -97c33 0 61 23 61 54s-23 53 -50 57
c-9 -21 -28 -31 -48 -31c-26 0 -54 18 -54 53c0 32 33 53 68 53c67 0 114 -62 114 -132c0 -74 -60 -132 -134 -132z" fill="currentColor"/>
</a>
<a style="color:inherit;" xlink:href="33:26:41">
<path transform="translate(86.1226, 23.2948) scale(0.0040, -0.0040)" d="M314 65c0 24 -21 41 -42 41c-4 0 -8 0 -12 -1c-31 -9 -78 -40 -115 -64s-84 -53 -104 -78c-7 -8 -10 -18 -10 -28c0 -24 21 -41 42 -41c4 0 8 0 12 1c31 9 77 40 114 64s84 53 104 78c7 8 11 18 11 28zM262 136c46 0 82 -21 82 -71c0 -19 -4 -39 -10 -57
c-12 -37 -32 -72 -64 -94c-53 -36 -113 -50 -187 -50c-46 0 -83 21 -83 71c0 19 5 39 11 57c12 37 31 72 63 94c53 36 114 50 188 50z" fill="currentColor"/>
</a>
<a style="color:inherit;" xlink:href="17:19:34">
<path transform="translate(86.1226, 5.5167) scale(0.0040, -0.0040)" d="M218 136c55 0 108 -28 108 -89c0 -71 -55 -121 -102 -149c-35 -21 -75 -34 -116 -34c-55 0 -108 28 -108 89c0 71 55 121 102 149c35 21 75 34 116 34z" fill="currentColor"/>
</a>


<a style="color:inherit;" xlink:href="33:17:32">
<path transform="translate(83.6475, 21.3818) scale(0.0040, -0.0040)" d="M20 -147c0 -11 -9 -20 -20 -20s-20 9 -20 20v81l-33 -50c-4 -6 -10 -9 -17 -9c-6 0 -11 2 -15 7l-99 119c-10 -16 -21 -31 -31 -47c-4 -6 -9 -9 -16 -9c-11 0 -20 9 -20 20c0 4 1 8 3 11c31 47 62 93 93 140c4 6 10 9 17 9c6 0 11 -2 15 -7l98 -119l5 7v141
c0 11 9 20 20 20s20 -9 20 -20v-81l33 50c4 6 10 9 17 9c6 0 11 -2 15 -7l99 -119c10 16 21 31 31 47c4 6 9 9 16 9c11 0 20 -9 20 -20c0 -4 -1 -8 -3 -11c-31 -47 -62 -93 -93 -140c-4 -6 -10 -9 -17 -9c-6 0 -11 2 -15 7l-98 119l-5 -7v-141z" fill="currentColor"/>
</a>
<a style="color:inherit;" xlink:href="33:16:31">
<path transform="translate(82.9953, 22.7948) scale(0.0040, -0.0040)" d="M218 136c55 0 108 -28 108 -89c0 -71 -55 -121 -102 -149c-35 -21 -75 -34 -116 -34c-55 0 -108 28 -108 89c0 71 55 121 102 149c35 21 75 34 116 34z" fill="currentColor"/>
</a>
<a style="color:inherit;" xlink:href="17:17:32">
<path transform="translate(82.9953, 6.5167) scale(0.0040, -0.0040)" d="M218 136c55 0 108 -28 108 -89c0 -71 -55 -121 -102 -149c-35 -21 -75 -34 -116 -34c-55 0 -108 28 -108 89c0 71 55 121 102 149c35 21 75 34 116 34z" fill="currentColor"/>
</a>
<a style="color:inherit;" xlink:href="27:2:17">
<path transform="translate(22.9264, 26.2948) scale(0.0040, -0.0040)" d="M365 -156h-355c-6 0 -10 4 -10 10v136c0 6 4 10 10 10h355c6 0 10 -4 10 -10v-136c0 -6 -4 -10 -10 -10z" fill="currentColor"/>
</a>

<path transform="translate(92.6086, 8.0167) scale(0.0040, -0.0040)" d="M27 41l-1 -66v-11c0 -22 1 -44 4 -66c45 38 93 80 93 139c0 33 -14 67 -43 67c-31 0 -52 -30 -53 -63zM-15 -138l-12 595c8 5 18 8 27 8s19 -3 27 -8l-7 -345c25 21 58 34 91 34c52 0 89 -48 89 -102c0 -80 -86 -117 -147 -169c-15 -13 -24 -38 -45 -38
c-13 0 -23 11 -23 25z" fill="currentColor"/>
<path transform="translate(15.0264, 26.2948) scale(0.0040, -0.0040)" d="M557 -125c0 28 23 51 51 51s51 -23 51 -51s-23 -51 -51 -51s-51 23 -51 51zM557 125c0 28 23 51 51 51s51 -23 51 -51s-23 -51 -51 -51s-51 23 -51 51zM232 263c172 0 293 -88 293 -251c0 -263 -263 -414 -516 -521c-3 -3 -6 -4 -9 -4c-7 0 -13 6 -13 13c0 3 1 6 4 9
c202 118 412 265 412 493c0 120 -63 235 -171 235c-74 0 -129 -54 -154 -126c11 5 22 8 34 8c55 0 100 -45 100 -100c0 -58 -44 -106 -100 -106c-60 0 -112 47 -112 106c0 133 102 244 232 244z" fill="currentColor"/>
<path transform="translate(19.2264, 10.5167) scale(0.0040, -0.0040)" d="M359 27c-49 0 -75 42 -75 75c0 38 27 77 72 77c4 0 9 0 14 -1c-28 37 -72 59 -120 59c-106 0 -113 -73 -113 -186v-51v-51c0 -113 7 -187 113 -187c80 0 139 70 158 151c2 7 7 10 12 10c6 0 13 -4 13 -12c0 -94 -105 -174 -183 -174c-68 0 -137 21 -184 70
c-49 51 -66 122 -66 193s17 142 66 193c47 49 116 69 184 69c87 0 160 -64 175 -150c1 -5 1 -9 1 -13c0 -40 -30 -72 -67 -72z" fill="currentColor"/>
<a style="color:inherit;" xlink:href="34:5:20">
<path transform="translate(94.4107, 21.5498) scale(0.0040, -0.0040)" d="M215 46c4 6 9 9 16 9c11 0 20 -9 20 -20c0 -4 -1 -8 -3 -11c-31 -47 -62 -93 -93 -140c-4 -6 -10 -9 -17 -9c-6 0 -11 2 -15 7l-98 119l-78 -117c-4 -6 -10 -9 -17 -9c-6 0 -11 2 -15 7l-99 119c-10 -16 -21 -31 -31 -47c-4 -6 -9 -9 -16 -9c-11 0 -20 9 -20 20
c0 4 1 8 3 11c31 47 62 93 93 140c4 6 10 9 17 9c6 0 11 -2 15 -7l98 -119l78 117c4 6 10 9 17 9c6 0 11 -2 15 -7l99 -119c10 16 21 31 31 47z" fill="currentColor"/>
</a>
<a style="color:inherit;" xlink:href="35:2:17">
<g transform="translate(92.9084, 31.8568)" >
<path transform="scale(0.0040, -0.0040)" d="M-41 146c26 76 82 153 149 153c22 0 36 -20 41 -45c22 26 51 45 81 45c23 0 38 -21 44 -46c22 27 51 46 80 46c33 0 59 -35 59 -69c0 -5 -1 -10 -2 -15l-35 -149c0 -2 -1 -4 -1 -5c0 -5 2 -8 7 -8c9 0 27 11 48 31c4 4 9 6 13 6c6 0 11 -4 11 -10c0 -4 -3 -8 -7 -12
c-40 -38 -85 -75 -131 -75c-20 0 -32 13 -32 32c0 4 0 7 1 11l39 165c1 5 2 9 2 14c0 10 -4 18 -14 18c-16 0 -33 -16 -39 -32l-53 -183c-3 -10 -12 -18 -22 -18h-41c-10 0 -16 8 -13 18l52 183c2 6 3 11 3 16c0 9 -4 16 -13 16c-16 0 -35 -15 -41 -32l-62 -183
c-3 -10 -14 -18 -24 -18h-41c-10 0 -15 8 -12 18l63 183c2 5 2 10 2 15c0 10 -3 17 -13 17c-29 0 -54 -53 -66 -87c-4 -11 -15 -17 -23 -17c-7 0 -12 4 -12 11c0 2 1 4 2 6z" fill="currentColor"/>

<path transform="translate(1.7413, 0.0000) scale(0.0040, -0.0040)" d="M253 245l-50 -163c-30 -99 -121 -255 -218 -255c-45 0 -87 27 -87 69c0 39 17 77 52 77c24 0 44 -20 44 -44c0 -30 -38 -24 -38 -54c0 -10 11 -11 23 -11h6c48 0 61 58 73 108l68 273h-49c-11 0 -19 8 -19 19s8 19 19 19h60c32 96 118 191 213 191c45 0 87 -27 87 -69
c0 -39 -17 -77 -52 -77c-24 0 -44 19 -44 43c0 30 38 25 38 55c0 10 -10 11 -22 11h-7c-62 0 -70 -88 -86 -154h55c11 0 19 -8 19 -19s-8 -19 -19 -19h-66z" fill="currentColor"/>
</g>
</a>
<a style="color:inherit;" xlink:href="34:2:17">
<path transform="translate(93.7586, 22.7948) scale(0.0040, -0.0040)" d="M218 136c55 0 108 -28 108 -89c0 -71 -55 -121 -102 -149c-35 -21 -75 -34 -116 -34c-55 0 -108 28 -108 89c0 71 55 121 102 149c35 21 75 34 116 34z" fill="currentColor"/>
</a>
<a style="color:inherit;" xlink:href="18:9:24">
<path transform="translate(93.7586, 6.0167) scale(0.0040, -0.0040)" d="M213 112c-50 0 -69 -43 -69 -88c0 -77 57 -136 134 -136c50 0 69 43 69 88c0 77 -57 136 -134 136zM491 0c0 -43 -34 -75 -72 -96c-53 -29 -114 -40 -174 -40s-120 11 -173 40c-38 21 -72 53 -72 96s34 75 72 96c53 29 113 40 173 40s121 -11 174 -40
c38 -21 72 -53 72 -96z" fill="currentColor"/>
</a>
<a style="color:inherit;" xlink:href="18:7:22">
<path transform="translate(93.7586, 7.0167) scale(0.0040, -0.0040)" d="M213 112c-50 0 -69 -43 -69 -88c0 -77 57 -136 134 -136c50 0 69 43 69 88c0 77 -57 136 -134 136zM491 0c0 -43 -34 -75 -72 -96c-53 -29 -114 -40 -174 -40s-120 11 -173 40c-38 21 -72 53 -72 96s34 75 72 96c53 29 113 40 173 40s121 -11 174 -40
c38 -21 72 -53 72 -96z" fill="currentColor"/>
</a>
<a style="color:inherit;" xlink:href="18:3:18">
<path transform="translate(93.7586, 8.0167) scale(0.0040, -0.0040)" d="M213 112c-50 0 -69 -43 -69 -88c0 -77 57 -136 134 -136c50 0 69 43 69 88c0 77 -57 136 -134 136zM491 0c0 -43 -34 -75 -72 -96c-53 -29 -114 -40 -174 -40s-120 11 -173 40c-38 21 -72 53 -72 96s34 75 72 96c53 29 113 40 173 40s121 -11 174 -40
c38 -21 72 -53 72 -96z" fill="currentColor"/>
</a>
<a style="color:inherit;" xlink:href="39:2:17">
<path transform="translate(127.4354, 22.7948) scale(0.0040, -0.0040)" d="M218 136c55 0 108 -28 108 -89c0 -71 -55 -121 -102 -149c-35 -21 -75 -34 -116 -34c-55 0 -108 28 -108 89c0 71 55 121 102 149c35 21 75 34 116 34z" fill="currentColor"/>
</a>

<a style="color:inherit;" xlink:href="40:5:20">
<path transform="translate(131.0898, 20.6378) scale(0.0040, -0.0040)" d="M15 -338c0 -8 -7 -15 -15 -15s-15 7 -15 15v88h-142c-6 0 -10 4 -10 10v225h-87c-8 0 -15 7 -15 15s7 15 15 15h87v225c0 6 4 10 10 10h142v88c0 8 7 15 15 15s15 -7 15 -15v-88h142c6 0 10 -4 10 -10v-225h87c8 0 15 -7 15 -15s-7 -15 -15 -15h-87v-225
c0 -6 -4 -10 -10 -10h-142v-88zM15 -15v-205h64v205h-64zM15 15h64v205h-64v-205zM-15 -15h-64v-205h64v205zM-15 15v205h-64v-205h64z" fill="currentColor"/>
</a>
<a style="color:inherit;" xlink:href="40:2:17">
<path transform="translate(130.4377, 22.7948) scale(0.0040, -0.0040)" d="M218 136c55 0 108 -28 108 -89c0 -71 -55 -121 -102 -149c-35 -21 -75 -34 -116 -34c-55 0 -108 28 -108 89c0 71 55 121 102 149c35 21 75 34 116 34z" fill="currentColor"/>
</a>


<a style="color:inherit;" xlink:href="39:5:20">
<path transform="translate(128.0875, 20.6378) scale(0.0040, -0.0040)" d="M15 -338c0 -8 -7 -15 -15 -15s-15 7 -15 15v89c-97 10 -147 120 -151 234h-88c-8 0 -15 7 -15 15s7 15 15 15h88c4 114 54 224 151 234v89c0 8 7 15 15 15s15 -7 15 -15v-89c97 -10 147 -120 151 -234h88c8 0 15 -7 15 -15s-7 -15 -15 -15h-88
c-4 -114 -54 -224 -151 -234v-89zM15 -15v-204c70 12 77 111 78 204h-78zM15 15h78c-1 93 -8 192 -78 204v-204zM-15 -15h-78c1 -93 8 -192 78 -204v204zM-15 15v204c-70 -12 -77 -111 -78 -204h78z" fill="currentColor"/>
</a>
<a style="color:inherit;" xlink:href="21:31:46">
<path transform="translate(128.1241, 6.7197) scale(0.0040, -0.0040)" d="M-13 0l-37 200c0 2 -1 5 -1 7c0 24 24 43 51 43s51 -19 51 -43c0 -2 -1 -5 -1 -7l-37 -200c-1 -7 -6 -13 -13 -13s-12 6 -13 13z" fill="currentColor"/>
</a>
<a style="color:inherit;" xlink:href="21:28:43">
<path transform="translate(127.4354, 7.5167) scale(0.0040, -0.0040)" d="M314 65c0 24 -21 41 -42 41c-4 0 -8 0 -12 -1c-31 -9 -78 -40 -115 -64s-84 -53 -104 -78c-7 -8 -10 -18 -10 -28c0 -24 21 -41 42 -41c4 0 8 0 12 1c31 9 77 40 114 64s84 53 104 78c7 8 11 18 11 28zM262 136c46 0 82 -21 82 -71c0 -19 -4 -39 -10 -57
c-12 -37 -32 -72 -64 -94c-53 -36 -113 -50 -187 -50c-46 0 -83 21 -83 71c0 19 5 39 11 57c12 37 31 72 63 94c53 36 114 50 188 50z" fill="currentColor"/>
</a>
<a style="color:inherit;" xlink:href="15:2:17">
<path transform="translate(29.8382, 10.5167)" stroke-width="0.0800" stroke-linejoin="round" stroke-linecap="round" stroke="currentColor" fill="currentColor" d="M0.6203 -4.0450C3.2307 -6.0669 24.9947 -7.6641 27.8724 -6.0450L27.8724 -6.0450C25.0035 -7.5444 3.2395 -5.9472 0.6203 -4.0450z"/>
</a>
<a style="color:inherit;" xlink:href="48:2:17">
<path transform="translate(29.8382, 40.1188)" stroke-width="0.0800" stroke-linejoin="round" stroke-linecap="round" stroke="currentColor" fill="currentColor" d="M0.6521 4.0450C2.4642 5.5188 9.1098 5.5188 10.9219 4.0450L10.9219 4.0450C9.1098 5.3988 2.4642 5.3988 0.6521 4.0450z"/>
</a>

<a style="color:inherit;" xlink:href="17:4:19">



</a>
<a style="color:inherit;" xlink:href="20:4:19">



</a>



<a style="color:inherit;" xlink:href="21:2:17">
<path transform="translate(118.5659, 7.0167) scale(0.0040, -0.0040)" d="M218 136c55 0 108 -28 108 -89c0 -71 -55 -121 -102 -149c-35 -21 -75 -34 -116 -34c-55 0 -108 28 -108 89c0 71 55 121 102 149c35 21 75 34 116 34z" fill="currentColor"/>
</a>
<a style="color:inherit;" xlink:href="20:19:34">
<path transform="translate(114.5784, 7.0167) scale(0.0040, -0.0040)" d="M218 136c55 0 108 -28 108 -89c0 -71 -55 -121 -102 -149c-35 -21 -75 -34 -116 -34c-55 0 -108 28 -108 89c0 71 55 121 102 149c35 21 75 34 116 34z" fill="currentColor"/>
</a>

<a style="color:inherit;" xlink:href="20:17:32">
<path transform="translate(111.5761, 7.5167) scale(0.0040, -0.0040)" d="M218 136c55 0 108 -28 108 -89c0 -71 -55 -121 -102 -149c-35 -21 -75 -34 -116 -34c-55 0 -108 28 -108 89c0 71 55 121 102 149c35 21 75 34 116 34z" fill="currentColor"/>
</a>

<a style="color:inherit;" xlink:href="21:25:40">
<path transform="translate(124.3082, 9.0167) scale(0.0040, -0.0040)" d="M218 136c55 0 108 -28 108 -89c0 -71 -55 -121 -102 -149c-35 -21 -75 -34 -116 -34c-55 0 -108 28 -108 89c0 71 55 121 102 149c35 21 75 34 116 34z" fill="currentColor"/>
</a>


<a style="color:inherit;" xlink:href="38:5:20">
<path transform="translate(124.9603, 20.5498) scale(0.0040, -0.0040)" d="M-202 -50c0 17 13 30 30 30s30 -13 30 -30s-13 -30 -30 -30s-30 13 -30 30zM142 50c0 17 13 30 30 30s30 -13 30 -30s-13 -30 -30 -30s-30 13 -30 30zM-35 -227c0 34 17 59 54 59c39 0 58 -31 58 -62c0 -27 -15 -55 -40 -64c8 -29 36 -51 69 -51c38 0 66 35 66 75
c0 99 -83 168 -172 219l-190 -324h-60l204 349c-104 58 -204 132 -204 245c0 86 62 156 144 156c79 0 141 -68 141 -148c0 -34 -17 -59 -54 -59c-39 0 -58 31 -58 62c0 27 15 55 40 64c-8 29 -36 51 -69 51c-38 0 -66 -35 -66 -75c0 -99 83 -168 172 -219l190 324h60
l-204 -349c104 -58 204 -132 204 -245c0 -86 -62 -156 -144 -156c-79 0 -141 68 -141 148z" fill="currentColor"/>
</a>
<a style="color:inherit;" xlink:href="38:2:17">
<path transform="translate(124.3082, 22.7948) scale(0.0040, -0.0040)" d="M218 136c55 0 108 -28 108 -89c0 -71 -55 -121 -102 -149c-35 -21 -75 -34 -116 -34c-55 0 -108 28 -108 89c0 71 55 121 102 149c35 21 75 34 116 34z" fill="currentColor"/>
</a>
<path transform="translate(13.8664, 25.3178) scale(0.0040, -0.0040)" d="M-6 -1242c0 -684 -234 -1350 -234 -2010c0 -336 60 -660 258 -942c6 -6 6 -6 6 -12c0 -12 -12 -30 -24 -30c-6 0 -12 6 -18 12c-252 366 -342 798 -342 1242c0 696 240 1374 240 2040c0 336 -66 648 -258 930c0 0 -6 6 -6 12s6 12 6 12c192 282 258 594 258 930
c0 666 -240 1344 -240 2040c0 444 90 876 342 1242c6 6 12 12 18 12c12 0 24 -18 24 -30c0 -6 0 -6 -6 -12c-198 -282 -258 -606 -258 -942c0 -660 234 -1320 234 -2010c0 -444 -84 -876 -336 -1242c252 -366 336 -798 336 -1242z" fill="currentColor"/>
<a style="color:inherit;" xlink:href="49:2:17">
<path transform="translate(42.6754, 39.6188) scale(0.0040, -0.0040)" d="M218 136c55 0 108 -28 108 -89c0 -71 -55 -121 -102 -149c-35 -21 -75 -34 -116 -34c-55 0 -108 28 -108 89c0 71 55 121 102 149c35 21 75 34 116 34z" fill="currentColor"/>
</a>
<path transform="translate(44.8054, 43.0788) scale(0.0040, -0.0040)" d="M0 205c91 51 211 131 211 233c0 24 -5 48 -14 70c-79 -89 -197 -160 -197 -283v-20zM267 663c0 -44 -16 -82 -39 -116c16 -35 25 -71 25 -109c0 -181 -253 -257 -253 -438h-16v500h16v-70c97 49 224 128 224 233c0 21 -5 42 -13 62c-3 16 10 27 23 27c30 0 33 -63 33 -89
z" fill="currentColor"/>

<a style="color:inherit;" xlink:href="49:6:21">
<path transform="translate(44.6754, 39.6188) scale(0.0040, -0.0040)" d="M218 136c55 0 108 -28 108 -89c0 -71 -55 -121 -102 -149c-35 -21 -75 -34 -116 -34c-55 0 -108 28 -108 89c0 71 55 121 102 149c35 21 75 34 116 34z" fill="currentColor"/>
</a>

<a style="color:inherit;" xlink:href="15:16:31">
<path transform="translate(42.8004, 7.0167) scale(0.0040, -0.0040)" d="M218 136c55 0 108 -28 108 -89c0 -71 -55 -121 -102 -149c-35 -21 -75 -34 -116 -34c-55 0 -108 28 -108 89c0 71 55 121 102 149c35 21 75 34 116 34z" fill="currentColor"/>
</a>
<path transform="translate(42.8054, 43.0788) scale(0.0040, -0.0040)" d="M0 0h-16v250h16c97 59 224 148 224 259c0 57 -15 112 -40 163c-3 16 10 27 23 27c7 0 15 -3 20 -11c25 -56 40 -117 40 -179c0 -203 -267 -306 -267 -509z" fill="currentColor"/>

<path transform="translate(41.4121, 37.1588) scale(0.0040, -0.0040)" d="M0 -213v-19c0 -110 84 -194 143 -285c4 15 6 30 6 46c0 94 -85 189 -149 258zM0 0c0 -176 191 -295 191 -471c0 -33 -7 -66 -19 -97c17 -35 29 -72 29 -113c0 -42 -11 -82 -29 -120c17 -35 29 -72 29 -112c0 -42 -11 -83 -29 -121c17 -35 29 -72 29 -112
c0 -36 -14 -70 -35 -99c24 -41 41 -84 41 -133c0 -60 -15 -120 -41 -175c-5 -8 -13 -11 -20 -11c-13 0 -26 11 -23 27c26 49 42 103 42 159c0 92 -94 177 -165 236v-108h-16v1250h16zM0 -445v-20c0 -112 86 -195 145 -288c9 23 14 47 14 72c0 90 -91 176 -159 236zM0 -678
v-19c0 -112 86 -196 145 -289c9 23 14 48 14 73c0 90 -91 175 -159 235zM0 -910v-20c0 -108 81 -188 142 -276c11 18 17 38 17 60c0 90 -91 176 -159 236z" fill="currentColor"/>

<a style="color:inherit;" xlink:href="48:19:34">
<path transform="translate(40.1079, 43.1188) scale(0.0040, -0.0040)" d="M218 136c55 0 108 -28 108 -89c0 -71 -55 -121 -102 -149c-35 -21 -75 -34 -116 -34c-55 0 -108 28 -108 89c0 71 55 121 102 149c35 21 75 34 116 34z" fill="currentColor"/>
</a>
<path transform="translate(38.8447, 38.1588) scale(0.0040, -0.0040)" d="M0 -213v-12c0 -112 85 -196 144 -288c3 13 5 26 5 39c0 95 -85 191 -149 261zM0 0c0 -177 191 -297 191 -474c0 -31 -7 -62 -19 -90c17 -35 29 -72 29 -113c0 -39 -10 -77 -28 -112c17 -35 28 -72 28 -113c0 -33 -13 -65 -34 -91c24 -41 40 -85 40 -134
c0 -61 -15 -121 -41 -176c-5 -8 -13 -11 -20 -11c-13 0 -26 11 -23 27c26 50 42 104 42 160c0 93 -94 180 -165 240v-113h-16v1000h16zM0 -438v-12c0 -113 87 -198 146 -292c8 21 13 43 13 65c0 91 -91 178 -159 239zM0 -662v-13c0 -109 82 -191 143 -280c10 16 16 34 16 53
c0 91 -91 179 -159 240z" fill="currentColor"/>

<a style="color:inherit;" xlink:href="48:15:30">
<path transform="translate(37.5405, 43.1188) scale(0.0040, -0.0040)" d="M218 136c55 0 108 -28 108 -89c0 -71 -55 -121 -102 -149c-35 -21 -75 -34 -116 -34c-55 0 -108 28 -108 89c0 71 55 121 102 149c35 21 75 34 116 34z" fill="currentColor"/>
</a>


<a style="color:inherit;" xlink:href="15:20:35">
<path transform="translate(57.0902, 5.5167) scale(0.0040, -0.0040)" d="M218 136c55 0 108 -28 108 -89c0 -71 -55 -121 -102 -149c-35 -21 -75 -34 -116 -34c-55 0 -108 28 -108 89c0 71 55 121 102 149c35 21 75 34 116 34z" fill="currentColor"/>
</a>

<path transform="translate(19.2264, 27.2948) scale(0.0040, -0.0040)" d="M359 27c-49 0 -75 42 -75 75c0 38 27 77 72 77c4 0 9 0 14 -1c-28 37 -72 59 -120 59c-106 0 -113 -73 -113 -186v-51v-51c0 -113 7 -187 113 -187c80 0 139 70 158 151c2 7 7 10 12 10c6 0 13 -4 13 -12c0 -94 -105 -174 -183 -174c-68 0 -137 21 -184 70
c-49 51 -66 122 -66 193s17 142 66 193c47 49 116 69 184 69c87 0 160 -64 175 -150c1 -5 1 -9 1 -13c0 -40 -30 -72 -67 -72z" fill="currentColor"/>
<path transform="translate(50.2180, 45.5788) scale(0.0040, -0.0040)" d="M-16 0v1250h16v-130c97 28 224 83 224 178c0 19 -5 37 -5 56c0 14 11 23 23 23c7 0 14 -4 19 -12c3 -22 6 -45 6 -67c0 -30 -8 -55 -22 -78c10 -37 16 -76 16 -114c0 -31 -8 -59 -21 -84c10 -37 16 -75 16 -113c0 -35 -9 -66 -24 -95c10 -34 16 -68 16 -103
c0 -40 -10 -76 -28 -110c7 -32 11 -63 11 -96c0 -191 -231 -305 -231 -496v-9h-16zM0 209c81 77 189 185 189 296c0 14 -1 28 -3 42c-74 -100 -186 -185 -186 -312v-26zM0 435c89 68 206 166 206 276c0 18 -2 36 -6 54c-75 -98 -200 -176 -200 -305v-25zM0 660
c92 57 214 143 214 249c0 22 -2 44 -7 65c-77 -91 -207 -159 -207 -284v-30zM0 890c95 44 219 116 219 216c0 23 -3 47 -8 70c-78 -81 -211 -136 -211 -256v-30z" fill="currentColor"/>
<path transform="translate(36.2772, 38.9088) scale(0.0040, -0.0040)" d="M0 -212v-5c0 -110 85 -194 144 -285c3 11 5 23 5 35c0 93 -85 187 -149 255zM0 0c0 -175 191 -292 191 -467c0 -29 -8 -57 -19 -84c17 -35 29 -71 29 -111c0 -36 -8 -72 -23 -105c18 -35 29 -72 29 -113c0 -60 -15 -119 -41 -173c-5 -8 -13 -11 -20 -11
c-13 0 -26 11 -23 27c26 49 42 102 42 157c0 91 -94 175 -165 233v-103h-16v750h16zM0 -430v-5c0 -112 88 -194 149 -285c6 19 10 38 10 58c0 90 -91 173 -159 232z" fill="currentColor"/>
<a style="color:inherit;" xlink:href="49:18:33">
<path transform="translate(50.0880, 39.6188) scale(0.0040, -0.0040)" d="M218 136c55 0 108 -28 108 -89c0 -71 -55 -121 -102 -149c-35 -21 -75 -34 -116 -34c-55 0 -108 28 -108 89c0 71 55 121 102 149c35 21 75 34 116 34z" fill="currentColor"/>
</a>
<path transform="translate(48.4138, 44.5788) scale(0.0040, -0.0040)" d="M-16 0v1000h16v-125c97 23 224 73 224 165c0 22 -7 43 -7 64c0 14 12 23 24 23c7 0 14 -4 19 -12c4 -25 7 -50 7 -75c0 -30 -9 -55 -23 -78c11 -36 17 -73 17 -110c0 -31 -8 -59 -22 -84c11 -35 17 -72 17 -109c0 -36 -10 -69 -27 -98c7 -35 12 -70 12 -105
c0 -181 -241 -271 -241 -452v-4h-16zM0 204c86 60 199 149 199 252c0 19 -2 37 -5 55c-76 -91 -194 -163 -194 -286v-21zM0 425c92 51 214 131 214 234c0 21 -3 42 -8 63c-77 -87 -206 -150 -206 -272v-25zM0 650c95 38 219 104 219 202c0 23 -3 46 -9 68
c-78 -77 -210 -128 -210 -245v-25z" fill="currentColor"/>

<a style="color:inherit;" xlink:href="49:14:29">
<path transform="translate(48.2838, 39.6188) scale(0.0040, -0.0040)" d="M218 136c55 0 108 -28 108 -89c0 -71 -55 -121 -102 -149c-35 -21 -75 -34 -116 -34c-55 0 -108 28 -108 89c0 71 55 121 102 149c35 21 75 34 116 34z" fill="currentColor"/>
</a>
<path transform="translate(46.6096, 43.8288) scale(0.0040, -0.0040)" d="M0 205c89 50 206 128 206 228c0 22 -3 44 -8 66c-77 -88 -198 -157 -198 -279v-15zM224 864c0 26 -25 75 14 75c27 0 29 -51 29 -75c0 -38 -12 -70 -30 -100c16 -38 24 -79 24 -120c0 -38 -12 -70 -30 -100c11 -36 17 -73 17 -111c0 -178 -248 -255 -248 -433h-16v750h16
v-105c97 44 224 117 224 219zM0 425c95 45 219 118 219 219c0 27 -5 54 -14 79c-79 -90 -205 -158 -205 -283v-15z" fill="currentColor"/>

<a style="color:inherit;" xlink:href="49:10:25">
<path transform="translate(46.4796, 39.6188) scale(0.0040, -0.0040)" d="M218 136c55 0 108 -28 108 -89c0 -71 -55 -121 -102 -149c-35 -21 -75 -34 -116 -34c-55 0 -108 28 -108 89c0 71 55 121 102 149c35 21 75 34 116 34z" fill="currentColor"/>
</a>
<a style="color:inherit;" xlink:href="29:2:17">
<path transform="translate(29.8382, 33.2948) scale(0.0040, -0.0040)" d="M213 112c-50 0 -69 -43 -69 -88c0 -77 57 -136 134 -136c50 0 69 43 69 88c0 77 -57 136 -134 136zM491 0c0 -43 -34 -75 -72 -96c-53 -29 -114 -40 -174 -40s-120 11 -173 40c-38 21 -72 53 -72 96s34 75 72 96c53 29 113 40 173 40s121 -11 174 -40
c38 -21 72 -53 72 -96z" fill="currentColor"/>
</a>

<path transform="translate(25.6284, 41.1188) scale(0.0040, -0.0040)" d="M518 1c0 -82 -56 -168 -141 -197c2 -27 3 -54 3 -81c0 -16 0 -33 -1 -49c-6 -99 -75 -186 -173 -186c-87 0 -159 72 -159 160c0 46 42 83 90 83c43 0 76 -38 76 -83c0 -42 -34 -76 -76 -76c-4 0 -6 0 -10 1c19 -26 47 -42 81 -42c75 0 124 72 129 149c1 15 1 30 1 45
c0 23 -1 46 -3 69c-22 -4 -44 -6 -67 -6c-151 0 -266 139 -266 302c0 144 101 254 191 367c-16 53 -31 105 -37 160c-5 42 -5 85 -5 128c0 93 42 181 115 239c3 2 6 3 9 3c4 0 8 -1 11 -4c57 -69 107 -202 107 -295c0 -115 -63 -207 -135 -297c17 -59 33 -119 47 -179h1
c2 0 4 1 6 1c126 0 206 -105 206 -212zM373 -155c50 20 81 75 81 125c0 68 -48 136 -127 147c19 -89 35 -178 46 -272zM63 19c0 -104 102 -188 208 -188c21 0 40 1 60 4c-11 98 -28 191 -48 283c-59 -7 -93 -48 -93 -92c0 -34 21 -70 64 -95c5 -5 6 -10 6 -15
c0 -11 -9 -22 -21 -22c-3 0 -6 1 -9 2c-65 35 -95 93 -95 150c0 71 46 141 128 161c-11 48 -24 95 -38 143c-82 -101 -162 -202 -162 -331zM319 860c-76 -44 -123 -124 -123 -211c0 -56 15 -104 29 -151c59 79 107 162 107 261c0 43 -2 61 -13 101z" fill="currentColor"/>
<a style="color:inherit;" xlink:href="48:3:18">
<path transform="translate(29.8382, 43.1188) scale(0.0040, -0.0040)" d="M218 136c55 0 108 -28 108 -89c0 -71 -55 -121 -102 -149c-35 -21 -75 -34 -116 -34c-55 0 -108 28 -108 89c0 71 55 121 102 149c35 21 75 34 116 34z" fill="currentColor"/>
</a>
<path transform="translate(25.6284, 26.2948) scale(0.0040, -0.0040)" d="M265 0c0 -25 3 -57 33 -57c24 0 44 27 69 27c98 0 182 -74 182 -170c0 -134 -70 -200 -205 -200c-65 0 -121 49 -121 113c0 33 27 60 60 60s61 -27 61 -60c0 -30 -36 -31 -36 -61c0 -17 17 -28 36 -28c91 0 108 72 108 176c0 86 -11 146 -85 146c-55 0 -90 -56 -90 -116
c0 -8 -6 -12 -12 -12s-13 4 -13 12c0 59 -24 115 -66 155v-375c0 -6 -4 -10 -10 -10h-17c-6 0 -10 4 -10 10v780c0 6 4 10 10 10h17c6 0 10 -4 10 -10v-375c42 40 66 96 66 155c0 8 7 12 13 12s12 -4 12 -12c0 -60 35 -116 90 -116c74 0 85 60 85 146
c0 104 -17 175 -108 175c-19 0 -36 -10 -36 -27c0 -30 36 -31 36 -61c0 -33 -28 -60 -61 -60s-60 27 -60 60c0 64 56 113 121 113c135 0 205 -66 205 -200c0 -96 -84 -170 -182 -170c-25 0 -45 27 -69 27c-30 0 -33 -32 -33 -57zM102 -400h-92c-6 0 -10 4 -10 10v780
c0 6 4 10 10 10h92c6 0 10 -4 10 -10v-780c0 -6 -4 -10 -10 -10z" fill="currentColor"/>
<a style="color:inherit;" xlink:href="30:2:17">
<g transform="translate(29.2144, 36.3518)" >
<path transform="scale(0.0040, -0.0040)" d="M180 216c0 10 9 19 9 29c0 13 -6 23 -18 23c-26 0 -47 -20 -47 -45c0 -17 16 -28 31 -37c33 -19 68 -42 68 -80c0 -61 -56 -106 -120 -106c-43 0 -81 28 -81 68c0 21 12 42 31 42c18 0 32 -14 32 -32c0 -13 -21 -16 -21 -29c0 -15 18 -22 35 -22c33 0 64 20 64 51
c0 57 -100 60 -100 117c0 54 45 97 99 97c56 0 79 -34 79 -62c0 -19 -11 -36 -30 -36c-18 0 -31 11 -31 22z" fill="currentColor"/>

<path transform="translate(0.8194, 0.0000) scale(0.0040, -0.0040)" d="M253 245l-50 -163c-30 -99 -121 -255 -218 -255c-45 0 -87 27 -87 69c0 39 17 77 52 77c24 0 44 -20 44 -44c0 -30 -38 -24 -38 -54c0 -10 11 -11 23 -11h6c48 0 61 58 73 108l68 273h-49c-11 0 -19 8 -19 19s8 19 19 19h60c32 96 118 191 213 191c45 0 87 -27 87 -69
c0 -39 -17 -77 -52 -77c-24 0 -44 19 -44 43c0 30 38 25 38 55c0 10 -10 11 -22 11h-7c-62 0 -70 -88 -86 -154h55c11 0 19 -8 19 -19s-8 -19 -19 -19h-66z" fill="currentColor"/>

<path transform="translate(2.0827, 0.0000) scale(0.0040, -0.0040)" d="M264 127c19 0 22 -45 22 -61c0 -52 -45 -94 -98 -94c-42 0 -73 39 -115 39c-8 0 -16 1 -24 1c-10 0 -19 -1 -26 -8c-3 -3 -6 -4 -9 -4c-7 0 -14 7 -14 14c0 3 1 7 4 10l186 176c-34 -6 -71 -5 -105 -11c-14 -2 -29 -7 -40 -7c-10 0 -17 4 -17 15c0 32 38 70 71 70
c32 0 62 -22 94 -22c8 0 15 -1 23 -1c11 0 22 1 30 9c3 3 7 4 10 4c7 0 14 -7 14 -14c0 -3 -2 -7 -5 -10l-177 -167h5c42 0 83 -11 125 -11c20 0 35 17 35 38c0 7 -4 14 -4 21c0 8 8 13 15 13z" fill="currentColor"/>
</g>
</a>
<a style="color:inherit;" xlink:href="15:5:20">
<path transform="translate(31.2941, 15.7667) scale(0.0040, -0.0040)" d="M0 35c0 19 16 35 35 35s35 -16 35 -35s-16 -35 -35 -35s-35 16 -35 35z" fill="currentColor"/>
<path transform="translate(28.1021, 15.7667) scale(0.0040, -0.0040)" d="M43 339c0 -19 13 -48 39 -48c22 0 43 28 43 59c0 8 18 8 18 0c0 -63 -41 -125 -83 -125c-41 0 -61 44 -61 78c0 82 90 197 251 197c108 0 166 -82 166 -144c0 -30 -17 -67 -52 -67s-68 49 -87 90c-3 7 13 14 16 7c8 -18 28 -32 46 -32c21 0 32 18 32 36
c0 39 -44 92 -121 92h-7c-10 -20 -39 -91 -39 -108c0 -46 100 -114 100 -164c0 -24 -28 -52 -58 -90c29 -3 83 -28 102 -44c13 -11 48 24 57 31c-4 19 -6 29 -6 48c0 60 32 132 96 132c25 0 49 -17 49 -45c0 -37 -43 -80 -79 -110l-11 -9c13 -24 33 -57 47 -69
c4 -4 13 -3 18 0c9 5 47 33 63 47c-4 14 -6 28 -6 42c0 55 45 112 97 137c-51 71 -129 126 -208 140c-8 1 -5 19 3 18c142 -25 305 -134 329 -272c1 -8 3 -16 3 -24c0 -70 -50 -142 -113 -142c-43 0 -81 37 -99 82c-24 -22 -73 -64 -85 -72c-8 -6 -19 -9 -30 -9
c-39 0 -51 46 -62 85c-27 -20 -90 -73 -106 -82c-6 -3 -12 -4 -17 0c-19 16 -28 89 -57 98c-25 -30 -47 -57 -56 -66c-12 -12 -47 -36 -64 -36c-7 0 -14 5 -14 12c0 13 21 38 30 47c18 19 67 57 95 61c18 21 30 29 30 49c0 47 -88 111 -88 150c0 24 43 134 60 162
c-113 -10 -181 -88 -181 -142zM475 254c-30 0 -43 -27 -43 -55c0 -20 6 -42 14 -60c26 22 63 54 63 83c0 19 -16 32 -34 32zM683 265c-37 -21 -55 -77 -55 -122c0 -48 18 -108 59 -108c32 0 45 39 45 81c0 61 -20 105 -49 149z" fill="currentColor"/>
</a>
<path transform="translate(25.6284, 9.5167) scale(0.0040, -0.0040)" d="M446 -100c0 23 18 41 41 41s41 -18 41 -41s-18 -41 -41 -41s-41 18 -41 41zM446 100c0 23 18 41 41 41s41 -18 41 -41s-18 -41 -41 -41s-41 18 -41 41zM179 213c140 0 241 -69 241 -201c0 -211 -210 -333 -411 -421c-3 -3 -6 -4 -9 -4c-7 0 -13 6 -13 13c0 3 1 6 4 9
c150 98 307 217 307 393c0 92 -38 185 -119 185c-52 0 -87 -38 -104 -90c5 1 10 2 15 2c44 0 80 -36 80 -80c0 -46 -35 -85 -80 -85c-48 0 -90 38 -90 85c0 104 77 194 179 194z" fill="currentColor"/>
<a style="color:inherit;" xlink:href="15:3:18">
<path transform="translate(29.8382, 7.5167) scale(0.0040, -0.0040)" d="M218 136c55 0 108 -28 108 -89c0 -71 -55 -121 -102 -149c-35 -21 -75 -34 -116 -34c-55 0 -108 28 -108 89c0 71 55 121 102 149c35 21 75 34 116 34z" fill="currentColor"/>
</a>

<a style="color:inherit;" xlink:href="48:11:26">
<path transform="translate(34.9730, 43.1188) scale(0.0040, -0.0040)" d="M218 136c55 0 108 -28 108 -89c0 -71 -55 -121 -102 -149c-35 -21 -75 -34 -116 -34c-55 0 -108 28 -108 89c0 71 55 121 102 149c35 21 75 34 116 34z" fill="currentColor"/>
</a>
<path transform="translate(33.7098, 39.6588) scale(0.0040, -0.0040)" d="M0 0c0 -177 201 -293 201 -470c0 -33 -9 -65 -23 -95c18 -37 29 -75 29 -117c0 -63 -15 -125 -41 -183c-5 -8 -13 -12 -20 -12c-13 0 -26 11 -23 27c26 52 42 110 42 168c0 97 -94 190 -165 257v-75h-16v500h16zM151 -517c5 15 8 31 8 47c0 96 -91 190 -159 257
c0 -118 90 -206 151 -304z" fill="currentColor"/>

<a style="color:inherit;" xlink:href="48:7:22">
<path transform="translate(32.4056, 43.1188) scale(0.0040, -0.0040)" d="M218 136c55 0 108 -28 108 -89c0 -71 -55 -121 -102 -149c-35 -21 -75 -34 -116 -34c-55 0 -108 28 -108 89c0 71 55 121 102 149c35 21 75 34 116 34z" fill="currentColor"/>
</a>
<a style="color:inherit;" xlink:href="15:18:33">
<path transform="translate(53.8380, 6.5167) scale(0.0040, -0.0040)" d="M218 136c55 0 108 -28 108 -89c0 -71 -55 -121 -102 -149c-35 -21 -75 -34 -116 -34c-55 0 -108 28 -108 89c0 71 55 121 102 149c35 21 75 34 116 34z" fill="currentColor"/>
</a>
<path transform="translate(31.1424, 39.6588) scale(0.0040, -0.0040)" d="M0 0c0 -197 207 -336 207 -533c0 -71 -15 -141 -41 -207c-5 -8 -13 -12 -20 -12c-13 0 -26 11 -23 27c26 61 42 126 42 192c0 103 -94 208 -165 283h-16v250h16z" fill="currentColor"/>

<a style="color:inherit;" xlink:href="31:32:47">
<path transform="translate(71.2240, 28.2948) scale(0.0028, -0.0028)" d="M208 139c61 0 117 -33 117 -99c0 -71 -52 -119 -99 -147c-34 -20 -71 -32 -110 -32c-61 0 -116 33 -116 99c0 71 51 119 98 147c34 20 71 32 110 32z" fill="currentColor"/>
</a>
<a style="color:inherit;" xlink:href="32:2:17">
<path transform="translate(72.6219, 29.7948) scale(0.0040, -0.0040)" d="M213 112c-50 0 -69 -43 -69 -88c0 -77 57 -136 134 -136c50 0 69 43 69 88c0 77 -57 136 -134 136zM491 0c0 -43 -34 -75 -72 -96c-53 -29 -114 -40 -174 -40s-120 11 -173 40c-38 21 -72 53 -72 96s34 75 72 96c53 29 113 40 173 40s121 -11 174 -40
c38 -21 72 -53 72 -96z" fill="currentColor"/>
</a>
<a style="color:inherit;" xlink:href="16:22:37">
<path transform="translate(71.8441, 15.3227) scale(0.0040, -0.0040)" d="M166 194c0 -16 12 -28 28 -28s29 12 29 28s-13 29 -29 29s-28 -13 -28 -29zM92 347c23 0 42 -19 42 -46v-11c0 -20 11 -45 35 -35c9 4 15 13 15 22c0 27 -38 37 -38 64c0 32 24 48 48 48s49 -16 49 -48c0 -27 -39 -37 -39 -64c0 -18 26 -32 41 -17c8 8 10 19 10 30
c0 4 -1 7 -1 11c0 27 20 46 43 46c26 0 50 -24 50 -50c0 -23 -18 -43 -45 -43c-4 0 -8 1 -12 1c-20 0 -45 -11 -35 -35c4 -9 13 -16 22 -16c27 0 37 39 64 39c32 0 48 -25 48 -49s-16 -48 -48 -48c-27 0 -37 38 -64 38c-18 0 -32 -26 -17 -41c8 -8 19 -9 30 -9h12
c27 0 45 -19 45 -42c0 -26 -24 -50 -50 -50c-23 0 -43 18 -43 45c0 4 1 8 1 12c0 20 -11 45 -35 35c-9 -4 -16 -13 -16 -22c0 -27 39 -37 39 -64c0 -32 -25 -48 -49 -48s-48 16 -48 48c0 27 38 37 38 64c0 18 -26 32 -41 17c-8 -8 -9 -19 -9 -30v-12c0 -27 -19 -45 -42 -45
c-26 0 -50 24 -50 50c0 23 18 42 45 42h12c20 0 45 11 35 35c-4 9 -13 15 -22 15c-27 0 -37 -38 -64 -38c-32 0 -48 24 -48 48s16 49 48 49c27 0 37 -39 64 -39c18 0 32 26 17 41c-8 8 -19 10 -30 10c-4 0 -8 -1 -12 -1c-27 0 -45 20 -45 43c0 26 24 50 50 50z" fill="currentColor"/>
</a>
<a style="color:inherit;" xlink:href="16:8:23">
<path transform="translate(72.6219, 5.0167) scale(0.0040, -0.0040)" d="M213 112c-50 0 -69 -43 -69 -88c0 -77 57 -136 134 -136c50 0 69 43 69 88c0 77 -57 136 -134 136zM491 0c0 -43 -34 -75 -72 -96c-53 -29 -114 -40 -174 -40s-120 11 -173 40c-38 21 -72 53 -72 96s34 75 72 96c53 29 113 40 173 40s121 -11 174 -40
c38 -21 72 -53 72 -96z" fill="currentColor"/>
</a>
<a style="color:inherit;" xlink:href="16:6:21">
<path transform="translate(72.6219, 6.0167) scale(0.0040, -0.0040)" d="M213 112c-50 0 -69 -43 -69 -88c0 -77 57 -136 134 -136c50 0 69 43 69 88c0 77 -57 136 -134 136zM491 0c0 -43 -34 -75 -72 -96c-53 -29 -114 -40 -174 -40s-120 11 -173 40c-38 21 -72 53 -72 96s34 75 72 96c53 29 113 40 173 40s121 -11 174 -40
c38 -21 72 -53 72 -96z" fill="currentColor"/>
</a>
<a style="color:inherit;" xlink:href="16:3:18">
<path transform="translate(72.6219, 7.5167) scale(0.0040, -0.0040)" d="M213 112c-50 0 -69 -43 -69 -88c0 -77 57 -136 134 -136c50 0 69 43 69 88c0 77 -57 136 -134 136zM491 0c0 -43 -34 -75 -72 -96c-53 -29 -114 -40 -174 -40s-120 11 -173 40c-38 21 -72 53 -72 96s34 75 72 96c53 29 113 40 173 40s121 -11 174 -40
c38 -21 72 -53 72 -96z" fill="currentColor"/>
</a>
<a style="color:inherit;" xlink:href="16:12:27">
<path transform="translate(71.3218, 5.5167) scale(0.0040, -0.0040)" d="M42 278c-4 3 -6 8 -6 12c0 8 7 16 16 16c3 0 7 -1 10 -4l128 -107c8 -6 11 -13 11 -20c0 -24 -39 -51 -68 -78c-15 -14 -23 -34 -23 -53c0 -17 5 -33 17 -47l31 -25c4 -3 6 -8 6 -12c0 -8 -7 -16 -16 -16c-3 0 -7 1 -10 4l-128 107c-8 6 -11 13 -11 20c0 24 39 51 68 78
c15 14 23 34 23 53c0 17 -5 33 -17 47z" fill="currentColor"/>
<path transform="translate(71.3218, 6.5167) scale(0.0040, -0.0040)" d="M42 278c-4 3 -6 8 -6 12c0 8 7 16 16 16c3 0 7 -1 10 -4l128 -107c8 -6 11 -13 11 -20c0 -24 -39 -51 -68 -78c-15 -14 -23 -34 -23 -53c0 -17 5 -33 17 -47l31 -25c4 -3 6 -8 6 -12c0 -8 -7 -16 -16 -16c-3 0 -7 1 -10 4l-128 107c-8 6 -11 13 -11 20c0 24 39 51 68 78
c15 14 23 34 23 53c0 17 -5 33 -17 47z" fill="currentColor"/>
<path transform="translate(71.3218, 7.5167) scale(0.0040, -0.0040)" d="M42 278c-4 3 -6 8 -6 12c0 8 7 16 16 16c3 0 7 -1 10 -4l128 -107c8 -6 11 -13 11 -20c0 -24 -39 -51 -68 -78c-15 -14 -23 -34 -23 -53c0 -17 5 -33 17 -47l31 -25c4 -3 6 -8 6 -12c0 -8 -7 -16 -16 -16c-3 0 -7 1 -10 4l-128 107c-8 6 -11 13 -11 20c0 24 39 51 68 78
c15 14 23 34 23 53c0 17 -5 33 -17 47z" fill="currentColor"/>
</a>
<path transform="translate(70.4330, 28.2948) scale(0.0025, -0.0025)" d="M-9 375c9 5 19 8 29 8s19 -3 28 -8l-3 -202l97 26c2 0 3 1 5 1c11 0 20 -9 20 -20l8 -555c-9 -5 -18 -8 -28 -8s-20 3 -29 8l3 202l-96 -26c-2 0 -3 -1 -5 -1c-11 0 -20 9 -20 20zM126 108l-82 -22l-3 -194l82 22z" fill="currentColor"/>

<path transform="translate(67.6529, 28.2948) scale(0.0025, -0.0025)" d="M197 33l-2 -58v-10c0 -21 2 -43 5 -64c40 38 79 81 79 136c0 31 -10 63 -37 63c-30 0 -44 -34 -45 -67zM145 -142l-3 103c-24 -30 -55 -57 -82 -86c-17 -18 -22 -52 -48 -52c-17 0 -30 17 -30 35l-14 583c10 6 21 9 32 9s22 -3 32 -9l-8 -333c16 27 44 42 75 42
c15 0 28 -5 39 -13l-8 304c10 6 21 9 32 9s23 -3 33 -9l-8 -333c24 27 58 42 94 42c50 0 81 -51 81 -105c0 -76 -78 -118 -133 -170c-19 -18 -27 -52 -55 -52c-17 0 -29 17 -29 35zM21 -25v-11c0 -23 1 -45 5 -67c37 40 66 86 66 140c0 30 -5 63 -31 63
c-28 0 -38 -35 -39 -67z" fill="currentColor"/>

<path transform="translate(65.0052, 28.2948) scale(0.0025, -0.0025)" d="M158 0c22 -22 53 -26 84 -26c9 0 16 -7 16 -16l8 -83c1 -9 -7 -16 -15 -16h-1l-83 8c-9 1 -16 8 -16 16c0 31 -4 62 -26 84c-22 -22 -26 -53 -26 -84c0 -8 -7 -15 -16 -16l-83 -8h-1c-8 0 -16 7 -15 16l8 83c0 9 7 16 16 16c31 0 62 4 84 26c-22 22 -53 26 -84 26
c-9 0 -16 7 -16 16l-8 83c-1 9 7 16 15 16h1l83 -8c9 -1 16 -8 16 -16c0 -31 4 -62 26 -84c22 22 26 53 26 84c0 8 7 15 16 16l83 8h1c8 0 16 -7 15 -16l-8 -83c0 -9 -7 -16 -16 -16c-31 0 -62 -4 -84 -26z" fill="currentColor"/>

<path transform="translate(19.2264, 40.1188) scale(0.0040, -0.0040)" d="M359 27c-49 0 -75 42 -75 75c0 38 27 77 72 77c4 0 9 0 14 -1c-28 37 -72 59 -120 59c-106 0 -113 -73 -113 -186v-51v-51c0 -113 7 -187 113 -187c80 0 139 70 158 151c2 7 7 10 12 10c6 0 13 -4 13 -12c0 -94 -105 -174 -183 -174c-68 0 -137 21 -184 70
c-49 51 -66 122 -66 193s17 142 66 193c47 49 116 69 184 69c87 0 160 -64 175 -150c1 -5 1 -9 1 -13c0 -40 -30 -72 -67 -72z" fill="currentColor"/>
<a style="color:inherit;" xlink:href="46:2:17">
<path transform="translate(22.9264, 39.1188) scale(0.0040, -0.0040)" d="M365 -156h-355c-6 0 -10 4 -10 10v136c0 6 4 10 10 10h355c6 0 10 -4 10 -10v-136c0 -6 -4 -10 -10 -10z" fill="currentColor"/>
</a>
<path transform="translate(15.0264, 39.1188) scale(0.0040, -0.0040)" d="M318 0c0 -33 7 -73 45 -73c29 0 57 31 88 31c123 0 229 -89 229 -208c0 -169 -93 -250 -265 -250c-83 0 -152 61 -152 142c0 42 34 77 76 77s76 -35 76 -77c0 -39 -49 -37 -49 -76c0 -23 24 -38 49 -38c116 0 140 90 140 222c0 106 -12 180 -104 180
c-72 0 -119 -71 -119 -149c0 -9 -7 -14 -14 -14s-13 5 -13 14c0 76 -31 147 -84 200v-471c0 -6 -4 -10 -10 -10h-21c-6 0 -10 4 -10 10v980c0 6 4 10 10 10h21c6 0 10 -4 10 -10v-471c53 53 84 124 84 200c0 9 6 14 13 14s14 -5 14 -14c0 -78 47 -149 119 -149
c92 0 104 74 104 180c0 132 -24 222 -140 222c-25 0 -49 -15 -49 -38c0 -39 49 -37 49 -76c0 -42 -34 -77 -76 -77s-76 35 -76 77c0 81 69 142 152 142c172 0 265 -81 265 -250c0 -119 -106 -208 -229 -208c-31 0 -59 31 -88 31c-38 0 -45 -40 -45 -73zM129 -500h-119
c-6 0 -10 4 -10 10v980c0 6 4 10 10 10h119c6 0 10 -4 10 -10v-980c0 -6 -4 -10 -10 -10z" fill="currentColor"/>

<a style="color:inherit;" xlink:href="31:26:41">
<path transform="translate(68.9151, 28.2948) scale(0.0028, -0.0028)" d="M208 139c61 0 117 -33 117 -99c0 -71 -52 -119 -99 -147c-34 -20 -71 -32 -110 -32c-61 0 -116 33 -116 99c0 71 51 119 98 147c34 20 71 32 110 32z" fill="currentColor"/>
</a>

<a style="color:inherit;" xlink:href="33:6:21">
<path transform="translate(80.5202, 21.8498) scale(0.0040, -0.0040)" d="M-50 0c0 28 22 50 50 50s50 -22 50 -50s-22 -50 -50 -50s-50 22 -50 50z" fill="currentColor"/>
</a>
<a style="color:inherit;" xlink:href="33:2:17">
<path transform="translate(79.8681, 22.7948) scale(0.0040, -0.0040)" d="M218 136c55 0 108 -28 108 -89c0 -71 -55 -121 -102 -149c-35 -21 -75 -34 -116 -34c-55 0 -108 28 -108 89c0 71 55 121 102 149c35 21 75 34 116 34z" fill="currentColor"/>
</a>
<a style="color:inherit;" xlink:href="17:4:19">



</a>
<a style="color:inherit;" xlink:href="17:2:17">
<path transform="translate(79.8681, 7.5167) scale(0.0040, -0.0040)" d="M218 136c55 0 108 -28 108 -89c0 -71 -55 -121 -102 -149c-35 -21 -75 -34 -116 -34c-55 0 -108 28 -108 89c0 71 55 121 102 149c35 21 75 34 116 34z" fill="currentColor"/>
</a>

<a style="color:inherit;" xlink:href="31:16:31">
<path transform="translate(63.4873, 28.2948) scale(0.0028, -0.0028)" d="M208 139c61 0 117 -33 117 -99c0 -71 -52 -119 -99 -147c-34 -20 -71 -32 -110 -32c-61 0 -116 33 -116 99c0 71 51 119 98 147c34 20 71 32 110 32z" fill="currentColor"/>
</a>
<a style="color:inherit;" xlink:href="31:20:35">
<path transform="translate(66.0303, 28.2948) scale(0.0028, -0.0028)" d="M208 139c61 0 117 -33 117 -99c0 -71 -52 -119 -99 -147c-34 -20 -71 -32 -110 -32c-61 0 -116 33 -116 99c0 71 51 119 98 147c34 20 71 32 110 32z" fill="currentColor"/>
</a>
<path transform="translate(62.6334, 28.2948) scale(0.0025, -0.0025)" d="M34 33l-1 -58v-10c0 -21 2 -43 5 -64c41 38 85 80 85 136c0 31 -13 63 -40 63c-31 0 -48 -33 -49 -67zM-18 -142l-14 583c10 6 21 9 32 9s22 -3 32 -9l-8 -333c25 27 60 42 97 42c49 0 79 -52 79 -106c0 -76 -78 -117 -133 -169c-19 -18 -27 -52 -55 -52
c-17 0 -30 17 -30 35z" fill="currentColor"/>
<a style="color:inherit;" xlink:href="31:10:25">
<path transform="translate(61.0107, 28.2948) scale(0.0028, -0.0028)" d="M208 139c61 0 117 -33 117 -99c0 -71 -52 -119 -99 -147c-34 -20 -71 -32 -110 -32c-61 0 -116 33 -116 99c0 71 51 119 98 147c34 20 71 32 110 32z" fill="currentColor"/>
</a>

<path transform="translate(59.9678, 28.2948) scale(0.0025, -0.0025)" d="M198 -327c-13 0 -24 11 -24 24v129l-73 -29v-148c0 -13 -11 -24 -24 -24s-23 11 -23 24v129l-10 -4c-4 -2 -8 -2 -12 -2c-17 0 -32 14 -32 32v46c0 13 8 24 20 29l34 14v148l-10 -4c-4 -2 -8 -3 -12 -3c-17 0 -32 14 -32 32v46c0 13 8 25 20 30l34 13v148
c0 13 10 24 23 24s24 -11 24 -24v-129l73 29v148c0 13 11 24 24 24s23 -11 23 -24v-129l10 4c4 2 8 2 12 2c17 0 32 -14 32 -32v-46c0 -13 -8 -24 -20 -29l-34 -14v-148l10 4c4 2 8 3 12 3c17 0 32 -14 32 -32v-46c0 -13 -8 -25 -20 -30l-34 -13v-148c0 -13 -10 -24 -23 -24
zM101 59v-148l73 30v148z" fill="currentColor"/>
<a transform="translate(5659.7198, 565.1628)" xlink:href="http://lilypond.org/">

</a>



</svg>
